Klei-Medium.ufo
<glyph name="exclam" format="1">
  <advance width="244"/>
  <unicode hex="0021"/>
  <outline>
    <contour>
      <point x="122" y="201" type="curve" smooth="yes"/>
      <point x="141" y="201"/>
      <point x="160" y="217"/>
      <point x="161" y="234" type="curve"/>
      <point x="182" y="697" type="line"/>
      <point x="182" y="706"/>
      <point x="180" y="715"/>
      <point x="176" y="722" type="curve" smooth="yes"/>
      <point x="166" y="739"/>
      <point x="147" y="751"/>
      <point x="121" y="751" type="curve" smooth="yes"/>
      <point x="96" y="751"/>
      <point x="76" y="739"/>
      <point x="66" y="722" type="curve" smooth="yes"/>
      <point x="62" y="715"/>
      <point x="60" y="706"/>
      <point x="60" y="697" type="curve"/>
      <point x="83" y="234" type="line"/>
      <point x="84" y="217"/>
      <point x="102" y="201"/>
    </contour>
    <component base="period" xOffset="10"/>
  </outline>
</glyph>
<glyph name="numbersign" format="1">
  <advance width="695"/>
  <unicode hex="0023"/>
  <outline>
    <contour>
      <point x="146" y="3" type="curve" smooth="yes"/>
      <point x="185" y="3" type="line" smooth="yes"/>
      <point x="194" y="3"/>
      <point x="199" y="7"/>
      <point x="202" y="19" type="curve"/>
      <point x="371" y="719" type="line"/>
      <point x="372" y="722"/>
      <point x="372" y="724"/>
      <point x="372" y="726" type="curve" smooth="yes"/>
      <point x="372" y="732"/>
      <point x="364" y="737"/>
      <point x="353" y="737" type="curve" smooth="yes"/>
      <point x="316" y="737" type="line" smooth="yes"/>
      <point x="310" y="737"/>
      <point x="299" y="729"/>
      <point x="297" y="722" type="curve"/>
      <point x="129" y="21" type="line"/>
      <point x="129" y="19"/>
      <point x="129" y="18"/>
      <point x="129" y="16" type="curve" smooth="yes"/>
      <point x="130" y="8"/>
      <point x="138" y="3"/>
    </contour>
    <contour>
      <point x="326" y="3" type="curve" smooth="yes"/>
      <point x="365" y="3" type="line" smooth="yes"/>
      <point x="374" y="3"/>
      <point x="379" y="7"/>
      <point x="382" y="19" type="curve"/>
      <point x="551" y="719" type="line"/>
      <point x="552" y="722"/>
      <point x="552" y="724"/>
      <point x="552" y="726" type="curve" smooth="yes"/>
      <point x="552" y="732"/>
      <point x="544" y="737"/>
      <point x="533" y="737" type="curve" smooth="yes"/>
      <point x="496" y="737" type="line" smooth="yes"/>
      <point x="490" y="737"/>
      <point x="479" y="729"/>
      <point x="477" y="722" type="curve"/>
      <point x="309" y="21" type="line"/>
      <point x="309" y="19"/>
      <point x="309" y="18"/>
      <point x="309" y="16" type="curve" smooth="yes"/>
      <point x="309" y="8"/>
      <point x="318" y="3"/>
    </contour>
    <contour>
      <point x="108" y="476" type="curve" smooth="yes"/>
      <point x="254" y="476" type="line"/>
      <point x="273" y="555" type="line"/>
      <point x="125" y="555" type="line" smooth="yes"/>
      <point x="116" y="555"/>
      <point x="108" y="549"/>
      <point x="105" y="540" type="curve"/>
      <point x="93" y="500" type="line"/>
      <point x="91" y="495"/>
      <point x="91" y="492"/>
      <point x="91" y="491" type="curve" smooth="yes"/>
      <point x="91" y="480"/>
      <point x="101" y="476"/>
    </contour>
    <contour>
      <point x="296" y="476" type="line"/>
      <point x="434" y="476" type="line"/>
      <point x="453" y="555" type="line"/>
      <point x="315" y="555" type="line"/>
    </contour>
    <contour>
      <point x="476" y="476" type="line"/>
      <point x="627" y="476" type="line" smooth="yes"/>
      <point x="638" y="476"/>
      <point x="645" y="486"/>
      <point x="647" y="493" type="curve" smooth="yes"/>
      <point x="661" y="537" type="line"/>
      <point x="662" y="540"/>
      <point x="662" y="540"/>
      <point x="662" y="541" type="curve" smooth="yes"/>
      <point x="662" y="552"/>
      <point x="651" y="555"/>
      <point x="645" y="555" type="curve" smooth="yes"/>
      <point x="495" y="555" type="line"/>
    </contour>
    <contour>
      <point x="57" y="217" type="curve" smooth="yes"/>
      <point x="192" y="217" type="line"/>
      <point x="211" y="296" type="line"/>
      <point x="74" y="296" type="line" smooth="yes"/>
      <point x="65" y="296"/>
      <point x="57" y="290"/>
      <point x="54" y="281" type="curve"/>
      <point x="42" y="240" type="line"/>
      <point x="40" y="237"/>
      <point x="40" y="233"/>
      <point x="40" y="232" type="curve" smooth="yes"/>
      <point x="40" y="221"/>
      <point x="50" y="217"/>
    </contour>
    <contour>
      <point x="234" y="217" type="line"/>
      <point x="372" y="217" type="line"/>
      <point x="391" y="296" type="line"/>
      <point x="253" y="296" type="line"/>
    </contour>
    <contour>
      <point x="414" y="217" type="line"/>
      <point x="576" y="217" type="line" smooth="yes"/>
      <point x="585" y="217"/>
      <point x="593" y="223"/>
      <point x="596" y="232" type="curve"/>
      <point x="610" y="277" type="line"/>
      <point x="611" y="280"/>
      <point x="611" y="281"/>
      <point x="611" y="282" type="curve" smooth="yes"/>
      <point x="611" y="293"/>
      <point x="600" y="296"/>
      <point x="594" y="296" type="curve" smooth="yes"/>
      <point x="433" y="296" type="line"/>
    </contour>
  </outline>
</glyph>
<glyph name="dollar" format="1">
  <advance width="583"/>
  <unicode hex="0024"/>
  <outline>
    <contour>
      <point x="228" y="71"/>
      <point x="289" y="71" type="curve" smooth="yes"/>
      <point x="358" y="71"/>
      <point x="410" y="115"/>
      <point x="410" y="173" type="curve" smooth="yes"/>
      <point x="410" y="217"/>
      <point x="389" y="236"/>
      <point x="346" y="262" type="curve"/>
      <point x="240" y="327" type="line"/>
      <point x="179" y="364"/>
      <point x="120" y="408"/>
      <point x="120" y="462" type="curve" smooth="yes"/>
      <point x="120" y="539"/>
      <point x="193" y="620"/>
      <point x="332" y="620" type="curve" smooth="yes"/>
      <point x="410" y="620"/>
      <point x="477" y="586"/>
      <point x="477" y="560" type="curve" smooth="yes"/>
      <point x="477" y="550"/>
      <point x="465" y="501"/>
      <point x="447" y="501" type="curve" smooth="yes"/>
      <point x="439" y="501"/>
      <point x="431" y="507"/>
      <point x="422" y="518" type="curve" smooth="yes"/>
      <point x="399" y="545"/>
      <point x="375" y="573"/>
      <point x="328" y="573" type="curve" smooth="yes"/>
      <point x="239" y="573"/>
      <point x="215" y="527"/>
      <point x="215" y="491" type="curve" smooth="yes"/>
      <point x="215" y="455"/>
      <point x="239" y="437"/>
      <point x="283" y="408" type="curve"/>
      <point x="363" y="364" type="line"/>
      <point x="440" y="321"/>
      <point x="499" y="279"/>
      <point x="499" y="212" type="curve" smooth="yes"/>
      <point x="499" y="143"/>
      <point x="459" y="98"/>
      <point x="417" y="65" type="curve" smooth="yes"/>
      <point x="385" y="40"/>
      <point x="333" y="25"/>
      <point x="288" y="25" type="curve" smooth="yes"/>
      <point x="183" y="25"/>
      <point x="105" y="82"/>
      <point x="105" y="129" type="curve" smooth="yes"/>
      <point x="105" y="149"/>
      <point x="128" y="183"/>
      <point x="147" y="183" type="curve" smooth="yes"/>
      <point x="155" y="183"/>
      <point x="162" y="173"/>
      <point x="172" y="157" type="curve" smooth="yes"/>
      <point x="206" y="102"/>
    </contour>
    <contour>
      <point x="369" y="591" type="curve"/>
      <point x="303" y="600" type="line"/>
      <point x="304" y="629"/>
      <point x="305" y="648"/>
      <point x="308" y="670" type="curve" smooth="yes"/>
      <point x="310" y="674"/>
      <point x="331" y="675"/>
      <point x="342" y="675" type="curve" smooth="yes"/>
      <point x="358" y="675"/>
      <point x="378" y="665"/>
      <point x="378" y="649" type="curve" smooth="yes"/>
      <point x="378" y="630"/>
      <point x="373" y="606"/>
    </contour>
    <contour>
      <point x="343" y="357" type="curve"/>
      <point x="284" y="390" type="line"/>
      <point x="292" y="461"/>
      <point x="298" y="523"/>
      <point x="302" y="590" type="curve"/>
      <point x="368" y="577" type="line"/>
      <point x="358" y="505"/>
      <point x="350" y="435"/>
    </contour>
    <contour>
      <point x="237" y="38" type="curve"/>
      <point x="305" y="40" type="line"/>
      <point x="300" y="-12"/>
      <point x="299" y="-21"/>
      <point x="298" y="-27" type="curve"/>
      <point x="288" y="-43"/>
      <point x="273" y="-47"/>
      <point x="258" y="-47" type="curve" smooth="yes"/>
      <point x="247" y="-47"/>
      <point x="237" y="-43"/>
      <point x="229" y="-38" type="curve" smooth="yes"/>
      <point x="226" y="-36" type="line"/>
      <point x="226" y="-32" type="line" smooth="yes"/>
      <point x="226" y="-13"/>
      <point x="231" y="10"/>
      <point x="235" y="25" type="curve" smooth="yes"/>
      <point x="237" y="31"/>
      <point x="237" y="36"/>
    </contour>
    <contour>
      <point x="307" y="60" type="curve"/>
      <point x="243" y="68" type="line"/>
      <point x="256" y="158"/>
      <point x="266" y="243"/>
      <point x="275" y="323" type="curve"/>
      <point x="334" y="289" type="line"/>
      <point x="322" y="197"/>
      <point x="313" y="121"/>
    </contour>
  </outline>
</glyph>
<glyph name="percent" format="1">
  <advance width="898"/>
  <unicode hex="0025"/>
  <outline>
    <contour>
      <point x="235" y="-71" type="curve" smooth="yes"/>
      <point x="239" y="-71"/>
      <point x="244" y="-70"/>
      <point x="248" y="-65" type="curve"/>
      <point x="261" y="-44"/>
      <point x="697" y="673"/>
      <point x="697" y="678" type="curve" smooth="yes"/>
      <point x="697" y="685"/>
      <point x="690" y="691"/>
      <point x="686" y="694" type="curve" smooth="yes"/>
      <point x="666" y="709" type="line"/>
      <point x="664" y="710"/>
      <point x="661" y="711"/>
      <point x="658" y="711" type="curve" smooth="yes"/>
      <point x="652" y="711"/>
      <point x="647" y="707"/>
      <point x="644" y="703" type="curve"/>
      <point x="200" y="-33" type="line"/>
      <point x="198" y="-36"/>
      <point x="197" y="-39"/>
      <point x="197" y="-42" type="curve" smooth="yes"/>
      <point x="197" y="-48"/>
      <point x="200" y="-52"/>
      <point x="205" y="-56" type="curve" smooth="yes"/>
      <point x="210" y="-60"/>
      <point x="226" y="-71"/>
    </contour>
    <contour>
      <point x="220" y="249" type="curve" smooth="yes"/>
      <point x="315" y="249"/>
      <point x="390" y="322"/>
      <point x="390" y="449" type="curve" smooth="yes"/>
      <point x="390" y="576"/>
      <point x="315" y="649"/>
      <point x="220" y="649" type="curve" smooth="yes"/>
      <point x="127" y="649"/>
      <point x="52" y="576"/>
      <point x="52" y="449" type="curve" smooth="yes"/>
      <point x="52" y="322"/>
      <point x="127" y="249"/>
    </contour>
    <contour>
      <point x="220" y="291" type="curve" smooth="yes"/>
      <point x="173" y="291"/>
      <point x="139" y="356"/>
      <point x="139" y="449" type="curve" smooth="yes"/>
      <point x="139" y="542"/>
      <point x="173" y="607"/>
      <point x="220" y="607" type="curve" smooth="yes"/>
      <point x="266" y="607"/>
      <point x="302" y="542"/>
      <point x="302" y="449" type="curve" smooth="yes"/>
      <point x="302" y="356"/>
      <point x="266" y="291"/>
    </contour>
    <contour>
      <point x="678" y="-16" type="curve" smooth="yes"/>
      <point x="771" y="-16"/>
      <point x="846" y="57"/>
      <point x="846" y="184" type="curve" smooth="yes"/>
      <point x="846" y="311"/>
      <point x="771" y="384"/>
      <point x="678" y="384" type="curve" smooth="yes"/>
      <point x="583" y="384"/>
      <point x="507" y="311"/>
      <point x="507" y="184" type="curve" smooth="yes"/>
      <point x="507" y="57"/>
      <point x="583" y="-16"/>
    </contour>
    <contour>
      <point x="678" y="26" type="curve" smooth="yes"/>
      <point x="632" y="26"/>
      <point x="596" y="91"/>
      <point x="596" y="184" type="curve" smooth="yes"/>
      <point x="596" y="277"/>
      <point x="632" y="342"/>
      <point x="678" y="342" type="curve" smooth="yes"/>
      <point x="724" y="342"/>
      <point x="759" y="277"/>
      <point x="759" y="184" type="curve" smooth="yes"/>
      <point x="759" y="91"/>
      <point x="724" y="26"/>
    </contour>
  </outline>
</glyph>
<glyph name="ampersand" format="1">
  <advance width="811"/>
  <unicode hex="0026"/>
  <outline>
    <contour>
      <point x="265" y="460" type="curve"/>
      <point x="348" y="533"/>
      <point x="349" y="578"/>
      <point x="349" y="619" type="curve" smooth="yes"/>
      <point x="349" y="666"/>
      <point x="319" y="702"/>
      <point x="266" y="702" type="curve" smooth="yes"/>
      <point x="209" y="702"/>
      <point x="184" y="644"/>
      <point x="184" y="604" type="curve" smooth="yes"/>
      <point x="184" y="563"/>
      <point x="215" y="511"/>
    </contour>
    <contour>
      <point x="487" y="235" type="curve"/>
      <point x="509" y="253"/>
      <point x="521" y="263"/>
      <point x="544" y="284" type="curve" smooth="yes"/>
      <point x="557" y="296"/>
      <point x="576" y="314"/>
      <point x="576" y="323" type="curve" smooth="yes"/>
      <point x="576" y="329"/>
      <point x="562" y="334"/>
      <point x="548" y="335" type="curve" smooth="yes"/>
      <point x="541" y="335" type="line"/>
      <point x="541" y="364" type="line"/>
      <point x="684" y="364" type="line"/>
      <point x="684" y="335" type="line"/>
      <point x="677" y="335" type="line" smooth="yes"/>
      <point x="665" y="334"/>
      <point x="656" y="329"/>
      <point x="649" y="324" type="curve" smooth="yes"/>
      <point x="636" y="315"/>
      <point x="589" y="277"/>
      <point x="577" y="266" type="curve" smooth="yes"/>
      <point x="558" y="249"/>
      <point x="532" y="225"/>
      <point x="516" y="201" type="curve"/>
      <point x="554" y="140"/>
      <point x="624" y="29"/>
      <point x="676" y="29" type="curve" smooth="yes"/>
      <point x="743" y="29"/>
      <point x="764" y="64"/>
      <point x="771" y="76" type="curve"/>
      <point x="787" y="60" type="line"/>
      <point x="774" y="21"/>
      <point x="739" y="-23"/>
      <point x="661" y="-23" type="curve" smooth="yes"/>
      <point x="558" y="-23"/>
      <point x="523" y="32"/>
      <point x="484" y="94" type="curve" smooth="yes"/>
      <point x="479" y="102"/>
      <point x="469" y="118"/>
      <point x="463" y="126" type="curve"/>
      <point x="415" y="52"/>
      <point x="367" y="-17"/>
      <point x="260" y="-17" type="curve" smooth="yes"/>
      <point x="119" y="-17"/>
      <point x="24" y="68"/>
      <point x="24" y="175" type="curve" smooth="yes"/>
      <point x="24" y="274"/>
      <point x="124" y="348"/>
      <point x="189" y="394" type="curve"/>
      <point x="138" y="445"/>
      <point x="93" y="513"/>
      <point x="93" y="567" type="curve" smooth="yes"/>
      <point x="93" y="645"/>
      <point x="156" y="742"/>
      <point x="262" y="742" type="curve" smooth="yes"/>
      <point x="411" y="742"/>
      <point x="420" y="641"/>
      <point x="420" y="595" type="curve" smooth="yes"/>
      <point x="420" y="534"/>
      <point x="353" y="479"/>
      <point x="292" y="434" type="curve"/>
      <point x="323" y="406"/>
      <point x="351" y="379"/>
      <point x="377" y="353" type="curve" smooth="yes"/>
      <point x="431" y="299"/>
      <point x="462" y="265"/>
    </contour>
    <contour>
      <point x="227" y="359" type="curve"/>
      <point x="155" y="300"/>
      <point x="126" y="250"/>
      <point x="126" y="184" type="curve" smooth="yes"/>
      <point x="126" y="110"/>
      <point x="166" y="33"/>
      <point x="261" y="33" type="curve" smooth="yes"/>
      <point x="336" y="33"/>
      <point x="379" y="96"/>
      <point x="421" y="159" type="curve"/>
      <point x="390" y="199"/>
      <point x="365" y="226"/>
      <point x="318" y="274" type="curve" smooth="yes"/>
      <point x="292" y="300"/>
      <point x="264" y="326"/>
    </contour>
  </outline>
</glyph>
<glyph name="quotesingle" format="1">
  <advance width="192"/>
  <unicode hex="0027"/>
  <outline>
    <contour>
      <point x="89" y="499" type="curve" smooth="yes"/>
      <point x="103" y="499" type="line" smooth="yes"/>
      <point x="110" y="499"/>
      <point x="119" y="506"/>
      <point x="120" y="515" type="curve" smooth="yes"/>
      <point x="132" y="634" type="line" smooth="yes"/>
      <point x="132" y="636"/>
      <point x="132" y="639"/>
      <point x="132" y="641" type="curve" smooth="yes"/>
      <point x="132" y="666"/>
      <point x="118" y="679"/>
      <point x="96" y="679" type="curve" smooth="yes"/>
      <point x="74" y="679"/>
      <point x="60" y="662"/>
      <point x="60" y="641" type="curve" smooth="yes"/>
      <point x="60" y="639"/>
      <point x="60" y="636"/>
      <point x="60" y="634" type="curve" smooth="yes"/>
      <point x="72" y="517" type="line" smooth="yes"/>
      <point x="73" y="506"/>
      <point x="79" y="499"/>
    </contour>
  </outline>
</glyph>
<glyph name="parenleft" format="1">
  <advance width="294"/>
  <unicode hex="0028"/>
  <outline>
    <contour>
      <point x="244" y="-99" type="curve"/>
      <point x="244" y="-49" type="line"/>
      <point x="159" y="53"/>
      <point x="139" y="143"/>
      <point x="139" y="350" type="curve" smooth="yes"/>
      <point x="139" y="557"/>
      <point x="159" y="647"/>
      <point x="244" y="749" type="curve"/>
      <point x="244" y="799" type="line"/>
      <point x="232" y="790"/>
      <point x="50" y="641"/>
      <point x="50" y="350" type="curve" smooth="yes"/>
      <point x="50" y="59"/>
      <point x="232" y="-90"/>
    </contour>
  </outline>
</glyph>
<glyph name="parenright" format="1">
  <advance width="294"/>
  <unicode hex="0029"/>
  <outline>
    <contour>
      <point x="50" y="-99" type="line"/>
      <point x="62" y="-90"/>
      <point x="244" y="59"/>
      <point x="244" y="350" type="curve" smooth="yes"/>
      <point x="244" y="641"/>
      <point x="62" y="790"/>
      <point x="50" y="799" type="curve"/>
      <point x="50" y="749" type="line"/>
      <point x="135" y="647"/>
      <point x="155" y="557"/>
      <point x="155" y="350" type="curve" smooth="yes"/>
      <point x="155" y="143"/>
      <point x="135" y="53"/>
      <point x="50" y="-49" type="curve"/>
    </contour>
  </outline>
</glyph>
<glyph name="asterisk" format="1">
  <advance width="356"/>
  <unicode hex="002A"/>
  <outline>
    <contour>
      <point x="172" y="325" type="curve" smooth="yes"/>
      <point x="185" y="325" type="line" smooth="yes"/>
      <point x="194" y="325"/>
      <point x="204" y="332"/>
      <point x="204" y="342" type="curve"/>
      <point x="208" y="442" type="line"/>
      <point x="297" y="396" type="line" smooth="yes"/>
      <point x="301" y="394"/>
      <point x="302" y="394"/>
      <point x="305" y="394" type="curve" smooth="yes"/>
      <point x="312" y="394"/>
      <point x="317" y="399"/>
      <point x="320" y="404" type="curve"/>
      <point x="321" y="407" type="line"/>
      <point x="322" y="408"/>
      <point x="325" y="415"/>
      <point x="325" y="420" type="curve" smooth="yes"/>
      <point x="325" y="427"/>
      <point x="321" y="432"/>
      <point x="317" y="435" type="curve" smooth="yes"/>
      <point x="233" y="490" type="line"/>
      <point x="317" y="545" type="line" smooth="yes"/>
      <point x="321" y="548"/>
      <point x="325" y="553"/>
      <point x="325" y="560" type="curve" smooth="yes"/>
      <point x="325" y="564"/>
      <point x="323" y="572"/>
      <point x="320" y="576" type="curve" smooth="yes"/>
      <point x="316" y="581"/>
      <point x="310" y="584"/>
      <point x="304" y="584" type="curve" smooth="yes"/>
      <point x="300" y="584"/>
      <point x="300" y="584"/>
      <point x="296" y="582" type="curve" smooth="yes"/>
      <point x="206" y="536" type="line"/>
      <point x="202" y="637" type="line"/>
      <point x="202" y="646"/>
      <point x="194" y="654"/>
      <point x="184" y="654" type="curve" smooth="yes"/>
      <point x="171" y="654" type="line" smooth="yes"/>
      <point x="161" y="654"/>
      <point x="153" y="645"/>
      <point x="153" y="637" type="curve"/>
      <point x="149" y="536" type="line"/>
      <point x="59" y="582" type="line"/>
      <point x="56" y="583"/>
      <point x="52" y="584"/>
      <point x="50" y="584" type="curve" smooth="yes"/>
      <point x="41" y="584"/>
      <point x="29" y="571"/>
      <point x="29" y="560" type="curve" smooth="yes"/>
      <point x="29" y="555"/>
      <point x="31" y="548"/>
      <point x="37" y="544" type="curve"/>
      <point x="122" y="488" type="line"/>
      <point x="37" y="432" type="line"/>
      <point x="35" y="430"/>
      <point x="31" y="424"/>
      <point x="31" y="418" type="curve" smooth="yes"/>
      <point x="31" y="414"/>
      <point x="34" y="406"/>
      <point x="36" y="403" type="curve" smooth="yes"/>
      <point x="38" y="400"/>
      <point x="42" y="394"/>
      <point x="50" y="394" type="curve" smooth="yes"/>
      <point x="52" y="394"/>
      <point x="56" y="394"/>
      <point x="59" y="396" type="curve" smooth="yes"/>
      <point x="149" y="443" type="line"/>
      <point x="153" y="342" type="line"/>
      <point x="153" y="332"/>
      <point x="163" y="325"/>
    </contour>
  </outline>
</glyph>
<glyph name="plus" format="1">
  <advance width="420"/>
  <unicode hex="002B"/>
  <outline>
    <contour>
      <point x="210" y="137" type="curve" smooth="yes"/>
      <point x="223" y="137"/>
      <point x="232" y="139"/>
      <point x="241" y="147" type="curve"/>
      <point x="241" y="267" type="line"/>
      <point x="348" y="267" type="line"/>
      <point x="361" y="267"/>
      <point x="361" y="285"/>
      <point x="361" y="299" type="curve" smooth="yes"/>
      <point x="361" y="313"/>
      <point x="361" y="329"/>
      <point x="348" y="329" type="curve"/>
      <point x="242" y="329" type="line"/>
      <point x="242" y="436" type="line"/>
      <point x="232" y="441"/>
      <point x="223" y="444"/>
      <point x="210" y="444" type="curve" smooth="yes"/>
      <point x="197" y="444"/>
      <point x="189" y="441"/>
      <point x="179" y="437" type="curve"/>
      <point x="179" y="329" type="line"/>
      <point x="75" y="329" type="line"/>
      <point x="61" y="329"/>
      <point x="59" y="312"/>
      <point x="59" y="298" type="curve" smooth="yes"/>
      <point x="59" y="285"/>
      <point x="62" y="267"/>
      <point x="74" y="267" type="curve"/>
      <point x="179" y="267" type="line"/>
      <point x="179" y="147" type="line"/>
      <point x="189" y="139"/>
      <point x="197" y="137"/>
    </contour>
  </outline>
</glyph>
<glyph name="comma" format="1">
  <advance width="240"/>
  <unicode hex="002C"/>
  <outline>
    <contour>
      <point x="86" y="-86" type="curve" smooth="yes"/>
      <point x="143" y="-86"/>
      <point x="185" y="-36"/>
      <point x="185" y="41" type="curve" smooth="yes"/>
      <point x="185" y="70"/>
      <point x="160" y="98"/>
      <point x="126" y="98" type="curve" smooth="yes"/>
      <point x="93" y="98"/>
      <point x="63" y="70"/>
      <point x="63" y="38" type="curve" smooth="yes"/>
      <point x="63" y="12"/>
      <point x="74" y="2"/>
      <point x="89" y="-8" type="curve" smooth="yes"/>
      <point x="94" y="-11"/>
      <point x="104" y="-21"/>
      <point x="104" y="-27" type="curve" smooth="yes"/>
      <point x="104" y="-53"/>
      <point x="67" y="-60"/>
      <point x="45" y="-60" type="curve"/>
      <point x="60" y="-81" type="line"/>
      <point x="64" y="-83"/>
      <point x="70" y="-86"/>
    </contour>
  </outline>
</glyph>
<glyph name="hyphen" format="1">
  <advance width="403"/>
  <unicode hex="002D"/>
  <outline>
    <contour>
      <point x="75" y="262" type="curve"/>
      <point x="330" y="262" type="line"/>
      <point x="344" y="262"/>
      <point x="345" y="278"/>
      <point x="345" y="297" type="curve" smooth="yes"/>
      <point x="345" y="316"/>
      <point x="345" y="334"/>
      <point x="330" y="334" type="curve"/>
      <point x="77" y="334" type="line"/>
      <point x="63" y="334"/>
      <point x="60" y="317"/>
      <point x="60" y="299" type="curve" smooth="yes"/>
      <point x="60" y="278"/>
      <point x="62" y="262"/>
    </contour>
  </outline>
</glyph>
<glyph name="period" format="1">
  <advance width="228"/>
  <unicode hex="002E"/>
  <outline>
    <contour>
      <point x="112" y="-18" type="curve" smooth="yes"/>
      <point x="146" y="-18"/>
      <point x="174" y="10"/>
      <point x="174" y="44" type="curve" smooth="yes"/>
      <point x="174" y="78"/>
      <point x="146" y="106"/>
      <point x="112" y="106" type="curve" smooth="yes"/>
      <point x="78" y="106"/>
      <point x="50" y="78"/>
      <point x="50" y="44" type="curve" smooth="yes"/>
      <point x="50" y="10"/>
      <point x="78" y="-18"/>
    </contour>
    <contour>
      <point x="111" y="141" type="move" name="_bottom"/>
    </contour>
  </outline>
</glyph>
<glyph name="slash" format="1">
  <advance width="398"/>
  <unicode hex="002F"/>
  <outline>
    <contour>
      <point x="40" y="-108" type="line"/>
      <point x="54" y="-103" type="line" smooth="yes"/>
      <point x="63" y="-100"/>
      <point x="72" y="-98"/>
      <point x="82" y="-98" type="curve" smooth="yes"/>
      <point x="105" y="-98"/>
      <point x="122" y="-97"/>
      <point x="133" y="-59" type="curve"/>
      <point x="137" y="-44"/>
      <point x="284" y="427"/>
      <point x="372" y="674" type="curve" smooth="yes"/>
      <point x="372" y="676" type="line" smooth="yes"/>
      <point x="372" y="693"/>
      <point x="350" y="703"/>
      <point x="334" y="703" type="curve" smooth="yes"/>
      <point x="320" y="703"/>
      <point x="311" y="698"/>
      <point x="295" y="682" type="curve" smooth="yes"/>
      <point x="292" y="678" type="line" smooth="yes"/>
      <point x="220" y="421"/>
      <point x="147" y="185"/>
      <point x="45" y="-94" type="curve" smooth="yes"/>
    </contour>
  </outline>
</glyph>
<glyph name="zero" format="1">
  <advance width="480"/>
  <unicode hex="0030"/>
  <outline>
    <contour>
      <point x="240" y="-7" type="curve" smooth="yes"/>
      <point x="369" y="-7"/>
      <point x="460" y="140"/>
      <point x="460" y="317" type="curve" smooth="yes"/>
      <point x="460" y="494"/>
      <point x="370" y="640"/>
      <point x="240" y="640" type="curve" smooth="yes"/>
      <point x="111" y="640"/>
      <point x="20" y="494"/>
      <point x="20" y="317" type="curve" smooth="yes"/>
      <point x="20" y="140"/>
      <point x="111" y="-7"/>
    </contour>
    <contour>
      <point x="240" y="47" type="curve" smooth="yes"/>
      <point x="181" y="47"/>
      <point x="126" y="148"/>
      <point x="126" y="317" type="curve" smooth="yes"/>
      <point x="126" y="486"/>
      <point x="181" y="587"/>
      <point x="240" y="587" type="curve" smooth="yes"/>
      <point x="299" y="587"/>
      <point x="354" y="486"/>
      <point x="354" y="317" type="curve" smooth="yes"/>
      <point x="354" y="148"/>
      <point x="299" y="47"/>
    </contour>
  </outline>
</glyph>
<glyph name="one" format="1">
  <advance width="480"/>
  <unicode hex="0031"/>
  <outline>
    <contour>
      <point x="159" y="0" type="line"/>
      <point x="336" y="0" type="line"/>
      <point x="336" y="30" type="line"/>
      <point x="329" y="30" type="line"/>
      <point x="310" y="30"/>
      <point x="300" y="42"/>
      <point x="300" y="54" type="curve" smooth="yes"/>
      <point x="300" y="627" type="line" smooth="yes"/>
      <point x="300" y="638"/>
      <point x="291" y="644"/>
      <point x="281" y="644" type="curve" smooth="yes"/>
      <point x="274" y="644"/>
      <point x="267" y="640"/>
      <point x="263" y="637" type="curve" smooth="yes"/>
      <point x="231" y="613"/>
      <point x="191" y="596"/>
      <point x="154" y="582" type="curve"/>
      <point x="154" y="550" type="line"/>
      <point x="160" y="553"/>
      <point x="172" y="558"/>
      <point x="180" y="558" type="curve" smooth="yes"/>
      <point x="194" y="558"/>
      <point x="195" y="536"/>
      <point x="195" y="518" type="curve" smooth="yes"/>
      <point x="195" y="54" type="line" smooth="yes"/>
      <point x="195" y="43"/>
      <point x="186" y="30"/>
      <point x="166" y="30" type="curve"/>
      <point x="159" y="30" type="line"/>
    </contour>
  </outline>
</glyph>
<glyph name="two" format="1">
  <advance width="480"/>
  <unicode hex="0032"/>
  <outline>
    <contour>
      <point x="30" y="0" type="line"/>
      <point x="395" y="0" type="line"/>
      <point x="438" y="116" type="line"/>
      <point x="412" y="121" type="line"/>
      <point x="410" y="115" type="line" smooth="yes"/>
      <point x="400" y="86"/>
      <point x="376" y="68"/>
      <point x="328" y="68" type="curve" smooth="yes"/>
      <point x="106" y="68" type="line"/>
      <point x="143" y="57" type="line"/>
      <point x="164" y="87"/>
      <point x="235" y="184"/>
      <point x="312" y="280" type="curve" smooth="yes"/>
      <point x="396" y="385"/>
      <point x="436" y="450"/>
      <point x="436" y="510" type="curve" smooth="yes"/>
      <point x="436" y="593"/>
      <point x="370" y="642"/>
      <point x="264" y="642" type="curve" smooth="yes"/>
      <point x="141" y="642"/>
      <point x="90" y="543"/>
      <point x="87" y="537" type="curve"/>
      <point x="105" y="513" type="line"/>
      <point x="137" y="554"/>
      <point x="176" y="587"/>
      <point x="240" y="587" type="curve" smooth="yes"/>
      <point x="303" y="587"/>
      <point x="335" y="546"/>
      <point x="335" y="491" type="curve" smooth="yes"/>
      <point x="335" y="451"/>
      <point x="302" y="397"/>
      <point x="264" y="344" type="curve" smooth="yes"/>
      <point x="210" y="268"/>
      <point x="133" y="162"/>
      <point x="30" y="43" type="curve"/>
    </contour>
  </outline>
</glyph>
<glyph name="three" format="1">
  <advance width="480"/>
  <unicode hex="0033"/>
  <outline>
    <contour>
      <point x="184" y="-7" type="curve" smooth="yes"/>
      <point x="339" y="-7"/>
      <point x="441" y="72"/>
      <point x="441" y="198" type="curve" smooth="yes"/>
      <point x="441" y="297"/>
      <point x="344" y="371"/>
      <point x="248" y="380" type="curve"/>
      <point x="309" y="422"/>
      <point x="389" y="478"/>
      <point x="389" y="537" type="curve" smooth="yes"/>
      <point x="389" y="600"/>
      <point x="329" y="640"/>
      <point x="228" y="640" type="curve" smooth="yes"/>
      <point x="111" y="640"/>
      <point x="42" y="533"/>
      <point x="40" y="529" type="curve"/>
      <point x="65" y="506" type="line"/>
      <point x="99" y="550"/>
      <point x="152" y="584"/>
      <point x="206" y="584" type="curve" smooth="yes"/>
      <point x="254" y="584"/>
      <point x="285" y="562"/>
      <point x="285" y="516" type="curve" smooth="yes"/>
      <point x="285" y="443"/>
      <point x="104" y="315"/>
      <point x="98" y="311" type="curve" smooth="yes"/>
      <point x="92" y="307"/>
      <point x="90" y="302"/>
      <point x="90" y="297" type="curve" smooth="yes"/>
      <point x="90" y="287"/>
      <point x="98" y="282"/>
      <point x="107" y="282" type="curve" smooth="yes"/>
      <point x="112" y="282"/>
      <point x="122" y="286"/>
      <point x="134" y="291" type="curve" smooth="yes"/>
      <point x="155" y="300"/>
      <point x="183" y="311"/>
      <point x="207" y="311" type="curve" smooth="yes"/>
      <point x="236" y="311"/>
      <point x="268" y="307"/>
      <point x="294" y="294" type="curve" smooth="yes"/>
      <point x="332" y="275"/>
      <point x="347" y="232"/>
      <point x="347" y="173" type="curve" smooth="yes"/>
      <point x="347" y="92"/>
      <point x="276" y="29"/>
      <point x="187" y="29" type="curve" smooth="yes"/>
      <point x="154" y="29"/>
      <point x="117" y="49"/>
      <point x="97" y="64" type="curve" smooth="yes"/>
      <point x="84" y="73"/>
      <point x="74" y="78"/>
      <point x="62" y="78" type="curve" smooth="yes"/>
      <point x="47" y="78"/>
      <point x="39" y="65"/>
      <point x="35" y="58" type="curve" smooth="yes"/>
      <point x="33" y="54"/>
      <point x="33" y="48"/>
      <point x="33" y="46" type="curve" smooth="yes"/>
      <point x="33" y="16"/>
      <point x="122" y="-7"/>
    </contour>
  </outline>
</glyph>
<glyph name="four" format="1">
  <advance width="480"/>
  <unicode hex="0034"/>
  <outline>
    <contour>
      <point x="291" y="0" type="curve" smooth="yes"/>
      <point x="362" y="0" type="line" smooth="yes"/>
      <point x="372" y="0"/>
      <point x="375" y="9"/>
      <point x="375" y="15" type="curve" smooth="yes"/>
      <point x="375" y="286" type="line"/>
      <point x="377" y="314" type="line"/>
      <point x="377" y="617" type="line" smooth="yes"/>
      <point x="377" y="635"/>
      <point x="361" y="642"/>
      <point x="348" y="642" type="curve" smooth="yes"/>
      <point x="335" y="642"/>
      <point x="322" y="641"/>
      <point x="309" y="638" type="curve" smooth="yes"/>
      <point x="304" y="637"/>
      <point x="237" y="553"/>
      <point x="165" y="462" type="curve" smooth="yes"/>
      <point x="119" y="404"/>
      <point x="72" y="345"/>
      <point x="36" y="301" type="curve"/>
      <point x="32" y="297"/>
      <point x="30" y="291"/>
      <point x="30" y="285" type="curve" smooth="yes"/>
      <point x="30" y="276"/>
      <point x="38" y="271"/>
      <point x="45" y="271" type="curve" smooth="yes"/>
      <point x="290" y="271" type="line"/>
      <point x="284" y="328" type="line"/>
      <point x="259" y="329"/>
      <point x="190" y="329"/>
      <point x="133" y="329" type="curve"/>
      <point x="185" y="388"/>
      <point x="238" y="456"/>
      <point x="296" y="532" type="curve"/>
      <point x="276" y="548" type="line"/>
      <point x="276" y="13" type="line" smooth="yes"/>
      <point x="276" y="7"/>
      <point x="281" y="0"/>
    </contour>
    <contour>
      <point x="360" y="271" type="line"/>
      <point x="454" y="271" type="line"/>
      <point x="453" y="279"/>
      <point x="452" y="288"/>
      <point x="452" y="299" type="curve" smooth="yes"/>
      <point x="452" y="308"/>
      <point x="453" y="327"/>
      <point x="456" y="338" type="curve"/>
      <point x="423" y="331"/>
      <point x="409" y="329"/>
      <point x="354" y="329" type="curve"/>
    </contour>
  </outline>
</glyph>
<glyph name="five" format="1">
  <advance width="480"/>
  <unicode hex="0035"/>
  <outline>
    <contour>
      <point x="210" y="-5" type="curve" smooth="yes"/>
      <point x="344" y="-5"/>
      <point x="448" y="90"/>
      <point x="448" y="210" type="curve" smooth="yes"/>
      <point x="448" y="346"/>
      <point x="361" y="420"/>
      <point x="231" y="420" type="curve" smooth="yes"/>
      <point x="175" y="420"/>
      <point x="137" y="409"/>
      <point x="75" y="375" type="curve"/>
      <point x="97" y="348" type="line"/>
      <point x="158" y="588" type="line"/>
      <point x="128" y="544" type="line"/>
      <point x="414" y="544" type="line"/>
      <point x="420" y="559"/>
      <point x="434" y="595"/>
      <point x="434" y="604" type="curve" smooth="yes"/>
      <point x="434" y="616"/>
      <point x="422" y="618"/>
      <point x="415" y="618" type="curve" smooth="yes"/>
      <point x="407" y="618"/>
      <point x="397" y="617"/>
      <point x="388" y="615" type="curve" smooth="yes"/>
      <point x="377" y="613"/>
      <point x="365" y="611"/>
      <point x="353" y="611" type="curve" smooth="yes"/>
      <point x="115" y="611" type="line"/>
      <point x="31" y="269" type="line"/>
      <point x="88" y="305"/>
      <point x="161" y="327"/>
      <point x="211" y="327" type="curve" smooth="yes"/>
      <point x="316" y="327"/>
      <point x="356" y="259"/>
      <point x="356" y="190" type="curve" smooth="yes"/>
      <point x="356" y="134"/>
      <point x="311" y="43"/>
      <point x="202" y="43" type="curve" smooth="yes"/>
      <point x="161" y="43"/>
      <point x="98" y="52"/>
      <point x="68" y="82" type="curve" smooth="yes"/>
      <point x="64" y="86"/>
      <point x="59" y="88"/>
      <point x="54" y="88" type="curve" smooth="yes"/>
      <point x="46" y="88"/>
      <point x="37" y="82"/>
      <point x="37" y="71" type="curve" smooth="yes"/>
      <point x="37" y="67"/>
      <point x="41" y="59"/>
      <point x="44" y="55" type="curve"/>
      <point x="95" y="3"/>
      <point x="162" y="-5"/>
    </contour>
  </outline>
</glyph>
<glyph name="six" format="1">
  <advance width="480"/>
  <unicode hex="0036"/>
  <outline>
    <contour>
      <point x="243" y="-8" type="curve" smooth="yes"/>
      <point x="382" y="-8"/>
      <point x="467" y="95"/>
      <point x="467" y="207" type="curve" smooth="yes"/>
      <point x="467" y="354"/>
      <point x="356" y="399"/>
      <point x="282" y="399" type="curve" smooth="yes"/>
      <point x="198" y="399"/>
      <point x="163" y="347"/>
      <point x="145" y="320" type="curve"/>
      <point x="142" y="316"/>
      <point x="141" y="312"/>
      <point x="141" y="307" type="curve" smooth="yes"/>
      <point x="141" y="302"/>
      <point x="143" y="292"/>
      <point x="153" y="292" type="curve" smooth="yes"/>
      <point x="157" y="292"/>
      <point x="162" y="294"/>
      <point x="167" y="299" type="curve"/>
      <point x="187" y="319"/>
      <point x="209" y="339"/>
      <point x="259" y="339" type="curve" smooth="yes"/>
      <point x="316" y="339"/>
      <point x="370" y="291"/>
      <point x="370" y="195" type="curve" smooth="yes"/>
      <point x="370" y="100"/>
      <point x="325" y="31"/>
      <point x="244" y="31" type="curve" smooth="yes"/>
      <point x="153" y="31"/>
      <point x="114" y="168"/>
      <point x="114" y="257" type="curve" smooth="yes"/>
      <point x="114" y="355"/>
      <point x="143" y="462"/>
      <point x="238" y="524" type="curve" smooth="yes"/>
      <point x="290" y="558"/>
      <point x="341" y="577"/>
      <point x="376" y="587" type="curve" smooth="yes"/>
      <point x="386" y="590"/>
      <point x="396" y="597"/>
      <point x="396" y="604" type="curve" smooth="yes"/>
      <point x="396" y="614"/>
      <point x="391" y="628"/>
      <point x="387" y="638" type="curve"/>
      <point x="374" y="636" type="line" smooth="yes"/>
      <point x="323" y="628"/>
      <point x="231" y="597"/>
      <point x="173" y="556" type="curve" smooth="yes"/>
      <point x="102" y="506"/>
      <point x="14" y="410"/>
      <point x="14" y="252" type="curve" smooth="yes"/>
      <point x="14" y="115"/>
      <point x="112" y="-8"/>
    </contour>
  </outline>
</glyph>
<glyph name="seven" format="1">
  <advance width="480"/>
  <unicode hex="0037"/>
  <outline>
    <contour>
      <point x="74" y="0" type="curve"/>
      <point x="170" y="0" type="line"/>
      <point x="198" y="169"/>
      <point x="303" y="409"/>
      <point x="427" y="595" type="curve" smooth="yes"/>
      <point x="431" y="601" type="line"/>
      <point x="434" y="605"/>
      <point x="437" y="611"/>
      <point x="437" y="614" type="curve" smooth="yes"/>
      <point x="437" y="619"/>
      <point x="432" y="622"/>
      <point x="420" y="622" type="curve" smooth="yes"/>
      <point x="67" y="622" type="line" smooth="yes"/>
      <point x="58" y="622"/>
      <point x="56" y="615"/>
      <point x="54" y="608" type="curve" smooth="yes"/>
      <point x="50" y="592"/>
      <point x="44" y="563"/>
      <point x="44" y="546" type="curve" smooth="yes"/>
      <point x="44" y="539" type="line" smooth="yes"/>
      <point x="44" y="536"/>
      <point x="47" y="532"/>
      <point x="53" y="532" type="curve" smooth="yes"/>
      <point x="58" y="532" type="line"/>
      <point x="60" y="536"/>
      <point x="66" y="548"/>
      <point x="82" y="548" type="curve" smooth="yes"/>
      <point x="330" y="548" type="line"/>
      <point x="218" y="398"/>
      <point x="99" y="165"/>
    </contour>
  </outline>
</glyph>
<glyph name="eight" format="1">
  <advance width="480"/>
  <unicode hex="0038"/>
  <outline>
    <contour>
      <point x="243" y="-8" type="curve" smooth="yes"/>
      <point x="362" y="-8"/>
      <point x="445" y="76"/>
      <point x="445" y="147" type="curve" smooth="yes"/>
      <point x="445" y="252"/>
      <point x="365" y="313"/>
      <point x="277" y="374" type="curve"/>
      <point x="266" y="392" type="line"/>
      <point x="196" y="433"/>
      <point x="164" y="461"/>
      <point x="164" y="514" type="curve" smooth="yes"/>
      <point x="164" y="557"/>
      <point x="189" y="609"/>
      <point x="244" y="609" type="curve" smooth="yes"/>
      <point x="299" y="609"/>
      <point x="331" y="575"/>
      <point x="331" y="511" type="curve" smooth="yes"/>
      <point x="331" y="466"/>
      <point x="305" y="445"/>
      <point x="238" y="392" type="curve"/>
      <point x="280" y="359" type="line"/>
      <point x="294" y="371"/>
      <point x="313" y="385"/>
      <point x="332" y="399" type="curve" smooth="yes"/>
      <point x="373" y="429"/>
      <point x="413" y="467"/>
      <point x="413" y="514" type="curve" smooth="yes"/>
      <point x="413" y="588"/>
      <point x="333" y="643"/>
      <point x="244" y="643" type="curve" smooth="yes"/>
      <point x="107" y="643"/>
      <point x="69" y="564"/>
      <point x="69" y="518" type="curve" smooth="yes"/>
      <point x="69" y="423"/>
      <point x="128" y="378"/>
      <point x="190" y="332" type="curve"/>
      <point x="212" y="321" type="line"/>
      <point x="285" y="283"/>
      <point x="352" y="218"/>
      <point x="352" y="149" type="curve" smooth="yes"/>
      <point x="352" y="89"/>
      <point x="299" y="30"/>
      <point x="244" y="30" type="curve" smooth="yes"/>
      <point x="188" y="30"/>
      <point x="135" y="73"/>
      <point x="135" y="156" type="curve" smooth="yes"/>
      <point x="135" y="222"/>
      <point x="158" y="251"/>
      <point x="241" y="328" type="curve"/>
      <point x="192" y="350" type="line"/>
      <point x="108" y="287"/>
      <point x="37" y="233"/>
      <point x="37" y="150" type="curve" smooth="yes"/>
      <point x="37" y="51"/>
      <point x="144" y="-8"/>
    </contour>
  </outline>
</glyph>
<glyph name="nine" format="1">
  <advance width="480"/>
  <unicode hex="0039"/>
  <outline>
    <contour>
      <point x="104" y="-10" type="curve"/>
      <point x="110" y="-9" type="line" smooth="yes"/>
      <point x="159" y="-1"/>
      <point x="241" y="33"/>
      <point x="295" y="74" type="curve" smooth="yes"/>
      <point x="364" y="126"/>
      <point x="455" y="201"/>
      <point x="455" y="380" type="curve" smooth="yes"/>
      <point x="455" y="553"/>
      <point x="371" y="641"/>
      <point x="228" y="641" type="curve" smooth="yes"/>
      <point x="121" y="641"/>
      <point x="27" y="559"/>
      <point x="27" y="445" type="curve" smooth="yes"/>
      <point x="27" y="299"/>
      <point x="133" y="246"/>
      <point x="197" y="246" type="curve" smooth="yes"/>
      <point x="265" y="246"/>
      <point x="301" y="281"/>
      <point x="327" y="319" type="curve" smooth="yes"/>
      <point x="331" y="325"/>
      <point x="334" y="334"/>
      <point x="334" y="339" type="curve" smooth="yes"/>
      <point x="334" y="346"/>
      <point x="327" y="351"/>
      <point x="321" y="351" type="curve" smooth="yes"/>
      <point x="316" y="351"/>
      <point x="311" y="348"/>
      <point x="307" y="344" type="curve"/>
      <point x="306" y="343" type="line" smooth="yes"/>
      <point x="297" y="334"/>
      <point x="257" y="301"/>
      <point x="211" y="301" type="curve" smooth="yes"/>
      <point x="163" y="301"/>
      <point x="122" y="374"/>
      <point x="122" y="457" type="curve" smooth="yes"/>
      <point x="122" y="546"/>
      <point x="165" y="602"/>
      <point x="227" y="602" type="curve" smooth="yes"/>
      <point x="315" y="602"/>
      <point x="360" y="520"/>
      <point x="360" y="387" type="curve" smooth="yes"/>
      <point x="360" y="257"/>
      <point x="334" y="169"/>
      <point x="240" y="104" type="curve" smooth="yes"/>
      <point x="188" y="68"/>
      <point x="144" y="44"/>
      <point x="113" y="34" type="curve" smooth="yes"/>
      <point x="104" y="31"/>
      <point x="99" y="19"/>
      <point x="99" y="12" type="curve" smooth="yes"/>
      <point x="99" y="5"/>
      <point x="102" y="-5"/>
    </contour>
  </outline>
</glyph>
<glyph name="colon" format="1">
  <advance width="228"/>
  <unicode hex="003A"/>
  <outline>
    <contour>
      <point x="112" y="340" type="curve" smooth="yes"/>
      <point x="146" y="340"/>
      <point x="174" y="368"/>
      <point x="174" y="402" type="curve" smooth="yes"/>
      <point x="174" y="436"/>
      <point x="146" y="464"/>
      <point x="112" y="464" type="curve" smooth="yes"/>
      <point x="78" y="464"/>
      <point x="50" y="436"/>
      <point x="50" y="402" type="curve" smooth="yes"/>
      <point x="50" y="368"/>
      <point x="78" y="340"/>
    </contour>
    <contour>
      <point x="112" y="-18" type="curve" smooth="yes"/>
      <point x="146" y="-18"/>
      <point x="174" y="10"/>
      <point x="174" y="44" type="curve" smooth="yes"/>
      <point x="174" y="78"/>
      <point x="146" y="106"/>
      <point x="112" y="106" type="curve" smooth="yes"/>
      <point x="78" y="106"/>
      <point x="50" y="78"/>
      <point x="50" y="44" type="curve" smooth="yes"/>
      <point x="50" y="10"/>
      <point x="78" y="-18"/>
    </contour>
  </outline>
</glyph>
<glyph name="semicolon" format="1">
  <advance width="238"/>
  <unicode hex="003B"/>
  <outline>
    <contour>
      <point x="86" y="-86" type="curve" smooth="yes"/>
      <point x="143" y="-86"/>
      <point x="185" y="-36"/>
      <point x="185" y="41" type="curve" smooth="yes"/>
      <point x="185" y="70"/>
      <point x="160" y="98"/>
      <point x="126" y="98" type="curve" smooth="yes"/>
      <point x="93" y="98"/>
      <point x="63" y="70"/>
      <point x="63" y="38" type="curve" smooth="yes"/>
      <point x="63" y="12"/>
      <point x="74" y="2"/>
      <point x="89" y="-8" type="curve" smooth="yes"/>
      <point x="94" y="-11"/>
      <point x="104" y="-21"/>
      <point x="104" y="-27" type="curve" smooth="yes"/>
      <point x="104" y="-53"/>
      <point x="67" y="-60"/>
      <point x="45" y="-60" type="curve"/>
      <point x="60" y="-81" type="line"/>
      <point x="64" y="-83"/>
      <point x="70" y="-86"/>
    </contour>
    <contour>
      <point x="119" y="340" type="curve" smooth="yes"/>
      <point x="153" y="340"/>
      <point x="181" y="368"/>
      <point x="181" y="402" type="curve" smooth="yes"/>
      <point x="181" y="436"/>
      <point x="153" y="464"/>
      <point x="119" y="464" type="curve" smooth="yes"/>
      <point x="85" y="464"/>
      <point x="57" y="436"/>
      <point x="57" y="402" type="curve" smooth="yes"/>
      <point x="57" y="368"/>
      <point x="85" y="340"/>
    </contour>
  </outline>
</glyph>
<glyph name="less" format="1">
  <advance width="502"/>
  <unicode hex="003C"/>
  <outline>
    <contour>
      <point x="452" y="82" type="line"/>
      <point x="452" y="166" type="line"/>
      <point x="139" y="346" type="line"/>
      <point x="139" y="302" type="line"/>
      <point x="452" y="482" type="line"/>
      <point x="452" y="562" type="line"/>
      <point x="50" y="334" type="line"/>
      <point x="50" y="310" type="line"/>
    </contour>
  </outline>
</glyph>
<glyph name="equal" format="1">
  <advance width="408"/>
  <unicode hex="003D"/>
  <outline>
    <contour>
      <point x="84" y="319" type="curve"/>
      <point x="323" y="319" type="line"/>
      <point x="337" y="319"/>
      <point x="338" y="339"/>
      <point x="338" y="350" type="curve" smooth="yes"/>
      <point x="338" y="361"/>
      <point x="338" y="383"/>
      <point x="323" y="383" type="curve"/>
      <point x="86" y="383" type="line"/>
      <point x="72" y="383"/>
      <point x="70" y="366"/>
      <point x="70" y="353" type="curve" smooth="yes"/>
      <point x="70" y="338"/>
      <point x="72" y="319"/>
    </contour>
    <contour>
      <point x="84" y="213" type="curve"/>
      <point x="323" y="213" type="line"/>
      <point x="337" y="213"/>
      <point x="338" y="231"/>
      <point x="338" y="245" type="curve" smooth="yes"/>
      <point x="338" y="258"/>
      <point x="338" y="277"/>
      <point x="323" y="277" type="curve"/>
      <point x="86" y="277" type="line"/>
      <point x="72" y="277"/>
      <point x="70" y="258"/>
      <point x="70" y="245" type="curve" smooth="yes"/>
      <point x="70" y="231"/>
      <point x="72" y="213"/>
    </contour>
  </outline>
</glyph>
<glyph name="greater" format="1">
  <advance width="502"/>
  <unicode hex="003E"/>
  <outline>
    <contour>
      <point x="50" y="82" type="line"/>
      <point x="452" y="310" type="line"/>
      <point x="452" y="334" type="line"/>
      <point x="50" y="562" type="line"/>
      <point x="50" y="482" type="line"/>
      <point x="363" y="302" type="line"/>
      <point x="363" y="346" type="line"/>
      <point x="50" y="166" type="line"/>
    </contour>
  </outline>
</glyph>
<glyph name="question" format="1">
  <advance width="467"/>
  <unicode hex="003F"/>
  <outline>
    <contour>
      <point x="187" y="193" type="line"/>
      <point x="267" y="193" type="line"/>
      <point x="272" y="349" type="line"/>
      <point x="272" y="360"/>
      <point x="307" y="398"/>
      <point x="342" y="426" type="curve" smooth="yes"/>
      <point x="397" y="470"/>
      <point x="430" y="510"/>
      <point x="430" y="569" type="curve" smooth="yes"/>
      <point x="430" y="683"/>
      <point x="325" y="742"/>
      <point x="237" y="742" type="curve" smooth="yes"/>
      <point x="160" y="742"/>
      <point x="56" y="694"/>
      <point x="56" y="625" type="curve" smooth="yes"/>
      <point x="56" y="602"/>
      <point x="77" y="581"/>
      <point x="99" y="581" type="curve" smooth="yes"/>
      <point x="119" y="581"/>
      <point x="140" y="600"/>
      <point x="145" y="626" type="curve" smooth="yes"/>
      <point x="149" y="645"/>
      <point x="173" y="685"/>
      <point x="233" y="685" type="curve" smooth="yes"/>
      <point x="304" y="685"/>
      <point x="344" y="655"/>
      <point x="344" y="593" type="curve" smooth="yes"/>
      <point x="344" y="536"/>
      <point x="315" y="512"/>
      <point x="258" y="465" type="curve" smooth="yes"/>
      <point x="222" y="435"/>
      <point x="171" y="385"/>
      <point x="171" y="341" type="curve" smooth="yes"/>
      <point x="171" y="340" type="line" smooth="yes"/>
      <point x="171" y="300"/>
      <point x="180" y="233"/>
      <point x="186" y="199" type="curve" smooth="yes"/>
    </contour>
    <component base="period" xOffset="123" yOffset="5"/>
  </outline>
</glyph>
<glyph name="at" format="1">
  <advance width="815"/>
  <unicode hex="0040"/>
  <outline>
    <contour>
      <point x="407" y="-67" type="curve" smooth="yes"/>
      <point x="549" y="-67"/>
      <point x="620" y="-5"/>
      <point x="654" y="29" type="curve" smooth="yes"/>
      <point x="657" y="32"/>
      <point x="659" y="34"/>
      <point x="659" y="38" type="curve" smooth="yes"/>
      <point x="659" y="45"/>
      <point x="648" y="55"/>
      <point x="643" y="55" type="curve" smooth="yes"/>
      <point x="640" y="55" type="line"/>
      <point x="638" y="53" type="line" smooth="yes"/>
      <point x="607" y="22"/>
      <point x="520" y="-17"/>
      <point x="407" y="-17" type="curve" smooth="yes"/>
      <point x="297" y="-17"/>
      <point x="163" y="43"/>
      <point x="163" y="216" type="curve" smooth="yes"/>
      <point x="163" y="379"/>
      <point x="278" y="467"/>
      <point x="421" y="467" type="curve" smooth="yes"/>
      <point x="567" y="467"/>
      <point x="664" y="401"/>
      <point x="664" y="258" type="curve" smooth="yes"/>
      <point x="664" y="186"/>
      <point x="631" y="110"/>
      <point x="585" y="110" type="curve" smooth="yes"/>
      <point x="558" y="110"/>
      <point x="542" y="123"/>
      <point x="540" y="136" type="curve"/>
      <point x="571" y="299" type="line"/>
      <point x="577" y="333"/>
      <point x="582" y="358"/>
      <point x="589" y="375" type="curve" smooth="yes"/>
      <point x="591" y="380" type="line"/>
      <point x="588" y="383" type="line" smooth="yes"/>
      <point x="581" y="390"/>
      <point x="562" y="396"/>
      <point x="548" y="396" type="curve" smooth="yes"/>
      <point x="545" y="396" type="line"/>
      <point x="543" y="394" type="line" smooth="yes"/>
      <point x="539" y="390"/>
      <point x="532" y="384"/>
      <point x="525" y="384" type="curve" smooth="yes"/>
      <point x="524" y="384"/>
      <point x="518" y="385"/>
      <point x="514" y="386" type="curve" smooth="yes"/>
      <point x="500" y="389"/>
      <point x="470" y="395"/>
      <point x="448" y="395" type="curve" smooth="yes"/>
      <point x="358" y="395"/>
      <point x="223" y="340"/>
      <point x="223" y="185" type="curve" smooth="yes"/>
      <point x="223" y="102"/>
      <point x="291" y="61"/>
      <point x="370" y="61" type="curve" smooth="yes"/>
      <point x="410" y="61"/>
      <point x="439" y="78"/>
      <point x="456" y="89" type="curve" smooth="yes"/>
      <point x="462" y="93"/>
      <point x="466" y="95"/>
      <point x="469" y="96" type="curve"/>
      <point x="472" y="91"/>
      <point x="504" y="65"/>
      <point x="535" y="65" type="curve" smooth="yes"/>
      <point x="663" y="65"/>
      <point x="745" y="149"/>
      <point x="745" y="261" type="curve" smooth="yes"/>
      <point x="745" y="424"/>
      <point x="583" y="511"/>
      <point x="438" y="511" type="curve" smooth="yes"/>
      <point x="222" y="511"/>
      <point x="70" y="387"/>
      <point x="70" y="216" type="curve" smooth="yes"/>
      <point x="70" y="6"/>
      <point x="281" y="-67"/>
    </contour>
    <contour>
      <point x="397" y="115" type="curve" smooth="yes"/>
      <point x="337" y="115"/>
      <point x="318" y="168"/>
      <point x="318" y="204" type="curve" smooth="yes"/>
      <point x="318" y="282"/>
      <point x="381" y="349"/>
      <point x="439" y="349" type="curve" smooth="yes"/>
      <point x="472" y="349"/>
      <point x="505" y="338"/>
      <point x="505" y="304" type="curve"/>
      <point x="473" y="164" type="line"/>
      <point x="468" y="140"/>
      <point x="453" y="115"/>
    </contour>
  </outline>
</glyph>
<glyph name="A" format="1">
  <advance width="808"/>
  <unicode hex="0041"/>
  <outline>
    <contour>
      <point x="52" y="0" type="curve"/>
      <point x="215" y="0" type="line"/>
      <point x="217" y="3"/>
      <point x="219" y="8"/>
      <point x="219" y="14" type="curve" smooth="yes"/>
      <point x="219" y="21"/>
      <point x="217" y="25"/>
      <point x="215" y="28" type="curve"/>
      <point x="208" y="28" type="line"/>
      <point x="188" y="28"/>
      <point x="173" y="43"/>
      <point x="173" y="62" type="curve" smooth="yes"/>
      <point x="173" y="68"/>
      <point x="175" y="77"/>
      <point x="181" y="90" type="curve"/>
      <point x="266" y="287" type="line"/>
      <point x="269" y="293"/>
      <point x="271" y="295"/>
      <point x="276" y="295" type="curve"/>
      <point x="492" y="295" type="line"/>
      <point x="587" y="85" type="line" smooth="yes"/>
      <point x="590" y="79"/>
      <point x="591" y="73"/>
      <point x="591" y="68" type="curve" smooth="yes"/>
      <point x="591" y="47"/>
      <point x="568" y="28"/>
      <point x="546" y="28" type="curve"/>
      <point x="539" y="28" type="line"/>
      <point x="537" y="25"/>
      <point x="535" y="20"/>
      <point x="535" y="14" type="curve" smooth="yes"/>
      <point x="535" y="7"/>
      <point x="537" y="3"/>
      <point x="539" y="0" type="curve"/>
      <point x="750" y="0" type="line"/>
      <point x="752" y="3"/>
      <point x="753" y="8"/>
      <point x="753" y="14" type="curve" smooth="yes"/>
      <point x="753" y="21"/>
      <point x="751" y="26"/>
      <point x="750" y="28" type="curve"/>
      <point x="743" y="28" type="line"/>
      <point x="724" y="28"/>
      <point x="712" y="41"/>
      <point x="704" y="60" type="curve"/>
      <point x="424" y="735" type="line"/>
      <point x="415" y="727"/>
      <point x="408" y="723"/>
      <point x="402" y="720" type="curve" smooth="yes"/>
      <point x="394" y="716"/>
      <point x="386" y="712"/>
      <point x="382" y="709" type="curve"/>
      <point x="109" y="79" type="line"/>
      <point x="98" y="54"/>
      <point x="87" y="28"/>
      <point x="59" y="28" type="curve"/>
      <point x="52" y="28" type="line"/>
      <point x="50" y="25"/>
      <point x="48" y="20"/>
      <point x="48" y="14" type="curve" smooth="yes"/>
      <point x="48" y="7"/>
      <point x="50" y="3"/>
    </contour>
    <contour>
      <point x="753" y="14" type="move" smooth="yes"/>
    </contour>
    <contour>
      <point x="291" y="348" type="line"/>
      <point x="401" y="603" type="line"/>
      <point x="366" y="603" type="line"/>
      <point x="469" y="348" type="line"/>
    </contour>
  </outline>
</glyph>
<glyph name="B" format="1">
  <advance width="629"/>
  <unicode hex="0042"/>
  <outline>
    <contour>
      <point x="54" y="0" type="line"/>
      <point x="52" y="3"/>
      <point x="50" y="8"/>
      <point x="50" y="15" type="curve" smooth="yes"/>
      <point x="50" y="21"/>
      <point x="52" y="27"/>
      <point x="54" y="30" type="curve"/>
      <point x="77" y="31"/>
      <point x="105" y="43"/>
      <point x="106" y="65" type="curve" smooth="yes"/>
      <point x="110" y="181"/>
      <point x="110" y="287"/>
      <point x="110" y="402" type="curve" smooth="yes"/>
      <point x="110" y="489"/>
      <point x="109" y="575"/>
      <point x="106" y="661" type="curve" smooth="yes"/>
      <point x="105" y="685"/>
      <point x="87" y="701"/>
      <point x="54" y="701" type="curve"/>
      <point x="52" y="703"/>
      <point x="50" y="708"/>
      <point x="50" y="715" type="curve" smooth="yes"/>
      <point x="50" y="721"/>
      <point x="52" y="727"/>
      <point x="54" y="730" type="curve"/>
      <point x="58" y="730"/>
      <point x="63" y="730"/>
      <point x="69" y="730" type="curve" smooth="yes"/>
      <point x="76" y="730"/>
      <point x="83" y="730"/>
      <point x="87" y="730" type="curve" smooth="yes"/>
      <point x="118" y="730"/>
      <point x="148" y="730"/>
      <point x="187" y="732" type="curve" smooth="yes"/>
      <point x="225" y="734"/>
      <point x="260" y="735"/>
      <point x="294" y="735" type="curve" smooth="yes"/>
      <point x="446" y="735"/>
      <point x="539" y="658"/>
      <point x="539" y="550" type="curve" smooth="yes"/>
      <point x="539" y="472"/>
      <point x="467" y="416"/>
      <point x="386" y="391" type="curve"/>
      <point x="474" y="374"/>
      <point x="580" y="308"/>
      <point x="580" y="189" type="curve" smooth="yes"/>
      <point x="580" y="49"/>
      <point x="482" y="-2"/>
      <point x="360" y="-2" type="curve" smooth="yes"/>
      <point x="286" y="-2"/>
      <point x="213" y="0"/>
      <point x="141" y="0" type="curve" smooth="yes"/>
    </contour>
    <contour>
      <point x="219" y="391" type="line"/>
      <point x="222" y="369" type="line"/>
      <point x="222" y="67" type="line" smooth="yes"/>
      <point x="222" y="49"/>
      <point x="230" y="39"/>
      <point x="238" y="39" type="curve" smooth="yes"/>
      <point x="255" y="38"/>
      <point x="262" y="38"/>
      <point x="279" y="38" type="curve" smooth="yes"/>
      <point x="441" y="38"/>
      <point x="472" y="116"/>
      <point x="472" y="198" type="curve" smooth="yes"/>
      <point x="472" y="308"/>
      <point x="399" y="360"/>
      <point x="266" y="360" type="curve" smooth="yes"/>
      <point x="247" y="360"/>
      <point x="226" y="359"/>
      <point x="208" y="357" type="curve"/>
      <point x="208" y="402" type="line"/>
      <point x="225" y="402"/>
      <point x="244" y="402"/>
      <point x="260" y="402" type="curve" smooth="yes"/>
      <point x="381" y="402"/>
      <point x="439" y="462"/>
      <point x="439" y="549" type="curve" smooth="yes"/>
      <point x="439" y="628"/>
      <point x="392" y="690"/>
      <point x="282" y="690" type="curve" smooth="yes"/>
      <point x="266" y="690"/>
      <point x="234" y="689"/>
      <point x="230" y="688" type="curve" smooth="yes"/>
      <point x="221" y="686"/>
      <point x="219" y="676"/>
      <point x="219" y="668" type="curve"/>
    </contour>
  </outline>
</glyph>
<glyph name="C" format="1">
  <advance width="792"/>
  <unicode hex="0043"/>
  <outline>
    <contour>
      <point x="414" y="-10" type="curve" smooth="yes"/>
      <point x="654" y="-10"/>
      <point x="723" y="169"/>
      <point x="726" y="185" type="curve"/>
      <point x="689" y="196" type="line"/>
      <point x="683" y="181"/>
      <point x="597" y="46"/>
      <point x="422" y="46" type="curve" smooth="yes"/>
      <point x="349" y="46"/>
      <point x="178" y="73"/>
      <point x="178" y="385" type="curve" smooth="yes"/>
      <point x="178" y="510"/>
      <point x="230" y="691"/>
      <point x="419" y="691" type="curve" smooth="yes"/>
      <point x="592" y="691"/>
      <point x="669" y="561"/>
      <point x="694" y="462" type="curve" smooth="yes"/>
      <point x="696" y="454"/>
      <point x="703" y="452"/>
      <point x="708" y="452" type="curve" smooth="yes"/>
      <point x="714" y="452"/>
      <point x="720" y="459"/>
      <point x="721" y="464" type="curve"/>
      <point x="714" y="665" type="line" smooth="yes"/>
      <point x="714" y="677"/>
      <point x="706" y="683"/>
      <point x="700" y="683" type="curve" smooth="yes"/>
      <point x="692" y="683"/>
      <point x="688" y="677"/>
      <point x="684" y="671" type="curve" smooth="yes"/>
      <point x="680" y="664"/>
      <point x="675" y="657"/>
      <point x="665" y="657" type="curve" smooth="yes"/>
      <point x="658" y="657"/>
      <point x="647" y="664"/>
      <point x="631" y="675" type="curve" smooth="yes"/>
      <point x="595" y="700"/>
      <point x="533" y="742"/>
      <point x="433" y="742" type="curve" smooth="yes"/>
      <point x="163" y="742"/>
      <point x="55" y="552"/>
      <point x="55" y="352" type="curve" smooth="yes"/>
      <point x="55" y="54"/>
      <point x="295" y="-10"/>
    </contour>
    <contour>
      <point x="390" y="1" type="move" name="bottom"/>
    </contour>
    <contour>
      <point x="410" y="740" type="move" name="top"/>
    </contour>
  </outline>
</glyph>
<glyph name="D" format="1">
  <advance width="808"/>
  <unicode hex="0044"/>
  <outline>
    <contour>
      <point x="349" y="-3" type="curve" smooth="yes"/>
      <point x="583" y="-3"/>
      <point x="741" y="124"/>
      <point x="741" y="363" type="curve" smooth="yes"/>
      <point x="741" y="606"/>
      <point x="563" y="731"/>
      <point x="362" y="731" type="curve" smooth="yes"/>
      <point x="314" y="731"/>
      <point x="263" y="731"/>
      <point x="211" y="731" type="curve" smooth="yes"/>
      <point x="159" y="731"/>
      <point x="107" y="730"/>
      <point x="58" y="730" type="curve"/>
      <point x="56" y="727"/>
      <point x="54" y="721"/>
      <point x="54" y="715" type="curve" smooth="yes"/>
      <point x="54" y="708"/>
      <point x="56" y="703"/>
      <point x="58" y="701" type="curve"/>
      <point x="69" y="701"/>
      <point x="78" y="701"/>
      <point x="88" y="699" type="curve" smooth="yes"/>
      <point x="104" y="696"/>
      <point x="110" y="675"/>
      <point x="110" y="667" type="curve" smooth="yes"/>
      <point x="113" y="598"/>
      <point x="115" y="493"/>
      <point x="115" y="401" type="curve" smooth="yes"/>
      <point x="115" y="285"/>
      <point x="114" y="181"/>
      <point x="110" y="64" type="curve" smooth="yes"/>
      <point x="110" y="55"/>
      <point x="104" y="36"/>
      <point x="88" y="32" type="curve" smooth="yes"/>
      <point x="80" y="30"/>
      <point x="73" y="29"/>
      <point x="65" y="29" type="curve" smooth="yes"/>
      <point x="58" y="29" type="line"/>
      <point x="56" y="26"/>
      <point x="54" y="21"/>
      <point x="54" y="15" type="curve" smooth="yes"/>
      <point x="54" y="8"/>
      <point x="56" y="3"/>
      <point x="58" y="0" type="curve"/>
      <point x="207" y="0" type="line" smooth="yes"/>
      <point x="237" y="0"/>
      <point x="263" y="-1"/>
      <point x="287" y="-2" type="curve" smooth="yes"/>
      <point x="308" y="-3"/>
      <point x="328" y="-3"/>
    </contour>
    <contour>
      <point x="250" y="38" type="curve" smooth="yes"/>
      <point x="231" y="38"/>
      <point x="227" y="57"/>
      <point x="227" y="67" type="curve"/>
      <point x="227" y="153"/>
      <point x="227" y="268"/>
      <point x="227" y="380" type="curve" smooth="yes"/>
      <point x="227" y="482"/>
      <point x="228" y="644"/>
      <point x="229" y="672" type="curve" smooth="yes"/>
      <point x="229" y="678"/>
      <point x="231" y="682"/>
      <point x="238" y="682" type="curve" smooth="yes"/>
      <point x="247" y="682"/>
      <point x="263" y="682"/>
      <point x="270" y="682" type="curve" smooth="yes"/>
      <point x="290" y="682"/>
      <point x="312" y="682"/>
      <point x="322" y="682" type="curve" smooth="yes"/>
      <point x="472" y="682"/>
      <point x="619" y="613"/>
      <point x="619" y="353" type="curve" smooth="yes"/>
      <point x="619" y="192"/>
      <point x="541" y="38"/>
      <point x="325" y="38" type="curve" smooth="yes"/>
      <point x="288" y="38"/>
      <point x="273" y="38"/>
    </contour>
  </outline>
</glyph>
<glyph name="E" format="1">
  <advance width="595"/>
  <unicode hex="0045"/>
  <outline>
    <contour>
      <point x="57" y="0" type="curve"/>
      <point x="539" y="0" type="line"/>
      <point x="558" y="165" type="line"/>
      <point x="528" y="163" type="line"/>
      <point x="515" y="101"/>
      <point x="493" y="60"/>
      <point x="431" y="46" type="curve" smooth="yes"/>
      <point x="387" y="36"/>
      <point x="345" y="35"/>
      <point x="279" y="35" type="curve" smooth="yes"/>
      <point x="261" y="35"/>
      <point x="250" y="36"/>
      <point x="231" y="38" type="curve" smooth="yes"/>
      <point x="214" y="40"/>
      <point x="208" y="61"/>
      <point x="208" y="71" type="curve" smooth="yes"/>
      <point x="205" y="156"/>
      <point x="204" y="288"/>
      <point x="204" y="397" type="curve" smooth="yes"/>
      <point x="204" y="486"/>
      <point x="206" y="618"/>
      <point x="208" y="664" type="curve" smooth="yes"/>
      <point x="208" y="672"/>
      <point x="215" y="690"/>
      <point x="230" y="692" type="curve" smooth="yes"/>
      <point x="251" y="695"/>
      <point x="261" y="695"/>
      <point x="282" y="695" type="curve" smooth="yes"/>
      <point x="332" y="695"/>
      <point x="361" y="694"/>
      <point x="394" y="684" type="curve" smooth="yes"/>
      <point x="458" y="665"/>
      <point x="481" y="629"/>
      <point x="494" y="567" type="curve"/>
      <point x="523" y="565" type="line"/>
      <point x="505" y="730" type="line"/>
      <point x="267" y="730" type="line" smooth="yes"/>
      <point x="189" y="730"/>
      <point x="127" y="730"/>
      <point x="57" y="730" type="curve"/>
      <point x="55" y="727"/>
      <point x="53" y="721"/>
      <point x="53" y="715" type="curve" smooth="yes"/>
      <point x="53" y="708"/>
      <point x="55" y="703"/>
      <point x="57" y="701" type="curve"/>
      <point x="68" y="701"/>
      <point x="76" y="701"/>
      <point x="86" y="699" type="curve" smooth="yes"/>
      <point x="102" y="696"/>
      <point x="109" y="675"/>
      <point x="109" y="665" type="curve" smooth="yes"/>
      <point x="110" y="641"/>
      <point x="111" y="535"/>
      <point x="111" y="410" type="curve" smooth="yes"/>
      <point x="111" y="249"/>
      <point x="110" y="82"/>
      <point x="109" y="65" type="curve" smooth="yes"/>
      <point x="108" y="53"/>
      <point x="101" y="35"/>
      <point x="85" y="32" type="curve" smooth="yes"/>
      <point x="75" y="30"/>
      <point x="69" y="30"/>
      <point x="57" y="30" type="curve"/>
      <point x="55" y="27"/>
      <point x="53" y="21"/>
      <point x="53" y="15" type="curve" smooth="yes"/>
      <point x="53" y="8"/>
      <point x="55" y="3"/>
    </contour>
    <contour>
      <point x="434" y="315" type="curve"/>
      <point x="461" y="315" type="line"/>
      <point x="461" y="474" type="line"/>
      <point x="434" y="474" type="line"/>
      <point x="432" y="450"/>
      <point x="426" y="424"/>
      <point x="406" y="421" type="curve" smooth="yes"/>
      <point x="375" y="416"/>
      <point x="344" y="415"/>
      <point x="306" y="415" type="curve" smooth="yes"/>
      <point x="271" y="415"/>
      <point x="228" y="417"/>
      <point x="194" y="420" type="curve"/>
      <point x="194" y="369" type="line"/>
      <point x="223" y="372"/>
      <point x="270" y="375"/>
      <point x="306" y="375" type="curve" smooth="yes"/>
      <point x="341" y="375"/>
      <point x="377" y="375"/>
      <point x="402" y="369" type="curve" smooth="yes"/>
      <point x="426" y="363"/>
      <point x="430" y="339"/>
    </contour>
  </outline>
</glyph>
<glyph name="F" format="1">
  <advance width="595"/>
  <unicode hex="0046"/>
  <outline>
    <contour>
      <point x="58" y="0" type="curve"/>
      <point x="257" y="0" type="line"/>
      <point x="258" y="3"/>
      <point x="260" y="9"/>
      <point x="260" y="15" type="curve" smooth="yes"/>
      <point x="260" y="22"/>
      <point x="259" y="27"/>
      <point x="257" y="30" type="curve"/>
      <point x="250" y="30" type="line" smooth="yes"/>
      <point x="239" y="30"/>
      <point x="234" y="30"/>
      <point x="224" y="34" type="curve" smooth="yes"/>
      <point x="210" y="40"/>
      <point x="207" y="58"/>
      <point x="207" y="67" type="curve" smooth="yes"/>
      <point x="203" y="165"/>
      <point x="202" y="264"/>
      <point x="202" y="362" type="curve" smooth="yes"/>
      <point x="202" y="387" type="line" smooth="yes"/>
      <point x="202" y="482"/>
      <point x="204" y="577"/>
      <point x="207" y="668" type="curve" smooth="yes"/>
      <point x="207" y="679"/>
      <point x="213" y="688"/>
      <point x="230" y="691" type="curve" smooth="yes"/>
      <point x="251" y="695"/>
      <point x="261" y="695"/>
      <point x="282" y="695" type="curve"/>
      <point x="344" y="695"/>
      <point x="383" y="694"/>
      <point x="425" y="684" type="curve" smooth="yes"/>
      <point x="487" y="669"/>
      <point x="509" y="629"/>
      <point x="522" y="568" type="curve"/>
      <point x="552" y="566" type="line"/>
      <point x="533" y="730" type="line"/>
      <point x="58" y="730" type="line"/>
      <point x="56" y="727"/>
      <point x="54" y="721"/>
      <point x="54" y="715" type="curve" smooth="yes"/>
      <point x="54" y="708"/>
      <point x="56" y="703"/>
      <point x="58" y="701" type="curve"/>
      <point x="71" y="701"/>
      <point x="75" y="701"/>
      <point x="86" y="698" type="curve" smooth="yes"/>
      <point x="102" y="694"/>
      <point x="110" y="676"/>
      <point x="110" y="666" type="curve" smooth="yes"/>
      <point x="111" y="635"/>
      <point x="111" y="491"/>
      <point x="111" y="395" type="curve" smooth="yes"/>
      <point x="111" y="239"/>
      <point x="111" y="81"/>
      <point x="109" y="63" type="curve" smooth="yes"/>
      <point x="108" y="54"/>
      <point x="102" y="38"/>
      <point x="86" y="33" type="curve" smooth="yes"/>
      <point x="79" y="31"/>
      <point x="74" y="30"/>
      <point x="66" y="30" type="curve" smooth="yes"/>
      <point x="58" y="30" type="line"/>
      <point x="56" y="27"/>
      <point x="54" y="21"/>
      <point x="54" y="15" type="curve" smooth="yes"/>
      <point x="54" y="8"/>
      <point x="56" y="3"/>
    </contour>
    <contour>
      <point x="260" y="15" type="move" smooth="yes"/>
    </contour>
    <contour>
      <point x="433" y="295" type="curve"/>
      <point x="450" y="295" type="line"/>
      <point x="450" y="455" type="line"/>
      <point x="433" y="455" type="line"/>
      <point x="432" y="431"/>
      <point x="424" y="406"/>
      <point x="405" y="402" type="curve" smooth="yes"/>
      <point x="374" y="396"/>
      <point x="339" y="392"/>
      <point x="301" y="392" type="curve" smooth="yes"/>
      <point x="266" y="392"/>
      <point x="225" y="397"/>
      <point x="192" y="402" type="curve"/>
      <point x="192" y="349" type="line"/>
      <point x="219" y="352"/>
      <point x="264" y="355"/>
      <point x="301" y="355" type="curve" smooth="yes"/>
      <point x="337" y="355"/>
      <point x="367" y="355"/>
      <point x="401" y="349" type="curve" smooth="yes"/>
      <point x="424" y="345"/>
      <point x="429" y="318"/>
    </contour>
  </outline>
</glyph>
<glyph name="G" format="1">
  <advance width="795"/>
  <unicode hex="0047"/>
  <outline>
    <contour>
      <point x="412" y="-10" type="curve" smooth="yes"/>
      <point x="554" y="-10"/>
      <point x="641" y="59"/>
      <point x="685" y="113" type="curve" smooth="yes"/>
      <point x="702" y="134"/>
      <point x="708" y="142"/>
      <point x="709" y="169" type="curve"/>
      <point x="713" y="245" type="line" smooth="yes"/>
      <point x="714" y="255"/>
      <point x="719" y="275"/>
      <point x="735" y="278" type="curve" smooth="yes"/>
      <point x="745" y="280"/>
      <point x="754" y="281"/>
      <point x="765" y="281" type="curve"/>
      <point x="767" y="284"/>
      <point x="768" y="288"/>
      <point x="768" y="295" type="curve" smooth="yes"/>
      <point x="768" y="302"/>
      <point x="767" y="306"/>
      <point x="765" y="309" type="curve"/>
      <point x="562" y="309" type="line"/>
      <point x="560" y="306"/>
      <point x="558" y="302"/>
      <point x="558" y="295" type="curve" smooth="yes"/>
      <point x="558" y="288"/>
      <point x="560" y="284"/>
      <point x="562" y="281" type="curve"/>
      <point x="573" y="281"/>
      <point x="583" y="280"/>
      <point x="593" y="278" type="curve" smooth="yes"/>
      <point x="609" y="275"/>
      <point x="615" y="255"/>
      <point x="615" y="246" type="curve" smooth="yes"/>
      <point x="615" y="172" type="line"/>
      <point x="615" y="117"/>
      <point x="507" y="46"/>
      <point x="415" y="46" type="curve" smooth="yes"/>
      <point x="352" y="46"/>
      <point x="165" y="73"/>
      <point x="165" y="385" type="curve" smooth="yes"/>
      <point x="165" y="510"/>
      <point x="236" y="691"/>
      <point x="405" y="691" type="curve" smooth="yes"/>
      <point x="577" y="691"/>
      <point x="650" y="562"/>
      <point x="675" y="463" type="curve" smooth="yes"/>
      <point x="677" y="455"/>
      <point x="686" y="452"/>
      <point x="691" y="452" type="curve" smooth="yes"/>
      <point x="698" y="452"/>
      <point x="707" y="460"/>
      <point x="707" y="466" type="curve"/>
      <point x="700" y="666" type="line"/>
      <point x="700" y="675"/>
      <point x="692" y="685"/>
      <point x="685" y="685" type="curve" smooth="yes"/>
      <point x="677" y="685"/>
      <point x="671" y="680"/>
      <point x="667" y="673" type="curve" smooth="yes"/>
      <point x="662" y="665"/>
      <point x="656" y="658"/>
      <point x="646" y="658" type="curve" smooth="yes"/>
      <point x="639" y="658"/>
      <point x="628" y="665"/>
      <point x="613" y="676" type="curve" smooth="yes"/>
      <point x="580" y="700"/>
      <point x="518" y="742"/>
      <point x="419" y="742" type="curve" smooth="yes"/>
      <point x="150" y="742"/>
      <point x="42" y="552"/>
      <point x="42" y="352" type="curve" smooth="yes"/>
      <point x="42" y="53"/>
      <point x="286" y="-10"/>
    </contour>
  </outline>
</glyph>
<glyph name="H" format="1">
  <advance width="817"/>
  <unicode hex="0048"/>
  <outline>
    <contour>
      <point x="54" y="0" type="curve"/>
      <point x="275" y="0" type="line"/>
      <point x="277" y="3"/>
      <point x="279" y="8"/>
      <point x="279" y="14" type="curve" smooth="yes"/>
      <point x="279" y="21"/>
      <point x="277" y="26"/>
      <point x="275" y="28" type="curve"/>
      <point x="264" y="28"/>
      <point x="258" y="29"/>
      <point x="248" y="31" type="curve" smooth="yes"/>
      <point x="233" y="34"/>
      <point x="223" y="52"/>
      <point x="223" y="62" type="curve" smooth="yes"/>
      <point x="221" y="122"/>
      <point x="221" y="190"/>
      <point x="221" y="260" type="curve" smooth="yes"/>
      <point x="221" y="296"/>
      <point x="222" y="339"/>
      <point x="223" y="370" type="curve" smooth="yes"/>
      <point x="223" y="372"/>
      <point x="224" y="374"/>
      <point x="226" y="374" type="curve" smooth="yes"/>
      <point x="276" y="374"/>
      <point x="335" y="374"/>
      <point x="399" y="374" type="curve" smooth="yes"/>
      <point x="466" y="374"/>
      <point x="535" y="374"/>
      <point x="589" y="374" type="curve" smooth="yes"/>
      <point x="591" y="374"/>
      <point x="592" y="372"/>
      <point x="592" y="370" type="curve" smooth="yes"/>
      <point x="592" y="62" type="line"/>
      <point x="592" y="53"/>
      <point x="583" y="35"/>
      <point x="567" y="31" type="curve" smooth="yes"/>
      <point x="558" y="29"/>
      <point x="550" y="28"/>
      <point x="539" y="28" type="curve"/>
      <point x="537" y="25"/>
      <point x="535" y="20"/>
      <point x="535" y="14" type="curve" smooth="yes"/>
      <point x="535" y="8"/>
      <point x="537" y="3"/>
      <point x="539" y="0" type="curve"/>
      <point x="761" y="0" type="line"/>
      <point x="763" y="3"/>
      <point x="765" y="8"/>
      <point x="765" y="15" type="curve" smooth="yes"/>
      <point x="765" y="22"/>
      <point x="763" y="26"/>
      <point x="761" y="29" type="curve"/>
      <point x="751" y="29"/>
      <point x="743" y="29"/>
      <point x="734" y="31" type="curve" smooth="yes"/>
      <point x="718" y="35"/>
      <point x="708" y="54"/>
      <point x="708" y="63" type="curve" smooth="yes"/>
      <point x="706" y="122"/>
      <point x="705" y="285"/>
      <point x="705" y="400" type="curve" smooth="yes"/>
      <point x="705" y="493"/>
      <point x="705" y="575"/>
      <point x="708" y="667" type="curve" smooth="yes"/>
      <point x="708" y="678"/>
      <point x="718" y="696"/>
      <point x="734" y="699" type="curve" smooth="yes"/>
      <point x="744" y="701"/>
      <point x="751" y="701"/>
      <point x="761" y="701" type="curve"/>
      <point x="763" y="704"/>
      <point x="765" y="710"/>
      <point x="765" y="716" type="curve" smooth="yes"/>
      <point x="765" y="723"/>
      <point x="763" y="727"/>
      <point x="761" y="730" type="curve"/>
      <point x="539" y="730" type="line"/>
      <point x="537" y="727"/>
      <point x="535" y="722"/>
      <point x="535" y="716" type="curve" smooth="yes"/>
      <point x="535" y="710"/>
      <point x="537" y="704"/>
      <point x="539" y="701" type="curve"/>
      <point x="551" y="701"/>
      <point x="558" y="701"/>
      <point x="567" y="699" type="curve" smooth="yes"/>
      <point x="584" y="695"/>
      <point x="592" y="677"/>
      <point x="592" y="667" type="curve"/>
      <point x="592" y="429" type="line" smooth="yes"/>
      <point x="592" y="427"/>
      <point x="591" y="426"/>
      <point x="589" y="426" type="curve" smooth="yes"/>
      <point x="559" y="425"/>
      <point x="467" y="424"/>
      <point x="399" y="424" type="curve" smooth="yes"/>
      <point x="334" y="424"/>
      <point x="258" y="425"/>
      <point x="227" y="426" type="curve" smooth="yes"/>
      <point x="224" y="426"/>
      <point x="223" y="427"/>
      <point x="223" y="429" type="curve" smooth="yes"/>
      <point x="223" y="455"/>
      <point x="223" y="485"/>
      <point x="223" y="512" type="curve" smooth="yes"/>
      <point x="223" y="567"/>
      <point x="223" y="612"/>
      <point x="223" y="667" type="curve" smooth="yes"/>
      <point x="223" y="677"/>
      <point x="231" y="696"/>
      <point x="247" y="699" type="curve" smooth="yes"/>
      <point x="257" y="701"/>
      <point x="264" y="702"/>
      <point x="275" y="702" type="curve"/>
      <point x="277" y="705"/>
      <point x="279" y="710"/>
      <point x="279" y="716" type="curve" smooth="yes"/>
      <point x="279" y="723"/>
      <point x="277" y="728"/>
      <point x="275" y="730" type="curve"/>
      <point x="54" y="730" type="line"/>
      <point x="52" y="727"/>
      <point x="50" y="722"/>
      <point x="50" y="716" type="curve" smooth="yes"/>
      <point x="50" y="709"/>
      <point x="52" y="705"/>
      <point x="54" y="702" type="curve"/>
      <point x="65" y="702"/>
      <point x="72" y="702"/>
      <point x="82" y="700" type="curve" smooth="yes"/>
      <point x="98" y="697"/>
      <point x="106" y="676"/>
      <point x="106" y="667" type="curve" smooth="yes"/>
      <point x="108" y="606"/>
      <point x="109" y="495"/>
      <point x="109" y="404" type="curve" smooth="yes"/>
      <point x="109" y="288"/>
      <point x="109" y="143"/>
      <point x="106" y="64" type="curve" smooth="yes"/>
      <point x="106" y="54"/>
      <point x="98" y="34"/>
      <point x="82" y="31" type="curve" smooth="yes"/>
      <point x="72" y="29"/>
      <point x="65" y="28"/>
      <point x="54" y="28" type="curve"/>
      <point x="52" y="25"/>
      <point x="50" y="21"/>
      <point x="50" y="14" type="curve" smooth="yes"/>
      <point x="50" y="7"/>
      <point x="52" y="3"/>
    </contour>
    <contour>
      <point x="399" y="753" type="move" name="top"/>
    </contour>
  </outline>
</glyph>
<glyph name="I" format="1">
  <advance width="325"/>
  <unicode hex="0049"/>
  <outline>
    <contour>
      <point x="54" y="0" type="curve"/>
      <point x="275" y="0" type="line"/>
      <point x="277" y="3"/>
      <point x="279" y="7"/>
      <point x="279" y="14" type="curve" smooth="yes"/>
      <point x="279" y="21"/>
      <point x="277" y="26"/>
      <point x="275" y="28" type="curve"/>
      <point x="267" y="28" type="line"/>
      <point x="243" y="28"/>
      <point x="224" y="46"/>
      <point x="223" y="64" type="curve" smooth="yes"/>
      <point x="220" y="126"/>
      <point x="220" y="281"/>
      <point x="220" y="393" type="curve" smooth="yes"/>
      <point x="220" y="488"/>
      <point x="221" y="605"/>
      <point x="223" y="667" type="curve" smooth="yes"/>
      <point x="224" y="684"/>
      <point x="255" y="700"/>
      <point x="266" y="700" type="curve" smooth="yes"/>
      <point x="274" y="700" type="line"/>
      <point x="276" y="703"/>
      <point x="278" y="709"/>
      <point x="278" y="715" type="curve" smooth="yes"/>
      <point x="278" y="722"/>
      <point x="276" y="727"/>
      <point x="274" y="730" type="curve"/>
      <point x="54" y="730" type="line"/>
      <point x="52" y="727"/>
      <point x="50" y="721"/>
      <point x="50" y="715" type="curve" smooth="yes"/>
      <point x="50" y="709"/>
      <point x="52" y="703"/>
      <point x="54" y="700" type="curve"/>
      <point x="62" y="700" type="line" smooth="yes"/>
      <point x="85" y="700"/>
      <point x="105" y="684"/>
      <point x="106" y="666" type="curve" smooth="yes"/>
      <point x="108" y="605"/>
      <point x="108" y="488"/>
      <point x="108" y="393" type="curve" smooth="yes"/>
      <point x="108" y="281"/>
      <point x="108" y="126"/>
      <point x="106" y="64" type="curve" smooth="yes"/>
      <point x="105" y="45"/>
      <point x="82" y="28"/>
      <point x="58" y="28" type="curve"/>
      <point x="54" y="28" type="line"/>
      <point x="52" y="25"/>
      <point x="50" y="21"/>
      <point x="50" y="14" type="curve" smooth="yes"/>
      <point x="50" y="7"/>
      <point x="52" y="3"/>
    </contour>
  </outline>
</glyph>
<glyph name="J" format="1">
  <advance width="325"/>
  <unicode hex="004A"/>
  <outline>
    <contour>
      <point x="-82" y="-180" type="line"/>
      <point x="133" y="-178"/>
      <point x="217" y="-88"/>
      <point x="217" y="40" type="curve" smooth="yes"/>
      <point x="217" y="62"/>
      <point x="217" y="249"/>
      <point x="217" y="425" type="curve" smooth="yes"/>
      <point x="217" y="522"/>
      <point x="218" y="607"/>
      <point x="220" y="668" type="curve" smooth="yes"/>
      <point x="221" y="686"/>
      <point x="241" y="702"/>
      <point x="264" y="702" type="curve"/>
      <point x="271" y="702" type="line"/>
      <point x="273" y="705"/>
      <point x="275" y="710"/>
      <point x="275" y="716" type="curve" smooth="yes"/>
      <point x="275" y="723"/>
      <point x="273" y="727"/>
      <point x="271" y="730" type="curve"/>
      <point x="51" y="730" type="line"/>
      <point x="49" y="727"/>
      <point x="47" y="723"/>
      <point x="47" y="717" type="curve" smooth="yes"/>
      <point x="47" y="711"/>
      <point x="49" y="705"/>
      <point x="51" y="702" type="curve"/>
      <point x="59" y="702" type="line"/>
      <point x="83" y="702"/>
      <point x="102" y="686"/>
      <point x="103" y="667" type="curve" smooth="yes"/>
      <point x="105" y="607"/>
      <point x="105" y="504"/>
      <point x="105" y="425" type="curve" smooth="yes"/>
      <point x="105" y="255"/>
      <point x="104" y="111"/>
      <point x="103" y="83" type="curve" smooth="yes"/>
      <point x="98" y="-71"/>
      <point x="56" y="-103"/>
      <point x="-82" y="-142" type="curve"/>
    </contour>
    <contour>
      <point x="163" y="750" type="move" name="top"/>
    </contour>
  </outline>
</glyph>
<glyph name="K" format="1">
  <advance width="630"/>
  <unicode hex="004B"/>
  <outline>
    <contour>
      <point x="386" y="0" type="curve"/>
      <point x="603" y="0" type="line"/>
      <point x="605" y="3"/>
      <point x="606" y="8"/>
      <point x="606" y="14" type="curve" smooth="yes"/>
      <point x="606" y="20"/>
      <point x="604" y="26"/>
      <point x="602" y="28" type="curve"/>
      <point x="595" y="28" type="line"/>
      <point x="585" y="28"/>
      <point x="565" y="41"/>
      <point x="552" y="59" type="curve" smooth="yes"/>
      <point x="539" y="76"/>
      <point x="521" y="101"/>
      <point x="499" y="133" type="curve" smooth="yes"/>
      <point x="448" y="209"/>
      <point x="381" y="306"/>
      <point x="275" y="441" type="curve"/>
      <point x="260" y="391" type="line"/>
      <point x="476" y="659" type="line" smooth="yes"/>
      <point x="488" y="674"/>
      <point x="498" y="686"/>
      <point x="509" y="694" type="curve" smooth="yes"/>
      <point x="516" y="699"/>
      <point x="521" y="702"/>
      <point x="533" y="702" type="curve"/>
      <point x="543" y="702" type="line"/>
      <point x="545" y="705"/>
      <point x="547" y="709"/>
      <point x="547" y="716" type="curve" smooth="yes"/>
      <point x="547" y="723"/>
      <point x="545" y="727"/>
      <point x="543" y="730" type="curve"/>
      <point x="361" y="730" type="line"/>
      <point x="359" y="727"/>
      <point x="356" y="722"/>
      <point x="356" y="716" type="curve" smooth="yes"/>
      <point x="356" y="710"/>
      <point x="358" y="705"/>
      <point x="361" y="702" type="curve"/>
      <point x="368" y="702" type="line"/>
      <point x="379" y="702"/>
      <point x="405" y="691"/>
      <point x="405" y="680" type="curve" smooth="yes"/>
      <point x="405" y="675"/>
      <point x="402" y="662"/>
      <point x="387" y="644" type="curve" smooth="yes"/>
      <point x="230" y="456" type="line" smooth="yes"/>
      <point x="200" y="420"/>
      <point x="198" y="418"/>
      <point x="171" y="405" type="curve"/>
      <point x="171" y="334" type="line"/>
      <point x="176" y="335"/>
      <point x="199" y="340"/>
      <point x="210" y="351" type="curve"/>
      <point x="226" y="329"/>
      <point x="317" y="203"/>
      <point x="394" y="94" type="curve" smooth="yes"/>
      <point x="404" y="80"/>
      <point x="413" y="65"/>
      <point x="413" y="55" type="curve" smooth="yes"/>
      <point x="413" y="43"/>
      <point x="408" y="28"/>
      <point x="386" y="28" type="curve"/>
      <point x="384" y="25"/>
      <point x="381" y="20"/>
      <point x="381" y="14" type="curve" smooth="yes"/>
      <point x="381" y="8"/>
      <point x="384" y="3"/>
    </contour>
    <contour>
      <point x="19" y="0" type="curve"/>
      <point x="240" y="0" type="line"/>
      <point x="242" y="3"/>
      <point x="243" y="8"/>
      <point x="243" y="14" type="curve" smooth="yes"/>
      <point x="243" y="20"/>
      <point x="241" y="26"/>
      <point x="239" y="28" type="curve"/>
      <point x="232" y="28" type="line"/>
      <point x="209" y="28"/>
      <point x="189" y="46"/>
      <point x="188" y="65" type="curve" smooth="yes"/>
      <point x="184" y="133"/>
      <point x="185" y="298"/>
      <point x="185" y="373" type="curve" smooth="yes"/>
      <point x="185" y="464"/>
      <point x="185" y="619"/>
      <point x="188" y="685" type="curve" smooth="yes"/>
      <point x="189" y="702"/>
      <point x="209" y="702"/>
      <point x="233" y="702" type="curve"/>
      <point x="240" y="702" type="line"/>
      <point x="242" y="705"/>
      <point x="244" y="709"/>
      <point x="244" y="716" type="curve" smooth="yes"/>
      <point x="244" y="723"/>
      <point x="242" y="728"/>
      <point x="240" y="730" type="curve"/>
      <point x="19" y="730" type="line"/>
      <point x="17" y="727"/>
      <point x="16" y="722"/>
      <point x="16" y="716" type="curve" smooth="yes"/>
      <point x="16" y="710"/>
      <point x="18" y="705"/>
      <point x="20" y="702" type="curve"/>
      <point x="26" y="702" type="line"/>
      <point x="50" y="702"/>
      <point x="70" y="684"/>
      <point x="71" y="666" type="curve" smooth="yes"/>
      <point x="74" y="575"/>
      <point x="74" y="493"/>
      <point x="74" y="402" type="curve" smooth="yes"/>
      <point x="74" y="287"/>
      <point x="74" y="124"/>
      <point x="71" y="65" type="curve" smooth="yes"/>
      <point x="70" y="46"/>
      <point x="48" y="28"/>
      <point x="26" y="28" type="curve"/>
      <point x="19" y="28" type="line"/>
      <point x="17" y="25"/>
      <point x="14" y="20"/>
      <point x="14" y="14" type="curve" smooth="yes"/>
      <point x="14" y="8"/>
      <point x="17" y="3"/>
    </contour>
    <contour>
      <point x="292" y="0" type="move" name="bottom"/>
    </contour>
    <contour>
      <point x="295" y="730" type="move" name="top"/>
    </contour>
  </outline>
</glyph>
<glyph name="L" format="1">
  <advance width="617"/>
  <unicode hex="004C"/>
  <outline>
    <contour>
      <point x="56" y="0" type="curve"/>
      <point x="539" y="0" type="line"/>
      <point x="558" y="165" type="line"/>
      <point x="528" y="163" type="line"/>
      <point x="527" y="157" type="line" smooth="yes"/>
      <point x="517" y="99"/>
      <point x="490" y="59"/>
      <point x="431" y="46" type="curve" smooth="yes"/>
      <point x="387" y="36"/>
      <point x="366" y="34"/>
      <point x="302" y="34" type="curve" smooth="yes"/>
      <point x="281" y="34"/>
      <point x="271" y="35"/>
      <point x="249" y="38" type="curve" smooth="yes"/>
      <point x="232" y="40"/>
      <point x="226" y="59"/>
      <point x="226" y="69" type="curve" smooth="yes"/>
      <point x="224" y="130"/>
      <point x="223" y="287"/>
      <point x="223" y="401" type="curve" smooth="yes"/>
      <point x="223" y="493"/>
      <point x="224" y="604"/>
      <point x="226" y="666" type="curve" smooth="yes"/>
      <point x="227" y="687"/>
      <point x="254" y="701"/>
      <point x="271" y="701" type="curve" smooth="yes"/>
      <point x="278" y="701" type="line"/>
      <point x="279" y="704"/>
      <point x="281" y="710"/>
      <point x="281" y="716" type="curve" smooth="yes"/>
      <point x="281" y="723"/>
      <point x="279" y="728"/>
      <point x="278" y="730" type="curve"/>
      <point x="57" y="730" type="line"/>
      <point x="55" y="727"/>
      <point x="52" y="722"/>
      <point x="52" y="716" type="curve" smooth="yes"/>
      <point x="52" y="710"/>
      <point x="55" y="704"/>
      <point x="57" y="701" type="curve"/>
      <point x="64" y="701" type="line" smooth="yes"/>
      <point x="87" y="701"/>
      <point x="108" y="684"/>
      <point x="109" y="666" type="curve" smooth="yes"/>
      <point x="111" y="604"/>
      <point x="111" y="494"/>
      <point x="111" y="402" type="curve" smooth="yes"/>
      <point x="111" y="286"/>
      <point x="111" y="130"/>
      <point x="109" y="68" type="curve" smooth="yes"/>
      <point x="108" y="47"/>
      <point x="89" y="29"/>
      <point x="64" y="29" type="curve" smooth="yes"/>
      <point x="56" y="29" type="line"/>
      <point x="54" y="26"/>
      <point x="51" y="21"/>
      <point x="51" y="15" type="curve" smooth="yes"/>
      <point x="51" y="9"/>
      <point x="54" y="3"/>
    </contour>
  </outline>
</glyph>
<glyph name="M" format="1">
  <advance width="873"/>
  <unicode hex="004D"/>
  <outline>
    <contour>
      <point x="37" y="0" type="curve"/>
      <point x="217" y="0" type="line"/>
      <point x="219" y="4"/>
      <point x="220" y="8"/>
      <point x="220" y="14" type="curve" smooth="yes"/>
      <point x="220" y="20"/>
      <point x="218" y="25"/>
      <point x="216" y="28" type="curve"/>
      <point x="209" y="28" type="line"/>
      <point x="195" y="28"/>
      <point x="181" y="34"/>
      <point x="172" y="43" type="curve" smooth="yes"/>
      <point x="167" y="48"/>
      <point x="164" y="55"/>
      <point x="164" y="63" type="curve" smooth="yes"/>
      <point x="184" y="620" type="line"/>
      <point x="166" y="609" type="line"/>
      <point x="199" y="548"/>
      <point x="338" y="288"/>
      <point x="410" y="137" type="curve" smooth="yes"/>
      <point x="413" y="130"/>
      <point x="422" y="122"/>
      <point x="429" y="122" type="curve" smooth="yes"/>
      <point x="439" y="122"/>
      <point x="449" y="131"/>
      <point x="452" y="137" type="curve" smooth="yes"/>
      <point x="683" y="628" type="line"/>
      <point x="655" y="640" type="line"/>
      <point x="661" y="584"/>
      <point x="682" y="112"/>
      <point x="682" y="63" type="curve" smooth="yes"/>
      <point x="682" y="44"/>
      <point x="661" y="28"/>
      <point x="637" y="28" type="curve"/>
      <point x="629" y="28" type="line"/>
      <point x="627" y="25"/>
      <point x="624" y="20"/>
      <point x="624" y="14" type="curve" smooth="yes"/>
      <point x="624" y="8"/>
      <point x="627" y="3"/>
      <point x="629" y="0" type="curve"/>
      <point x="838" y="0" type="line"/>
      <point x="840" y="3"/>
      <point x="841" y="8"/>
      <point x="841" y="14" type="curve" smooth="yes"/>
      <point x="841" y="20"/>
      <point x="839" y="25"/>
      <point x="838" y="27" type="curve"/>
      <point x="831" y="27" type="line"/>
      <point x="808" y="27"/>
      <point x="787" y="44"/>
      <point x="786" y="63" type="curve" smooth="yes"/>
      <point x="781" y="166"/>
      <point x="776" y="262"/>
      <point x="769" y="367" type="curve" smooth="yes"/>
      <point x="768" y="384"/>
      <point x="756" y="642"/>
      <point x="756" y="667" type="curve" smooth="yes"/>
      <point x="756" y="685"/>
      <point x="778" y="702"/>
      <point x="801" y="702" type="curve" smooth="yes"/>
      <point x="808" y="702" type="line"/>
      <point x="810" y="705"/>
      <point x="811" y="710"/>
      <point x="811" y="716" type="curve" smooth="yes"/>
      <point x="811" y="722"/>
      <point x="809" y="728"/>
      <point x="808" y="730" type="curve"/>
      <point x="671" y="730" type="line"/>
      <point x="461" y="278" type="line"/>
      <point x="232" y="730" type="line"/>
      <point x="57" y="730" type="line"/>
      <point x="55" y="727"/>
      <point x="52" y="722"/>
      <point x="52" y="716" type="curve" smooth="yes"/>
      <point x="52" y="710"/>
      <point x="55" y="705"/>
      <point x="57" y="702" type="curve"/>
      <point x="64" y="702" type="line"/>
      <point x="88" y="702"/>
      <point x="110" y="684"/>
      <point x="110" y="665" type="curve" smooth="yes"/>
      <point x="110" y="534"/>
      <point x="100" y="269"/>
      <point x="90" y="65" type="curve"/>
      <point x="45" y="28" type="line"/>
      <point x="38" y="28" type="line"/>
      <point x="35" y="25"/>
      <point x="32" y="20"/>
      <point x="32" y="14" type="curve" smooth="yes"/>
      <point x="32" y="8"/>
      <point x="35" y="3"/>
    </contour>
    <contour>
      <point x="425" y="2" type="move" name="bottom"/>
    </contour>
    <contour>
      <point x="437" y="728" type="move" name="top"/>
    </contour>
  </outline>
</glyph>
<glyph name="N" format="1">
  <advance width="841"/>
  <unicode hex="004E"/>
  <outline>
    <contour>
      <point x="717" y="-9" type="curve" smooth="yes"/>
      <point x="730" y="-9"/>
      <point x="742" y="0"/>
      <point x="742" y="13" type="curve"/>
      <point x="739" y="100"/>
      <point x="736" y="269"/>
      <point x="736" y="400" type="curve" smooth="yes"/>
      <point x="736" y="493"/>
      <point x="736" y="575"/>
      <point x="741" y="667" type="curve" smooth="yes"/>
      <point x="742" y="684"/>
      <point x="764" y="702"/>
      <point x="787" y="702" type="curve"/>
      <point x="794" y="702" type="line"/>
      <point x="796" y="705"/>
      <point x="797" y="710"/>
      <point x="797" y="716" type="curve" smooth="yes"/>
      <point x="797" y="723"/>
      <point x="795" y="728"/>
      <point x="794" y="730" type="curve"/>
      <point x="612" y="730" type="line"/>
      <point x="610" y="727"/>
      <point x="607" y="722"/>
      <point x="607" y="716" type="curve" smooth="yes"/>
      <point x="607" y="710"/>
      <point x="610" y="705"/>
      <point x="612" y="702" type="curve"/>
      <point x="619" y="702" type="line"/>
      <point x="640" y="702"/>
      <point x="665" y="684"/>
      <point x="665" y="665" type="curve" smooth="yes"/>
      <point x="665" y="493"/>
      <point x="665" y="380"/>
      <point x="665" y="210" type="curve"/>
      <point x="191" y="730" type="line"/>
      <point x="48" y="730" type="line"/>
      <point x="46" y="727"/>
      <point x="43" y="722"/>
      <point x="43" y="716" type="curve" smooth="yes"/>
      <point x="43" y="710"/>
      <point x="46" y="705"/>
      <point x="48" y="702" type="curve"/>
      <point x="54" y="702" type="line"/>
      <point x="79" y="702"/>
      <point x="98" y="684"/>
      <point x="99" y="664" type="curve" smooth="yes"/>
      <point x="103" y="587"/>
      <point x="103" y="487"/>
      <point x="103" y="399" type="curve" smooth="yes"/>
      <point x="103" y="288"/>
      <point x="103" y="141"/>
      <point x="99" y="66" type="curve" smooth="yes"/>
      <point x="98" y="46"/>
      <point x="79" y="28"/>
      <point x="54" y="28" type="curve" smooth="yes"/>
      <point x="47" y="28" type="line"/>
      <point x="45" y="25"/>
      <point x="42" y="20"/>
      <point x="42" y="14" type="curve" smooth="yes"/>
      <point x="42" y="8"/>
      <point x="45" y="3"/>
      <point x="47" y="0" type="curve"/>
      <point x="230" y="0" type="line"/>
      <point x="232" y="3"/>
      <point x="233" y="8"/>
      <point x="233" y="14" type="curve" smooth="yes"/>
      <point x="233" y="20"/>
      <point x="231" y="26"/>
      <point x="229" y="28" type="curve"/>
      <point x="222" y="28" type="line" smooth="yes"/>
      <point x="198" y="28"/>
      <point x="178" y="47"/>
      <point x="177" y="65" type="curve" smooth="yes"/>
      <point x="175" y="101"/>
      <point x="174" y="167"/>
      <point x="174" y="399" type="curve" smooth="yes"/>
      <point x="174" y="469"/>
      <point x="174" y="527"/>
      <point x="176" y="577" type="curve"/>
      <point x="279" y="472"/>
      <point x="358" y="384"/>
      <point x="441" y="291" type="curve" smooth="yes"/>
      <point x="518" y="205"/>
      <point x="602" y="110"/>
      <point x="690" y="7" type="curve" smooth="yes"/>
      <point x="693" y="4"/>
      <point x="708" y="-9"/>
    </contour>
    <contour>
      <point x="415" y="1" type="move" name="bottom"/>
    </contour>
    <contour>
      <point x="416" y="730" type="move" name="top"/>
    </contour>
  </outline>
</glyph>
<glyph name="O" format="1">
  <advance width="828"/>
  <unicode hex="004F"/>
  <outline>
    <contour>
      <point x="413" y="-10" type="curve" smooth="yes"/>
      <point x="577" y="-10"/>
      <point x="774" y="124"/>
      <point x="774" y="361" type="curve" smooth="yes"/>
      <point x="774" y="608"/>
      <point x="610" y="734"/>
      <point x="411" y="734" type="curve" smooth="yes"/>
      <point x="217" y="734"/>
      <point x="55" y="600"/>
      <point x="55" y="352" type="curve" smooth="yes"/>
      <point x="55" y="54"/>
      <point x="294" y="-10"/>
    </contour>
    <contour>
      <point x="421" y="41" type="curve" smooth="yes"/>
      <point x="358" y="41"/>
      <point x="178" y="68"/>
      <point x="178" y="384" type="curve" smooth="yes"/>
      <point x="178" y="452"/>
      <point x="196" y="685"/>
      <point x="404" y="685" type="curve" smooth="yes"/>
      <point x="593" y="685"/>
      <point x="652" y="530"/>
      <point x="652" y="377" type="curve" smooth="yes"/>
      <point x="652" y="115"/>
      <point x="540" y="41"/>
    </contour>
  </outline>
</glyph>
<glyph name="P" format="1">
  <advance width="568"/>
  <unicode hex="0050"/>
  <outline>
    <contour>
      <point x="17" y="0" type="curve"/>
      <point x="238" y="0" type="line"/>
      <point x="239" y="3"/>
      <point x="241" y="9"/>
      <point x="241" y="15" type="curve" smooth="yes"/>
      <point x="241" y="22"/>
      <point x="239" y="27"/>
      <point x="237" y="29" type="curve"/>
      <point x="230" y="29" type="line" smooth="yes"/>
      <point x="209" y="29"/>
      <point x="188" y="46"/>
      <point x="187" y="63" type="curve" smooth="yes"/>
      <point x="184" y="126"/>
      <point x="184" y="282"/>
      <point x="184" y="396" type="curve" smooth="yes"/>
      <point x="184" y="494"/>
      <point x="184" y="598"/>
      <point x="187" y="690" type="curve"/>
      <point x="231" y="690" type="line" smooth="yes"/>
      <point x="342" y="690"/>
      <point x="430" y="652"/>
      <point x="430" y="515" type="curve" smooth="yes"/>
      <point x="430" y="378"/>
      <point x="344" y="327"/>
      <point x="238" y="327" type="curve" smooth="yes"/>
      <point x="226" y="327"/>
      <point x="209" y="318"/>
      <point x="209" y="303" type="curve" smooth="yes"/>
      <point x="209" y="288"/>
      <point x="219" y="279"/>
      <point x="233" y="277" type="curve" smooth="yes"/>
      <point x="246" y="275"/>
      <point x="257" y="275"/>
      <point x="270" y="275" type="curve" smooth="yes"/>
      <point x="401" y="275"/>
      <point x="532" y="347"/>
      <point x="532" y="503" type="curve" smooth="yes"/>
      <point x="532" y="668"/>
      <point x="411" y="733"/>
      <point x="255" y="733" type="curve" smooth="yes"/>
      <point x="253" y="733"/>
      <point x="250" y="733"/>
      <point x="248" y="733" type="curve" smooth="yes"/>
      <point x="17" y="730" type="line"/>
      <point x="15" y="727"/>
      <point x="12" y="722"/>
      <point x="12" y="716" type="curve" smooth="yes"/>
      <point x="12" y="710"/>
      <point x="15" y="704"/>
      <point x="17" y="701" type="curve"/>
      <point x="25" y="701" type="line" smooth="yes"/>
      <point x="46" y="701"/>
      <point x="68" y="688"/>
      <point x="69" y="659" type="curve" smooth="yes"/>
      <point x="71" y="598"/>
      <point x="71" y="487"/>
      <point x="71" y="396" type="curve" smooth="yes"/>
      <point x="71" y="285"/>
      <point x="71" y="126"/>
      <point x="69" y="64" type="curve" smooth="yes"/>
      <point x="68" y="47"/>
      <point x="47" y="29"/>
      <point x="24" y="29" type="curve" smooth="yes"/>
      <point x="17" y="29" type="line"/>
      <point x="15" y="26"/>
      <point x="12" y="21"/>
      <point x="12" y="15" type="curve" smooth="yes"/>
      <point x="12" y="9"/>
      <point x="15" y="3"/>
    </contour>
  </outline>
</glyph>
<glyph name="Q" format="1">
  <advance width="838"/>
  <unicode hex="0051"/>
  <outline>
    <contour>
      <point x="446" y="-15" type="line"/>
      <point x="606" y="-2"/>
      <point x="784" y="130"/>
      <point x="784" y="357" type="curve" smooth="yes"/>
      <point x="784" y="606"/>
      <point x="617" y="733"/>
      <point x="416" y="733" type="curve" smooth="yes"/>
      <point x="219" y="733"/>
      <point x="55" y="598"/>
      <point x="55" y="348" type="curve" smooth="yes"/>
      <point x="55" y="95"/>
      <point x="226" y="8"/>
      <point x="354" y="-11" type="curve"/>
    </contour>
    <contour>
      <point x="575" y="-152" type="curve" smooth="yes"/>
      <point x="600" y="-152"/>
      <point x="626" y="-151"/>
      <point x="654" y="-148" type="curve" smooth="yes"/>
      <point x="662" y="-147" type="line"/>
      <point x="650" y="-91" type="line"/>
      <point x="644" y="-91" type="line" smooth="yes"/>
      <point x="636" y="-91"/>
      <point x="628" y="-91"/>
      <point x="620" y="-91" type="curve" smooth="yes"/>
      <point x="502" y="-91"/>
      <point x="463" y="-59"/>
      <point x="458" y="-1" type="curve"/>
      <point x="341" y="8" type="line"/>
      <point x="346" y="-109"/>
      <point x="433" y="-152"/>
    </contour>
    <contour>
      <point x="426" y="34" type="curve" smooth="yes"/>
      <point x="362" y="34"/>
      <point x="178" y="61"/>
      <point x="178" y="380" type="curve" smooth="yes"/>
      <point x="178" y="449"/>
      <point x="197" y="684"/>
      <point x="409" y="684" type="curve" smooth="yes"/>
      <point x="602" y="684"/>
      <point x="662" y="527"/>
      <point x="662" y="373" type="curve" smooth="yes"/>
      <point x="662" y="109"/>
      <point x="547" y="34"/>
    </contour>
  </outline>
</glyph>
<glyph name="R" format="1">
  <advance width="703"/>
  <unicode hex="0052"/>
  <outline>
    <contour>
      <point x="210" y="371" type="curve"/>
      <point x="208" y="327" type="line"/>
      <point x="228" y="325"/>
      <point x="254" y="323"/>
      <point x="270" y="323" type="curve"/>
      <point x="280" y="310"/>
      <point x="370" y="179"/>
      <point x="436" y="72" type="curve" smooth="yes"/>
      <point x="447" y="54"/>
      <point x="480" y="0"/>
      <point x="527" y="0" type="curve" smooth="yes"/>
      <point x="650" y="0" type="line"/>
      <point x="652" y="3"/>
      <point x="654" y="10"/>
      <point x="654" y="16" type="curve" smooth="yes"/>
      <point x="654" y="23"/>
      <point x="652" y="28"/>
      <point x="650" y="30" type="curve"/>
      <point x="644" y="30" type="line" smooth="yes"/>
      <point x="616" y="30"/>
      <point x="607" y="41"/>
      <point x="593" y="60" type="curve" smooth="yes"/>
      <point x="550" y="119"/>
      <point x="465" y="238"/>
      <point x="369" y="374" type="curve"/>
      <point x="362" y="336" type="line"/>
      <point x="464" y="351"/>
      <point x="554" y="420"/>
      <point x="554" y="535" type="curve" smooth="yes"/>
      <point x="554" y="676"/>
      <point x="437" y="734"/>
      <point x="280" y="734" type="curve" smooth="yes"/>
      <point x="247" y="734"/>
      <point x="213" y="733"/>
      <point x="182" y="732" type="curve" smooth="yes"/>
      <point x="151" y="731"/>
      <point x="119" y="730"/>
      <point x="87" y="730" type="curve" smooth="yes"/>
      <point x="78" y="730"/>
      <point x="71" y="730"/>
      <point x="62" y="730" type="curve" smooth="yes"/>
      <point x="54" y="730" type="line"/>
      <point x="52" y="727"/>
      <point x="49" y="722"/>
      <point x="49" y="716" type="curve" smooth="yes"/>
      <point x="49" y="710"/>
      <point x="52" y="704"/>
      <point x="54" y="701" type="curve"/>
      <point x="62" y="701" type="line" smooth="yes"/>
      <point x="91" y="701"/>
      <point x="105" y="684"/>
      <point x="106" y="658" type="curve" smooth="yes"/>
      <point x="108" y="596"/>
      <point x="108" y="490"/>
      <point x="108" y="404" type="curve" smooth="yes"/>
      <point x="108" y="288"/>
      <point x="108" y="127"/>
      <point x="106" y="65" type="curve" smooth="yes"/>
      <point x="105" y="46"/>
      <point x="85" y="29"/>
      <point x="61" y="29" type="curve" smooth="yes"/>
      <point x="54" y="29" type="line"/>
      <point x="52" y="26"/>
      <point x="49" y="21"/>
      <point x="49" y="15" type="curve" smooth="yes"/>
      <point x="49" y="9"/>
      <point x="52" y="3"/>
      <point x="54" y="0" type="curve"/>
      <point x="275" y="0" type="line"/>
      <point x="276" y="3"/>
      <point x="278" y="9"/>
      <point x="278" y="15" type="curve" smooth="yes"/>
      <point x="278" y="22"/>
      <point x="276" y="27"/>
      <point x="274" y="29" type="curve"/>
      <point x="268" y="29" type="line" smooth="yes"/>
      <point x="245" y="29"/>
      <point x="224" y="46"/>
      <point x="223" y="64" type="curve" smooth="yes"/>
      <point x="220" y="157"/>
      <point x="219" y="243"/>
      <point x="219" y="338" type="curve" smooth="yes"/>
      <point x="219" y="366" type="line" smooth="yes"/>
      <point x="219" y="388"/>
      <point x="219" y="483"/>
      <point x="219" y="535" type="curve" smooth="yes"/>
      <point x="219" y="593"/>
      <point x="219" y="602"/>
      <point x="223" y="690" type="curve"/>
      <point x="264" y="690" type="line" smooth="yes"/>
      <point x="378" y="690"/>
      <point x="452" y="645"/>
      <point x="452" y="531" type="curve" smooth="yes"/>
      <point x="452" y="434"/>
      <point x="344" y="371"/>
      <point x="249" y="371" type="curve" smooth="yes"/>
      <point x="237" y="371"/>
      <point x="219" y="371"/>
    </contour>
  </outline>
</glyph>
<glyph name="S" format="1">
  <advance width="593"/>
  <unicode hex="0053"/>
  <outline>
    <contour>
      <point x="293" y="-10" type="curve" smooth="yes"/>
      <point x="345" y="-10"/>
      <point x="405" y="7"/>
      <point x="443" y="38" type="curve" smooth="yes"/>
      <point x="493" y="78"/>
      <point x="541" y="131"/>
      <point x="541" y="215" type="curve" smooth="yes"/>
      <point x="541" y="305"/>
      <point x="447" y="368"/>
      <point x="342" y="427" type="curve" smooth="yes"/>
      <point x="255" y="476"/>
      <point x="195" y="516"/>
      <point x="195" y="584" type="curve" smooth="yes"/>
      <point x="195" y="634"/>
      <point x="211" y="696"/>
      <point x="312" y="696" type="curve" smooth="yes"/>
      <point x="397" y="696"/>
      <point x="428" y="647"/>
      <point x="448" y="615" type="curve" smooth="yes"/>
      <point x="458" y="599"/>
      <point x="465" y="588"/>
      <point x="474" y="588" type="curve" smooth="yes"/>
      <point x="494" y="588"/>
      <point x="520" y="673"/>
      <point x="520" y="686" type="curve" smooth="yes"/>
      <point x="520" y="716"/>
      <point x="419" y="742"/>
      <point x="329" y="742" type="curve" smooth="yes"/>
      <point x="170" y="742"/>
      <point x="86" y="650"/>
      <point x="86" y="559" type="curve" smooth="yes"/>
      <point x="86" y="476"/>
      <point x="201" y="400"/>
      <point x="294" y="346" type="curve" smooth="yes"/>
      <point x="382" y="295"/>
      <point x="438" y="248"/>
      <point x="438" y="174" type="curve" smooth="yes"/>
      <point x="438" y="102"/>
      <point x="390" y="50"/>
      <point x="295" y="50" type="curve" smooth="yes"/>
      <point x="174" y="50"/>
      <point x="134" y="155"/>
      <point x="128" y="204" type="curve"/>
      <point x="127" y="213"/>
      <point x="119" y="216"/>
      <point x="112" y="216" type="curve" smooth="yes"/>
      <point x="88" y="216"/>
      <point x="50" y="147"/>
      <point x="50" y="123" type="curve" smooth="yes"/>
      <point x="50" y="76"/>
      <point x="141" y="-10"/>
    </contour>
    <contour>
      <point x="290" y="-11" type="move" name="bottom"/>
    </contour>
    <contour>
      <point x="313" y="744" type="move" name="top"/>
    </contour>
  </outline>
</glyph>
<glyph name="T" format="1">
  <advance width="709"/>
  <unicode hex="0054"/>
  <unicode hex="03A4"/>
  <outline>
    <contour>
      <point x="264" y="0" type="curve" smooth="yes"/>
      <point x="485" y="0" type="line"/>
      <point x="486" y="2"/>
      <point x="488" y="8"/>
      <point x="488" y="14" type="curve" smooth="yes"/>
      <point x="488" y="20"/>
      <point x="486" y="25"/>
      <point x="484" y="28" type="curve"/>
      <point x="478" y="28" type="line"/>
      <point x="470" y="28"/>
      <point x="464" y="30"/>
      <point x="457" y="33" type="curve" smooth="yes"/>
      <point x="441" y="40"/>
      <point x="433" y="54"/>
      <point x="433" y="63" type="curve" smooth="yes"/>
      <point x="430" y="128"/>
      <point x="430" y="237"/>
      <point x="430" y="328" type="curve" smooth="yes"/>
      <point x="430" y="443"/>
      <point x="430" y="580"/>
      <point x="433" y="661" type="curve" smooth="yes"/>
      <point x="433" y="672"/>
      <point x="440" y="683"/>
      <point x="455" y="684" type="curve" smooth="yes"/>
      <point x="473" y="685"/>
      <point x="489" y="685"/>
      <point x="507" y="685" type="curve" smooth="yes"/>
      <point x="568" y="685"/>
      <point x="577" y="685"/>
      <point x="600" y="679" type="curve" smooth="yes"/>
      <point x="630" y="671"/>
      <point x="638" y="625"/>
      <point x="638" y="590" type="curve"/>
      <point x="669" y="590" type="line"/>
      <point x="674" y="726" type="line"/>
      <point x="674" y="737"/>
      <point x="670" y="738"/>
      <point x="666" y="738" type="curve" smooth="yes"/>
      <point x="663" y="738"/>
      <point x="659" y="738"/>
      <point x="655" y="737" type="curve" smooth="yes"/>
      <point x="649" y="736"/>
      <point x="643" y="735"/>
      <point x="641" y="735" type="curve" smooth="yes"/>
      <point x="551" y="732"/>
      <point x="480" y="730"/>
      <point x="369" y="730" type="curve" smooth="yes"/>
      <point x="243" y="730"/>
      <point x="147" y="731"/>
      <point x="113" y="733" type="curve" smooth="yes"/>
      <point x="110" y="733"/>
      <point x="106" y="733"/>
      <point x="102" y="734" type="curve" smooth="yes"/>
      <point x="97" y="735"/>
      <point x="92" y="736"/>
      <point x="88" y="736" type="curve" smooth="yes"/>
      <point x="84" y="736"/>
      <point x="79" y="734"/>
      <point x="77" y="728" type="curve"/>
      <point x="56" y="590" type="line"/>
      <point x="92" y="590" type="line"/>
      <point x="101" y="640"/>
      <point x="119" y="670"/>
      <point x="161" y="677" type="curve" smooth="yes"/>
      <point x="190" y="682"/>
      <point x="234" y="685"/>
      <point x="269" y="685" type="curve" smooth="yes"/>
      <point x="282" y="685"/>
      <point x="294" y="685"/>
      <point x="300" y="684" type="curve" smooth="yes"/>
      <point x="311" y="682"/>
      <point x="316" y="671"/>
      <point x="317" y="655" type="curve" smooth="yes"/>
      <point x="320" y="580"/>
      <point x="320" y="468"/>
      <point x="320" y="329" type="curve" smooth="yes"/>
      <point x="320" y="265"/>
      <point x="318" y="128"/>
      <point x="315" y="63" type="curve" smooth="yes"/>
      <point x="315" y="54"/>
      <point x="311" y="42"/>
      <point x="297" y="34" type="curve" smooth="yes"/>
      <point x="288" y="29"/>
      <point x="283" y="28"/>
      <point x="271" y="28" type="curve"/>
      <point x="264" y="28" type="line"/>
      <point x="261" y="25"/>
      <point x="259" y="20"/>
      <point x="259" y="14" type="curve" smooth="yes"/>
      <point x="259" y="8"/>
      <point x="260" y="0"/>
    </contour>
    <contour>
      <point x="364" y="5" type="move" name="bottom"/>
    </contour>
    <contour>
      <point x="368" y="735" type="move" name="top"/>
    </contour>
  </outline>
</glyph>
<glyph name="U" format="1">
  <advance width="765"/>
  <unicode hex="0055"/>
  <outline>
    <contour>
      <point x="386" y="-11" type="curve" smooth="yes"/>
      <point x="498" y="-11"/>
      <point x="679" y="41"/>
      <point x="679" y="279" type="curve" smooth="yes"/>
      <point x="679" y="313"/>
      <point x="679" y="375"/>
      <point x="679" y="456" type="curve" smooth="yes"/>
      <point x="679" y="490"/>
      <point x="679" y="636"/>
      <point x="680" y="666" type="curve" smooth="yes"/>
      <point x="681" y="685"/>
      <point x="707" y="701"/>
      <point x="726" y="701" type="curve" smooth="yes"/>
      <point x="733" y="701" type="line"/>
      <point x="734" y="704"/>
      <point x="736" y="710"/>
      <point x="736" y="716" type="curve" smooth="yes"/>
      <point x="736" y="723"/>
      <point x="734" y="728"/>
      <point x="733" y="730" type="curve"/>
      <point x="546" y="730" type="line"/>
      <point x="544" y="727"/>
      <point x="542" y="722"/>
      <point x="542" y="716" type="curve" smooth="yes"/>
      <point x="542" y="709"/>
      <point x="544" y="704"/>
      <point x="546" y="701" type="curve"/>
      <point x="553" y="701" type="line" smooth="yes"/>
      <point x="576" y="701"/>
      <point x="599" y="683"/>
      <point x="599" y="666" type="curve" smooth="yes"/>
      <point x="599" y="636"/>
      <point x="599" y="335"/>
      <point x="599" y="305" type="curve" smooth="yes"/>
      <point x="599" y="119"/>
      <point x="503" y="36"/>
      <point x="388" y="36" type="curve" smooth="yes"/>
      <point x="261" y="36"/>
      <point x="198" y="117"/>
      <point x="198" y="319" type="curve" smooth="yes"/>
      <point x="198" y="324"/>
      <point x="199" y="603"/>
      <point x="201" y="664" type="curve" smooth="yes"/>
      <point x="202" y="686"/>
      <point x="221" y="701"/>
      <point x="246" y="701" type="curve" smooth="yes"/>
      <point x="253" y="701" type="line"/>
      <point x="254" y="704"/>
      <point x="256" y="710"/>
      <point x="256" y="716" type="curve" smooth="yes"/>
      <point x="256" y="723"/>
      <point x="254" y="728"/>
      <point x="253" y="730" type="curve"/>
      <point x="32" y="730" type="line"/>
      <point x="30" y="727"/>
      <point x="27" y="722"/>
      <point x="27" y="716" type="curve" smooth="yes"/>
      <point x="27" y="710"/>
      <point x="30" y="704"/>
      <point x="32" y="701" type="curve"/>
      <point x="39" y="701" type="line" smooth="yes"/>
      <point x="61" y="701"/>
      <point x="85" y="685"/>
      <point x="85" y="664" type="curve" smooth="yes"/>
      <point x="85" y="291" type="line" smooth="yes"/>
      <point x="85" y="43"/>
      <point x="271" y="-11"/>
    </contour>
  </outline>
</glyph>
<glyph name="V" format="1">
  <advance width="709"/>
  <unicode hex="0056"/>
  <outline>
    <contour>
      <point x="397" y="-8" type="curve" smooth="yes"/>
      <point x="408" y="-8"/>
      <point x="413" y="1"/>
      <point x="415" y="6" type="curve" smooth="yes"/>
      <point x="416" y="9"/>
      <point x="419" y="16"/>
      <point x="423" y="25" type="curve"/>
      <point x="694" y="659" type="line"/>
      <point x="705" y="686"/>
      <point x="713" y="702"/>
      <point x="742" y="702" type="curve"/>
      <point x="750" y="702" type="line"/>
      <point x="752" y="706"/>
      <point x="753" y="710"/>
      <point x="753" y="716" type="curve" smooth="yes"/>
      <point x="753" y="722"/>
      <point x="751" y="727"/>
      <point x="749" y="730" type="curve"/>
      <point x="573" y="730" type="line"/>
      <point x="571" y="727"/>
      <point x="568" y="722"/>
      <point x="568" y="716" type="curve" smooth="yes"/>
      <point x="568" y="710"/>
      <point x="571" y="705"/>
      <point x="573" y="702" type="curve"/>
      <point x="580" y="702" type="line"/>
      <point x="601" y="702"/>
      <point x="624" y="686"/>
      <point x="624" y="669" type="curve" smooth="yes"/>
      <point x="624" y="663"/>
      <point x="621" y="656"/>
      <point x="616" y="646" type="curve"/>
      <point x="398" y="152" type="line"/>
      <point x="433" y="152" type="line"/>
      <point x="223" y="652" type="line"/>
      <point x="220" y="659"/>
      <point x="219" y="666"/>
      <point x="219" y="670" type="curve" smooth="yes"/>
      <point x="219" y="684"/>
      <point x="242" y="702"/>
      <point x="264" y="702" type="curve"/>
      <point x="271" y="702" type="line"/>
      <point x="273" y="706"/>
      <point x="274" y="710"/>
      <point x="274" y="716" type="curve" smooth="yes"/>
      <point x="274" y="722"/>
      <point x="273" y="728"/>
      <point x="272" y="730" type="curve"/>
      <point x="50" y="730" type="line"/>
      <point x="48" y="727"/>
      <point x="45" y="722"/>
      <point x="45" y="716" type="curve" smooth="yes"/>
      <point x="45" y="710"/>
      <point x="48" y="705"/>
      <point x="50" y="702" type="curve"/>
      <point x="57" y="702" type="line"/>
      <point x="83" y="702"/>
      <point x="90" y="690"/>
      <point x="100" y="666" type="curve" smooth="yes"/>
      <point x="135" y="581"/>
      <point x="171" y="499"/>
      <point x="207" y="418" type="curve" smooth="yes"/>
      <point x="267" y="282"/>
      <point x="325" y="148"/>
      <point x="378" y="7" type="curve" smooth="yes"/>
      <point x="381" y="-1"/>
      <point x="387" y="-8"/>
    </contour>
  </outline>
</glyph>
<glyph name="W" format="1">
  <advance width="1071"/>
  <unicode hex="0057"/>
  <outline>
    <contour>
      <point x="400" y="-8" type="curve" smooth="yes"/>
      <point x="408" y="-8"/>
      <point x="416" y="-1"/>
      <point x="420" y="7" type="curve" smooth="yes"/>
      <point x="421" y="10"/>
      <point x="424" y="18"/>
      <point x="428" y="26" type="curve" smooth="yes"/>
      <point x="562" y="332" type="line"/>
      <point x="630" y="165"/>
      <point x="686" y="16"/>
      <point x="689" y="7" type="curve" smooth="yes"/>
      <point x="691" y="0"/>
      <point x="698" y="-8"/>
      <point x="707" y="-8" type="curve" smooth="yes"/>
      <point x="715" y="-8"/>
      <point x="722" y="-1"/>
      <point x="726" y="7" type="curve" smooth="yes"/>
      <point x="728" y="10"/>
      <point x="732" y="19"/>
      <point x="735" y="26" type="curve"/>
      <point x="750" y="66"/>
      <point x="882" y="409"/>
      <point x="979" y="656" type="curve" smooth="yes"/>
      <point x="990" y="684"/>
      <point x="998" y="696"/>
      <point x="1029" y="700" type="curve" smooth="yes"/>
      <point x="1036" y="701" type="line"/>
      <point x="1038" y="705"/>
      <point x="1039" y="709"/>
      <point x="1039" y="715" type="curve" smooth="yes"/>
      <point x="1039" y="722"/>
      <point x="1038" y="726"/>
      <point x="1036" y="730" type="curve"/>
      <point x="863" y="730" type="line"/>
      <point x="861" y="726"/>
      <point x="859" y="722"/>
      <point x="859" y="716" type="curve" smooth="yes"/>
      <point x="859" y="710"/>
      <point x="861" y="705"/>
      <point x="863" y="701" type="curve"/>
      <point x="870" y="701" type="line" smooth="yes"/>
      <point x="890" y="701"/>
      <point x="913" y="686"/>
      <point x="913" y="668" type="curve" smooth="yes"/>
      <point x="913" y="661"/>
      <point x="910" y="652"/>
      <point x="907" y="645" type="curve"/>
      <point x="837" y="474"/>
      <point x="783" y="343"/>
      <point x="712" y="174" type="curve"/>
      <point x="608" y="432" type="line"/>
      <point x="717" y="662" type="line" smooth="yes"/>
      <point x="724" y="677"/>
      <point x="736" y="701"/>
      <point x="762" y="701" type="curve" smooth="yes"/>
      <point x="770" y="701" type="line"/>
      <point x="772" y="705"/>
      <point x="773" y="710"/>
      <point x="773" y="716" type="curve" smooth="yes"/>
      <point x="773" y="723"/>
      <point x="772" y="726"/>
      <point x="769" y="730" type="curve"/>
      <point x="605" y="730" type="line"/>
      <point x="603" y="728"/>
      <point x="600" y="722"/>
      <point x="600" y="716" type="curve" smooth="yes"/>
      <point x="600" y="710"/>
      <point x="603" y="704"/>
      <point x="605" y="701" type="curve"/>
      <point x="612" y="701" type="line" smooth="yes"/>
      <point x="631" y="701"/>
      <point x="653" y="688"/>
      <point x="653" y="670" type="curve" smooth="yes"/>
      <point x="653" y="663"/>
      <point x="651" y="658"/>
      <point x="645" y="645" type="curve"/>
      <point x="622" y="592"/>
      <point x="600" y="543"/>
      <point x="573" y="489" type="curve"/>
      <point x="506" y="649" type="line"/>
      <point x="502" y="658"/>
      <point x="501" y="663"/>
      <point x="501" y="668" type="curve" smooth="yes"/>
      <point x="501" y="686"/>
      <point x="522" y="701"/>
      <point x="543" y="701" type="curve" smooth="yes"/>
      <point x="550" y="701" type="line"/>
      <point x="551" y="704"/>
      <point x="553" y="710"/>
      <point x="553" y="716" type="curve" smooth="yes"/>
      <point x="553" y="723"/>
      <point x="551" y="728"/>
      <point x="550" y="730" type="curve"/>
      <point x="356" y="730" type="line"/>
      <point x="354" y="728"/>
      <point x="352" y="722"/>
      <point x="352" y="716" type="curve" smooth="yes"/>
      <point x="352" y="710"/>
      <point x="354" y="704"/>
      <point x="356" y="701" type="curve"/>
      <point x="364" y="701" type="line" smooth="yes"/>
      <point x="381" y="701"/>
      <point x="397" y="689"/>
      <point x="407" y="665" type="curve" smooth="yes"/>
      <point x="521" y="395" type="line"/>
      <point x="424" y="171" type="line"/>
      <point x="232" y="652" type="line"/>
      <point x="230" y="657"/>
      <point x="229" y="660"/>
      <point x="229" y="665" type="curve" smooth="yes"/>
      <point x="229" y="686"/>
      <point x="253" y="701"/>
      <point x="275" y="701" type="curve" smooth="yes"/>
      <point x="281" y="701" type="line"/>
      <point x="282" y="704"/>
      <point x="284" y="710"/>
      <point x="284" y="716" type="curve" smooth="yes"/>
      <point x="284" y="723"/>
      <point x="282" y="728"/>
      <point x="281" y="730" type="curve"/>
      <point x="60" y="730" type="line"/>
      <point x="58" y="728"/>
      <point x="55" y="722"/>
      <point x="55" y="716" type="curve" smooth="yes"/>
      <point x="55" y="710"/>
      <point x="58" y="704"/>
      <point x="60" y="701" type="curve"/>
      <point x="67" y="700" type="line" smooth="yes"/>
      <point x="95" y="696"/>
      <point x="99" y="690"/>
      <point x="111" y="663" type="curve" smooth="yes"/>
      <point x="118" y="647" type="line" smooth="yes"/>
      <point x="192" y="477"/>
      <point x="377" y="23"/>
      <point x="382" y="7" type="curve" smooth="yes"/>
      <point x="384" y="0"/>
      <point x="392" y="-8"/>
    </contour>
  </outline>
</glyph>
<glyph name="X" format="1">
  <advance width="789"/>
  <unicode hex="0058"/>
  <unicode hex="03A7"/>
  <outline>
    <contour>
      <point x="339" y="361" type="curve"/>
      <point x="519" y="89" type="line"/>
      <point x="529" y="75"/>
      <point x="539" y="60"/>
      <point x="539" y="52" type="curve" smooth="yes"/>
      <point x="539" y="43"/>
      <point x="529" y="35"/>
      <point x="518" y="32" type="curve" smooth="yes"/>
      <point x="511" y="30"/>
      <point x="505" y="29"/>
      <point x="497" y="29" type="curve" smooth="yes"/>
      <point x="491" y="29" type="line"/>
      <point x="489" y="26"/>
      <point x="486" y="21"/>
      <point x="486" y="15" type="curve" smooth="yes"/>
      <point x="486" y="9"/>
      <point x="489" y="3"/>
      <point x="491" y="0" type="curve"/>
      <point x="725" y="0" type="line"/>
      <point x="726" y="3"/>
      <point x="728" y="9"/>
      <point x="728" y="15" type="curve" smooth="yes"/>
      <point x="728" y="22"/>
      <point x="726" y="27"/>
      <point x="725" y="29" type="curve"/>
      <point x="719" y="29" type="line" smooth="yes"/>
      <point x="711" y="29"/>
      <point x="703" y="31"/>
      <point x="695" y="34" type="curve" smooth="yes"/>
      <point x="687" y="37"/>
      <point x="677" y="50"/>
      <point x="668" y="62" type="curve" smooth="yes"/>
      <point x="646" y="91"/>
      <point x="614" y="138"/>
      <point x="578" y="196" type="curve" smooth="yes"/>
      <point x="529" y="276"/>
      <point x="486" y="340"/>
      <point x="430" y="419" type="curve"/>
      <point x="401" y="447" type="line"/>
      <point x="268" y="645" type="line" smooth="yes"/>
      <point x="259" y="659"/>
      <point x="257" y="668"/>
      <point x="257" y="673" type="curve" smooth="yes"/>
      <point x="257" y="680"/>
      <point x="262" y="695"/>
      <point x="274" y="698" type="curve" smooth="yes"/>
      <point x="281" y="700"/>
      <point x="290" y="701"/>
      <point x="298" y="701" type="curve" smooth="yes"/>
      <point x="305" y="701" type="line"/>
      <point x="306" y="704"/>
      <point x="308" y="710"/>
      <point x="308" y="716" type="curve" smooth="yes"/>
      <point x="308" y="723"/>
      <point x="306" y="728"/>
      <point x="305" y="730" type="curve"/>
      <point x="70" y="730" type="line"/>
      <point x="68" y="727"/>
      <point x="65" y="722"/>
      <point x="65" y="716" type="curve" smooth="yes"/>
      <point x="65" y="710"/>
      <point x="68" y="704"/>
      <point x="70" y="701" type="curve"/>
      <point x="77" y="701" type="line" smooth="yes"/>
      <point x="84" y="701"/>
      <point x="95" y="700"/>
      <point x="102" y="697" type="curve" smooth="yes"/>
      <point x="110" y="693"/>
      <point x="118" y="682"/>
      <point x="126" y="671" type="curve" smooth="yes"/>
      <point x="141" y="649"/>
      <point x="160" y="621"/>
      <point x="183" y="586" type="curve" smooth="yes"/>
      <point x="223" y="526"/>
      <point x="275" y="448"/>
    </contour>
    <contour>
      <point x="382" y="447" type="line"/>
      <point x="429" y="393" type="line"/>
      <point x="631" y="658" type="line" smooth="yes"/>
      <point x="643" y="674"/>
      <point x="657" y="692"/>
      <point x="669" y="697" type="curve" smooth="yes"/>
      <point x="676" y="700"/>
      <point x="685" y="701"/>
      <point x="693" y="701" type="curve" smooth="yes"/>
      <point x="701" y="701" type="line"/>
      <point x="702" y="704"/>
      <point x="704" y="710"/>
      <point x="704" y="716" type="curve" smooth="yes"/>
      <point x="704" y="723"/>
      <point x="702" y="728"/>
      <point x="701" y="730" type="curve"/>
      <point x="521" y="730" type="line"/>
      <point x="519" y="727"/>
      <point x="516" y="722"/>
      <point x="516" y="716" type="curve" smooth="yes"/>
      <point x="516" y="710"/>
      <point x="519" y="704"/>
      <point x="521" y="701" type="curve"/>
      <point x="528" y="701" type="line" smooth="yes"/>
      <point x="548" y="701"/>
      <point x="562" y="695"/>
      <point x="562" y="683" type="curve" smooth="yes"/>
      <point x="562" y="676"/>
      <point x="556" y="667"/>
      <point x="544" y="651" type="curve"/>
    </contour>
    <contour>
      <point x="369" y="343" type="curve"/>
      <point x="335" y="390" type="line"/>
      <point x="101" y="72" type="line" smooth="yes"/>
      <point x="89" y="56"/>
      <point x="75" y="38"/>
      <point x="67" y="34" type="curve" smooth="yes"/>
      <point x="59" y="30"/>
      <point x="51" y="29"/>
      <point x="43" y="29" type="curve" smooth="yes"/>
      <point x="36" y="29" type="line"/>
      <point x="34" y="26"/>
      <point x="31" y="21"/>
      <point x="31" y="15" type="curve" smooth="yes"/>
      <point x="31" y="9"/>
      <point x="34" y="3"/>
      <point x="36" y="0" type="curve"/>
      <point x="213" y="0" type="line"/>
      <point x="214" y="3"/>
      <point x="216" y="9"/>
      <point x="216" y="15" type="curve" smooth="yes"/>
      <point x="216" y="22"/>
      <point x="214" y="27"/>
      <point x="213" y="29" type="curve"/>
      <point x="206" y="29" type="line" smooth="yes"/>
      <point x="198" y="29"/>
      <point x="190" y="31"/>
      <point x="184" y="33" type="curve" smooth="yes"/>
      <point x="173" y="37"/>
      <point x="169" y="48"/>
      <point x="169" y="53" type="curve" smooth="yes"/>
      <point x="169" y="58"/>
      <point x="173" y="67"/>
      <point x="188" y="87" type="curve"/>
      <point x="216" y="125"/>
      <point x="241" y="161"/>
      <point x="266" y="198" type="curve" smooth="yes"/>
      <point x="299" y="247"/>
      <point x="329" y="291"/>
    </contour>
  </outline>
</glyph>
<glyph name="Y" format="1">
  <advance width="712"/>
  <unicode hex="0059"/>
  <outline>
    <contour>
      <point x="247" y="0" type="curve"/>
      <point x="468" y="0" type="line"/>
      <point x="469" y="3"/>
      <point x="471" y="9"/>
      <point x="471" y="15" type="curve" smooth="yes"/>
      <point x="471" y="22"/>
      <point x="469" y="27"/>
      <point x="468" y="29" type="curve"/>
      <point x="453" y="29" type="line" smooth="yes"/>
      <point x="428" y="29"/>
      <point x="417" y="45"/>
      <point x="416" y="66" type="curve" smooth="yes"/>
      <point x="413" y="133"/>
      <point x="413" y="192"/>
      <point x="413" y="259" type="curve" smooth="yes"/>
      <point x="413" y="300"/>
      <point x="413" y="347"/>
      <point x="413" y="393" type="curve"/>
      <point x="618" y="672" type="line"/>
      <point x="625" y="682"/>
      <point x="642" y="701"/>
      <point x="666" y="701" type="curve" smooth="yes"/>
      <point x="673" y="701" type="line"/>
      <point x="674" y="704"/>
      <point x="676" y="710"/>
      <point x="676" y="716" type="curve" smooth="yes"/>
      <point x="676" y="723"/>
      <point x="674" y="728"/>
      <point x="673" y="730" type="curve"/>
      <point x="514" y="730" type="line"/>
      <point x="512" y="727"/>
      <point x="509" y="722"/>
      <point x="509" y="716" type="curve" smooth="yes"/>
      <point x="509" y="710"/>
      <point x="512" y="704"/>
      <point x="514" y="701" type="curve"/>
      <point x="521" y="701" type="line" smooth="yes"/>
      <point x="535" y="701"/>
      <point x="558" y="688"/>
      <point x="558" y="678" type="curve" smooth="yes"/>
      <point x="558" y="672"/>
      <point x="555" y="662"/>
      <point x="540" y="643" type="curve" smooth="yes"/>
      <point x="384" y="443" type="line"/>
      <point x="242" y="649" type="line" smooth="yes"/>
      <point x="233" y="663"/>
      <point x="231" y="669"/>
      <point x="231" y="675" type="curve" smooth="yes"/>
      <point x="231" y="687"/>
      <point x="256" y="701"/>
      <point x="272" y="701" type="curve" smooth="yes"/>
      <point x="278" y="701" type="line"/>
      <point x="279" y="704"/>
      <point x="281" y="710"/>
      <point x="281" y="716" type="curve" smooth="yes"/>
      <point x="281" y="723"/>
      <point x="279" y="728"/>
      <point x="278" y="730" type="curve"/>
      <point x="49" y="730" type="line"/>
      <point x="47" y="727"/>
      <point x="44" y="722"/>
      <point x="44" y="716" type="curve" smooth="yes"/>
      <point x="44" y="710"/>
      <point x="47" y="704"/>
      <point x="49" y="701" type="curve"/>
      <point x="56" y="700" type="line" smooth="yes"/>
      <point x="72" y="698"/>
      <point x="90" y="689"/>
      <point x="103" y="671" type="curve" smooth="yes"/>
      <point x="124" y="642"/>
      <point x="155" y="597"/>
      <point x="193" y="541" type="curve" smooth="yes"/>
      <point x="225" y="494"/>
      <point x="266" y="434"/>
      <point x="301" y="383" type="curve"/>
      <point x="303" y="344"/>
      <point x="303" y="300"/>
      <point x="303" y="259" type="curve" smooth="yes"/>
      <point x="303" y="192"/>
      <point x="302" y="133"/>
      <point x="299" y="65" type="curve" smooth="yes"/>
      <point x="298" y="46"/>
      <point x="278" y="29"/>
      <point x="254" y="29" type="curve" smooth="yes"/>
      <point x="247" y="29" type="line"/>
      <point x="245" y="26"/>
      <point x="242" y="21"/>
      <point x="242" y="15" type="curve" smooth="yes"/>
      <point x="242" y="9"/>
      <point x="245" y="3"/>
    </contour>
  </outline>
</glyph>
<glyph name="Z" format="1">
  <advance width="680"/>
  <unicode hex="005A"/>
  <outline>
    <contour>
      <point x="77" y="0" type="curve" smooth="yes"/>
      <point x="544" y="0" type="line"/>
      <point x="594" y="177" type="line"/>
      <point x="561" y="177" type="line"/>
      <point x="551" y="146"/>
      <point x="522" y="65"/>
      <point x="436" y="53" type="curve" smooth="yes"/>
      <point x="384" y="46"/>
      <point x="334" y="46"/>
      <point x="288" y="46" type="curve" smooth="yes"/>
      <point x="247" y="46"/>
      <point x="206" y="48"/>
      <point x="170" y="52" type="curve"/>
      <point x="604" y="662" type="line" smooth="yes"/>
      <point x="611" y="671"/>
      <point x="615" y="688"/>
      <point x="615" y="697" type="curve" smooth="yes"/>
      <point x="615" y="716"/>
      <point x="612" y="725"/>
      <point x="609" y="730" type="curve"/>
      <point x="173" y="730" type="line" smooth="yes"/>
      <point x="170" y="730"/>
      <point x="165" y="731"/>
      <point x="158" y="733" type="curve" smooth="yes"/>
      <point x="153" y="734"/>
      <point x="147" y="735"/>
      <point x="142" y="735" type="curve" smooth="yes"/>
      <point x="137" y="735"/>
      <point x="128" y="734"/>
      <point x="126" y="725" type="curve" smooth="yes"/>
      <point x="93" y="566" type="line"/>
      <point x="124" y="568" type="line"/>
      <point x="125" y="573" type="line" smooth="yes"/>
      <point x="137" y="631"/>
      <point x="168" y="663"/>
      <point x="235" y="677" type="curve" smooth="yes"/>
      <point x="277" y="686"/>
      <point x="305" y="687"/>
      <point x="366" y="687" type="curve"/>
      <point x="412" y="687"/>
      <point x="474" y="685"/>
      <point x="503" y="684" type="curve"/>
      <point x="51" y="56" type="line"/>
      <point x="47" y="50"/>
      <point x="44" y="37"/>
      <point x="44" y="30" type="curve" smooth="yes"/>
      <point x="44" y="8"/>
      <point x="69" y="0"/>
    </contour>
  </outline>
</glyph>
<glyph name="bracketleft" format="1">
  <advance width="311"/>
  <unicode hex="005B"/>
  <outline>
    <contour>
      <point x="93" y="-128" type="curve" smooth="yes"/>
      <point x="258" y="-128" type="line" smooth="yes"/>
      <point x="272" y="-128"/>
      <point x="274" y="-109"/>
      <point x="274" y="-100" type="curve" smooth="yes"/>
      <point x="274" y="-91"/>
      <point x="272" y="-74"/>
      <point x="258" y="-74" type="curve" smooth="yes"/>
      <point x="155" y="-74" type="line"/>
      <point x="155" y="735" type="line"/>
      <point x="258" y="735" type="line" smooth="yes"/>
      <point x="272" y="735"/>
      <point x="274" y="754"/>
      <point x="274" y="763" type="curve" smooth="yes"/>
      <point x="274" y="772"/>
      <point x="272" y="789"/>
      <point x="258" y="789" type="curve" smooth="yes"/>
      <point x="97" y="789" type="line" smooth="yes"/>
      <point x="79" y="789"/>
      <point x="67" y="779"/>
      <point x="67" y="761" type="curve" smooth="yes"/>
      <point x="67" y="-101" type="line" smooth="yes"/>
      <point x="67" y="-118"/>
      <point x="77" y="-128"/>
    </contour>
  </outline>
</glyph>
<glyph name="backslash" format="1">
  <advance width="418"/>
  <unicode hex="005C"/>
  <outline>
    <contour>
      <point x="316" y="-110" type="curve" smooth="yes"/>
      <point x="327" y="-110"/>
      <point x="359" y="-107"/>
      <point x="368" y="-102" type="curve" smooth="yes"/>
      <point x="374" y="-99" type="line"/>
      <point x="372" y="-94" type="line" smooth="yes"/>
      <point x="271" y="185"/>
      <point x="198" y="421"/>
      <point x="126" y="678" type="curve" smooth="yes"/>
      <point x="123" y="682" type="line" smooth="yes"/>
      <point x="105" y="696"/>
      <point x="89" y="703"/>
      <point x="74" y="703" type="curve" smooth="yes"/>
      <point x="58" y="703"/>
      <point x="36" y="693"/>
      <point x="36" y="676" type="curve" smooth="yes"/>
      <point x="36" y="674" type="line" smooth="yes"/>
      <point x="124" y="428"/>
      <point x="271" y="-45"/>
      <point x="275" y="-59" type="curve"/>
      <point x="286" y="-95"/>
      <point x="292" y="-110"/>
    </contour>
  </outline>
</glyph>
<glyph name="underscore" format="1">
  <advance width="429"/>
  <unicode hex="005F"/>
  <outline>
    <contour>
      <point x="70" y="-8" type="line" smooth="yes"/>
      <point x="55" y="-8"/>
      <point x="53" y="13"/>
      <point x="53" y="23" type="curve" smooth="yes"/>
      <point x="53" y="33"/>
      <point x="55" y="56"/>
      <point x="70" y="56" type="curve" smooth="yes"/>
      <point x="358" y="56" type="line" smooth="yes"/>
      <point x="372" y="56"/>
      <point x="374" y="33"/>
      <point x="374" y="23" type="curve" smooth="yes"/>
      <point x="374" y="13"/>
      <point x="373" y="-8"/>
      <point x="358" y="-8" type="curve" smooth="yes"/>
    </contour>
  </outline>
</glyph>
<glyph name="grave" format="1">
  <advance width="270"/>
  <unicode hex="0060"/>
  <outline>
    <contour>
      <point x="118" y="566" type="curve"/>
      <point x="141" y="567" type="line"/>
      <point x="120" y="597"/>
      <point x="97" y="631"/>
      <point x="75" y="664" type="curve" smooth="yes"/>
      <point x="54" y="696"/>
      <point x="36" y="723"/>
      <point x="29" y="731" type="curve" smooth="yes"/>
      <point x="19" y="743"/>
      <point x="6" y="747"/>
      <point x="-7" y="747" type="curve" smooth="yes"/>
      <point x="-29" y="747"/>
      <point x="-52" y="734"/>
      <point x="-52" y="713" type="curve"/>
      <point x="-52" y="692"/>
      <point x="-32" y="672"/>
      <point x="-19" y="659" type="curve" smooth="yes"/>
      <point x="-6" y="646"/>
      <point x="72" y="595"/>
    </contour>
    <contour>
      <point x="147" y="507" type="move" name="_top"/>
    </contour>
  </outline>
</glyph>
<glyph name="a" format="1">
  <advance width="553"/>
  <unicode hex="0061"/>
  <outline>
    <contour>
      <point x="402" y="-7" type="curve" smooth="yes"/>
      <point x="442" y="-7"/>
      <point x="471" y="5"/>
      <point x="503" y="21" type="curve"/>
      <point x="500" y="58" type="line"/>
      <point x="481" y="52"/>
      <point x="459" y="48"/>
      <point x="448" y="48" type="curve"/>
      <point x="463" y="33" type="line"/>
      <point x="463" y="364" type="line" smooth="yes"/>
      <point x="463" y="417"/>
      <point x="418" y="512"/>
      <point x="268" y="512" type="curve" smooth="yes"/>
      <point x="197" y="512"/>
      <point x="138" y="505"/>
      <point x="87" y="436" type="curve" smooth="yes"/>
      <point x="84" y="432"/>
      <point x="81" y="423"/>
      <point x="81" y="417" type="curve" smooth="yes"/>
      <point x="81" y="394"/>
      <point x="108" y="380"/>
      <point x="127" y="380" type="curve" smooth="yes"/>
      <point x="164" y="380"/>
      <point x="184" y="404"/>
      <point x="201" y="428" type="curve" smooth="yes"/>
      <point x="217" y="451"/>
      <point x="234" y="471"/>
      <point x="265" y="471" type="curve" smooth="yes"/>
      <point x="320" y="471"/>
      <point x="347" y="445"/>
      <point x="364" y="390" type="curve" smooth="yes"/>
      <point x="369" y="375"/>
      <point x="369" y="327"/>
      <point x="369" y="305" type="curve"/>
      <point x="359" y="277" type="line"/>
      <point x="359" y="36" type="line"/>
      <point x="359" y="29"/>
      <point x="359" y="-7"/>
    </contour>
    <contour>
      <point x="208" y="-10" type="curve" smooth="yes"/>
      <point x="275" y="-10"/>
      <point x="309" y="2"/>
      <point x="372" y="37" type="curve"/>
      <point x="372" y="89" type="line"/>
      <point x="337" y="60"/>
      <point x="311" y="41"/>
      <point x="253" y="41" type="curve" smooth="yes"/>
      <point x="190" y="41"/>
      <point x="156" y="64"/>
      <point x="156" y="121" type="curve" smooth="yes"/>
      <point x="156" y="195"/>
      <point x="251" y="230"/>
      <point x="378" y="269" type="curve"/>
      <point x="382" y="321" type="line"/>
      <point x="251" y="283"/>
      <point x="51" y="224"/>
      <point x="51" y="110" type="curve" smooth="yes"/>
      <point x="51" y="11"/>
      <point x="127" y="-10"/>
    </contour>
    <contour>
      <point x="250" y="-11" type="move" name="bottom"/>
    </contour>
    <contour>
      <point x="270" y="514" type="move" name="top"/>
    </contour>
  </outline>
</glyph>
<glyph name="b" format="1">
  <advance width="579"/>
  <unicode hex="0062"/>
  <outline>
    <contour>
      <point x="290" y="-10" type="curve" smooth="yes"/>
      <point x="445" y="-10"/>
      <point x="537" y="58"/>
      <point x="537" y="245" type="curve" smooth="yes"/>
      <point x="537" y="431"/>
      <point x="429" y="512"/>
      <point x="291" y="512" type="curve" smooth="yes"/>
      <point x="237" y="512"/>
      <point x="216" y="497"/>
      <point x="181" y="472" type="curve"/>
      <point x="181" y="428" type="line"/>
      <point x="214" y="456"/>
      <point x="250" y="468"/>
      <point x="284" y="468" type="curve" smooth="yes"/>
      <point x="397" y="468"/>
      <point x="437" y="371"/>
      <point x="437" y="229" type="curve" smooth="yes"/>
      <point x="437" y="117"/>
      <point x="389" y="31"/>
      <point x="301" y="31" type="curve" smooth="yes"/>
      <point x="231" y="31"/>
      <point x="201" y="76"/>
      <point x="187" y="144" type="curve"/>
      <point x="162" y="32" type="line"/>
      <point x="215" y="-1"/>
      <point x="243" y="-10"/>
    </contour>
    <contour>
      <point x="51" y="-4" type="line"/>
      <point x="58" y="-4" type="line" smooth="yes"/>
      <point x="128" y="-4"/>
      <point x="181" y="5"/>
      <point x="191" y="38" type="curve"/>
      <point x="191" y="721" type="line" smooth="yes"/>
      <point x="191" y="731"/>
      <point x="191" y="748"/>
      <point x="178" y="748" type="curve" smooth="yes"/>
      <point x="177" y="748"/>
      <point x="176" y="748"/>
      <point x="173" y="747" type="curve" smooth="yes"/>
      <point x="53" y="721" type="line"/>
      <point x="53" y="695" type="line"/>
      <point x="60" y="695" type="line" smooth="yes"/>
      <point x="77" y="695"/>
      <point x="87" y="685"/>
      <point x="87" y="664" type="curve" smooth="yes"/>
      <point x="87" y="50" type="line"/>
      <point x="87" y="39"/>
      <point x="74" y="25"/>
      <point x="58" y="25" type="curve" smooth="yes"/>
      <point x="51" y="25" type="line"/>
    </contour>
    <contour>
      <point x="296" y="-14" type="move" name="bottom"/>
    </contour>
    <contour>
      <point x="115" y="746" type="move" name="top"/>
    </contour>
  </outline>
</glyph>
<glyph name="c" format="1">
  <advance width="527"/>
  <unicode hex="0063"/>
  <outline>
    <contour>
      <point x="292" y="-10" type="curve" smooth="yes"/>
      <point x="392" y="-10"/>
      <point x="434" y="19"/>
      <point x="493" y="77" type="curve"/>
      <point x="472" y="102" type="line"/>
      <point x="417" y="57"/>
      <point x="372" y="40"/>
      <point x="318" y="40" type="curve" smooth="yes"/>
      <point x="199" y="40"/>
      <point x="158" y="187"/>
      <point x="158" y="279" type="curve" smooth="yes"/>
      <point x="158" y="394"/>
      <point x="212" y="483"/>
      <point x="286" y="483" type="curve" smooth="yes"/>
      <point x="331" y="483"/>
      <point x="348" y="454"/>
      <point x="364" y="426" type="curve" smooth="yes"/>
      <point x="379" y="399"/>
      <point x="394" y="372"/>
      <point x="432" y="372" type="curve" smooth="yes"/>
      <point x="451" y="372"/>
      <point x="485" y="392"/>
      <point x="485" y="415" type="curve" smooth="yes"/>
      <point x="485" y="421"/>
      <point x="482" y="426"/>
      <point x="478" y="430" type="curve" smooth="yes"/>
      <point x="416" y="492"/>
      <point x="357" y="513"/>
      <point x="297" y="513" type="curve" smooth="yes"/>
      <point x="74" y="513"/>
      <point x="46" y="360"/>
      <point x="46" y="266" type="curve" smooth="yes"/>
      <point x="46" y="62"/>
      <point x="164" y="-10"/>
    </contour>
    <contour>
      <point x="280" y="-13" type="move" name="bottom"/>
    </contour>
    <contour>
      <point x="278" y="520" type="move" name="top"/>
    </contour>
  </outline>
</glyph>
<glyph name="d" format="1">
  <advance width="573"/>
  <unicode hex="0064"/>
  <outline>
    <contour>
      <point x="271" y="-10" type="curve" smooth="yes"/>
      <point x="327" y="-10"/>
      <point x="355" y="4"/>
      <point x="395" y="30" type="curve"/>
      <point x="395" y="77" type="line"/>
      <point x="353" y="48"/>
      <point x="325" y="34"/>
      <point x="289" y="34" type="curve" smooth="yes"/>
      <point x="179" y="34"/>
      <point x="137" y="132"/>
      <point x="137" y="275" type="curve" smooth="yes"/>
      <point x="137" y="386"/>
      <point x="187" y="482"/>
      <point x="269" y="482" type="curve" smooth="yes"/>
      <point x="345" y="482"/>
      <point x="376" y="443"/>
      <point x="386" y="370" type="curve"/>
      <point x="400" y="483" type="line"/>
      <point x="351" y="504"/>
      <point x="329" y="513"/>
      <point x="268" y="513" type="curve" smooth="yes"/>
      <point x="119" y="513"/>
      <point x="37" y="428"/>
      <point x="37" y="264" type="curve" smooth="yes"/>
      <point x="37" y="64"/>
      <point x="140" y="-10"/>
    </contour>
    <contour>
      <point x="418" y="-7" type="curve" smooth="yes"/>
      <point x="448" y="-7"/>
      <point x="499" y="8"/>
      <point x="528" y="21" type="curve"/>
      <point x="524" y="58" type="line"/>
      <point x="514" y="55"/>
      <point x="498" y="52"/>
      <point x="487" y="50" type="curve"/>
      <point x="487" y="52"/>
      <point x="487" y="73"/>
      <point x="487" y="723" type="curve" smooth="yes"/>
      <point x="487" y="732"/>
      <point x="487" y="738"/>
      <point x="483" y="743" type="curve" smooth="yes"/>
      <point x="481" y="746"/>
      <point x="477" y="748"/>
      <point x="474" y="748" type="curve" smooth="yes"/>
      <point x="473" y="748"/>
      <point x="469" y="747"/>
      <point x="465" y="746" type="curve"/>
      <point x="348" y="721" type="line"/>
      <point x="348" y="695" type="line"/>
      <point x="355" y="695" type="line" smooth="yes"/>
      <point x="373" y="695"/>
      <point x="383" y="686"/>
      <point x="383" y="664" type="curve" smooth="yes"/>
      <point x="383" y="37" type="line" smooth="yes"/>
      <point x="383" y="34"/>
      <point x="384" y="-7"/>
    </contour>
    <contour>
      <point x="266" y="-18" type="move" name="bottom"/>
    </contour>
    <contour>
      <point x="428" y="736" type="move" name="top"/>
    </contour>
  </outline>
</glyph>
<glyph name="e" format="1">
  <advance width="546"/>
  <unicode hex="0065"/>
  <outline>
    <contour>
      <point x="166" y="355" type="curve"/>
      <point x="168" y="309" type="line"/>
      <point x="161" y="302"/>
      <point x="160" y="247"/>
      <point x="160" y="221" type="curve" smooth="yes"/>
      <point x="160" y="142"/>
      <point x="197" y="39"/>
      <point x="318" y="39" type="curve" smooth="yes"/>
      <point x="364" y="39"/>
      <point x="427" y="57"/>
      <point x="476" y="101" type="curve"/>
      <point x="496" y="76" type="line"/>
      <point x="442" y="16"/>
      <point x="390" y="-11"/>
      <point x="305" y="-11" type="curve" smooth="yes"/>
      <point x="163" y="-11"/>
      <point x="51" y="64"/>
      <point x="51" y="249" type="curve" smooth="yes"/>
      <point x="51" y="431"/>
      <point x="146" y="512"/>
      <point x="298" y="512" type="curve" smooth="yes"/>
      <point x="420" y="512"/>
      <point x="502" y="415"/>
      <point x="502" y="318" type="curve" smooth="yes"/>
      <point x="502" y="312"/>
      <point x="502" y="308"/>
      <point x="502" y="302" type="curve"/>
      <point x="149" y="302" type="line"/>
      <point x="152" y="367" type="line"/>
      <point x="197" y="360"/>
      <point x="214" y="358"/>
      <point x="284" y="358" type="curve" smooth="yes"/>
      <point x="316" y="358"/>
      <point x="370" y="359"/>
      <point x="399" y="361" type="curve"/>
      <point x="394" y="419"/>
      <point x="353" y="480"/>
      <point x="293" y="480" type="curve" smooth="yes"/>
      <point x="208" y="480"/>
      <point x="166" y="395"/>
    </contour>
  </outline>
</glyph>
<glyph name="f" format="1">
  <advance width="496"/>
  <unicode hex="0066"/>
  <outline>
    <contour>
      <point x="107" y="467" type="line"/>
      <point x="107" y="498"/>
      <point x="107" y="542"/>
      <point x="107" y="556" type="curve" smooth="yes"/>
      <point x="107" y="704"/>
      <point x="190" y="766"/>
      <point x="334" y="766" type="curve" smooth="yes"/>
      <point x="378" y="766"/>
      <point x="435" y="757"/>
      <point x="473" y="707" type="curve" smooth="yes"/>
      <point x="476" y="703"/>
      <point x="479" y="692"/>
      <point x="479" y="687" type="curve" smooth="yes"/>
      <point x="479" y="666"/>
      <point x="448" y="655"/>
      <point x="433" y="655" type="curve" smooth="yes"/>
      <point x="401" y="655"/>
      <point x="389" y="674"/>
      <point x="377" y="693" type="curve" smooth="yes"/>
      <point x="365" y="712"/>
      <point x="351" y="731"/>
      <point x="316" y="731" type="curve" smooth="yes"/>
      <point x="252" y="731"/>
      <point x="205" y="676"/>
      <point x="205" y="585" type="curve"/>
      <point x="205" y="493" type="line"/>
      <point x="211" y="468" type="line"/>
      <point x="211" y="53" type="line"/>
      <point x="211" y="42"/>
      <point x="225" y="29"/>
      <point x="240" y="29" type="curve" smooth="yes"/>
      <point x="247" y="29" type="line"/>
      <point x="247" y="0" type="line"/>
      <point x="71" y="0" type="line"/>
      <point x="71" y="29" type="line"/>
      <point x="78" y="29" type="line" smooth="yes"/>
      <point x="93" y="29"/>
      <point x="107" y="42"/>
      <point x="107" y="54" type="curve"/>
    </contour>
    <contour>
      <point x="197" y="456" type="curve"/>
      <point x="194" y="505" type="line"/>
      <point x="305" y="505" type="line" smooth="yes"/>
      <point x="327" y="505"/>
      <point x="342" y="500"/>
      <point x="342" y="486" type="curve" smooth="yes"/>
      <point x="342" y="479"/>
      <point x="336" y="458"/>
      <point x="333" y="453" type="curve"/>
      <point x="319" y="454"/>
      <point x="236" y="456"/>
    </contour>
    <contour>
      <point x="118" y="501" type="line"/>
      <point x="128" y="457" type="line"/>
      <point x="81" y="457"/>
      <point x="70" y="455"/>
      <point x="52" y="451" type="curve"/>
      <point x="60" y="501" type="line"/>
    </contour>
  </outline>
</glyph>
<glyph name="g" format="1">
  <advance width="524"/>
  <unicode hex="0067"/>
  <outline>
    <contour>
      <point x="235" y="-243" type="curve" smooth="yes"/>
      <point x="361" y="-243"/>
      <point x="490" y="-186"/>
      <point x="490" y="-73" type="curve" smooth="yes"/>
      <point x="490" y="13"/>
      <point x="417" y="21"/>
      <point x="318" y="31" type="curve" smooth="yes"/>
      <point x="228" y="40" type="line"/>
      <point x="218" y="41"/>
      <point x="203" y="43"/>
      <point x="191" y="45" type="curve" smooth="yes"/>
      <point x="186" y="46"/>
      <point x="175" y="50"/>
      <point x="175" y="56" type="curve" smooth="yes"/>
      <point x="175" y="61"/>
      <point x="181" y="66"/>
      <point x="186" y="67" type="curve" smooth="yes"/>
      <point x="206" y="71"/>
      <point x="225" y="75"/>
      <point x="244" y="79" type="curve" smooth="yes"/>
      <point x="345" y="101"/>
      <point x="433" y="135"/>
      <point x="433" y="288" type="curve" smooth="yes"/>
      <point x="433" y="344"/>
      <point x="426" y="380"/>
      <point x="403" y="418" type="curve"/>
      <point x="404" y="418"/>
      <point x="410" y="418"/>
      <point x="413" y="418" type="curve" smooth="yes"/>
      <point x="446" y="418"/>
      <point x="478" y="437"/>
      <point x="478" y="468" type="curve" smooth="yes"/>
      <point x="478" y="481"/>
      <point x="468" y="495"/>
      <point x="454" y="495" type="curve" smooth="yes"/>
      <point x="415" y="495"/>
      <point x="389" y="486"/>
      <point x="357" y="466" type="curve"/>
      <point x="323" y="490"/>
      <point x="282" y="500"/>
      <point x="241" y="500" type="curve" smooth="yes"/>
      <point x="227" y="500"/>
      <point x="213" y="500"/>
      <point x="200" y="498" type="curve" smooth="yes"/>
      <point x="113" y="485"/>
      <point x="51" y="429"/>
      <point x="51" y="312" type="curve" smooth="yes"/>
      <point x="51" y="185"/>
      <point x="109" y="129"/>
      <point x="183" y="113" type="curve"/>
      <point x="137" y="101"/>
      <point x="60" y="80"/>
      <point x="60" y="41" type="curve" smooth="yes"/>
      <point x="60" y="15"/>
      <point x="86" y="3"/>
      <point x="115" y="-3" type="curve" smooth="yes"/>
      <point x="130" y="-6"/>
      <point x="148" y="-9"/>
      <point x="172" y="-11" type="curve"/>
      <point x="103" y="-31"/>
      <point x="20" y="-60"/>
      <point x="20" y="-135" type="curve" smooth="yes"/>
      <point x="20" y="-224"/>
      <point x="130" y="-243"/>
    </contour>
    <contour>
      <point x="246" y="-207" type="curve" smooth="yes"/>
      <point x="180" y="-207"/>
      <point x="121" y="-178"/>
      <point x="121" y="-123" type="curve" smooth="yes"/>
      <point x="121" y="-82"/>
      <point x="134" y="-56"/>
      <point x="229" y="-24" type="curve"/>
      <point x="233" y="-24"/>
      <point x="257" y="-25"/>
      <point x="263" y="-26" type="curve" smooth="yes"/>
      <point x="344" y="-35"/>
      <point x="414" y="-51"/>
      <point x="414" y="-102" type="curve" smooth="yes"/>
      <point x="414" y="-153"/>
      <point x="344" y="-207"/>
    </contour>
    <contour>
      <point x="254" y="143" type="curve" smooth="yes"/>
      <point x="188" y="143"/>
      <point x="149" y="210"/>
      <point x="149" y="318" type="curve" smooth="yes"/>
      <point x="149" y="384"/>
      <point x="181" y="458"/>
      <point x="231" y="458" type="curve" smooth="yes"/>
      <point x="300" y="458"/>
      <point x="339" y="392"/>
      <point x="339" y="296" type="curve" smooth="yes"/>
      <point x="339" y="223"/>
      <point x="317" y="143"/>
    </contour>
  </outline>
</glyph>
<glyph name="h" format="1">
  <advance width="584"/>
  <unicode hex="0068"/>
  <outline>
    <contour>
      <point x="51" y="0" type="line"/>
      <point x="227" y="0" type="line"/>
      <point x="227" y="29" type="line"/>
      <point x="220" y="29" type="line" smooth="yes"/>
      <point x="205" y="29"/>
      <point x="191" y="42"/>
      <point x="191" y="54" type="curve"/>
      <point x="191" y="717" type="line" smooth="yes"/>
      <point x="191" y="727"/>
      <point x="191" y="746"/>
      <point x="179" y="746" type="curve" smooth="yes"/>
      <point x="177" y="746"/>
      <point x="172" y="745"/>
      <point x="168" y="744" type="curve"/>
      <point x="53" y="720" type="line"/>
      <point x="53" y="694" type="line"/>
      <point x="60" y="694" type="line" smooth="yes"/>
      <point x="77" y="694"/>
      <point x="87" y="684"/>
      <point x="87" y="662" type="curve" smooth="yes"/>
      <point x="87" y="55" type="line"/>
      <point x="87" y="42"/>
      <point x="74" y="29"/>
      <point x="58" y="29" type="curve" smooth="yes"/>
      <point x="51" y="29" type="line"/>
    </contour>
    <contour>
      <point x="377" y="0" type="line"/>
      <point x="543" y="0" type="line"/>
      <point x="543" y="29" type="line"/>
      <point x="536" y="29" type="line" smooth="yes"/>
      <point x="521" y="29"/>
      <point x="507" y="42"/>
      <point x="507" y="54" type="curve"/>
      <point x="507" y="349" type="line" smooth="yes"/>
      <point x="507" y="459"/>
      <point x="394" y="512"/>
      <point x="306" y="512" type="curve" smooth="yes"/>
      <point x="240" y="512"/>
      <point x="219" y="500"/>
      <point x="175" y="470" type="curve"/>
      <point x="175" y="422" type="line"/>
      <point x="226" y="456"/>
      <point x="252" y="467"/>
      <point x="286" y="467" type="curve" smooth="yes"/>
      <point x="353" y="467"/>
      <point x="413" y="414"/>
      <point x="413" y="348" type="curve" smooth="yes"/>
      <point x="413" y="54" type="line"/>
      <point x="413" y="42"/>
      <point x="400" y="29"/>
      <point x="384" y="29" type="curve" smooth="yes"/>
      <point x="377" y="29" type="line"/>
    </contour>
  </outline>
</glyph>
<glyph name="i" format="1">
  <advance width="285"/>
  <unicode hex="0069"/>
  <outline>
    <contour>
      <point x="57" y="0" type="line"/>
      <point x="233" y="0" type="line"/>
      <point x="233" y="29" type="line"/>
      <point x="226" y="29" type="line" smooth="yes"/>
      <point x="211" y="29"/>
      <point x="197" y="42"/>
      <point x="197" y="53" type="curve"/>
      <point x="197" y="486" type="line" smooth="yes"/>
      <point x="197" y="495"/>
      <point x="197" y="509"/>
      <point x="184" y="509" type="curve" smooth="yes"/>
      <point x="183" y="509"/>
      <point x="181" y="509"/>
      <point x="179" y="509" type="curve" smooth="yes"/>
      <point x="59" y="483" type="line"/>
      <point x="59" y="457" type="line"/>
      <point x="66" y="457" type="line" smooth="yes"/>
      <point x="83" y="457"/>
      <point x="93" y="448"/>
      <point x="93" y="428" type="curve" smooth="yes"/>
      <point x="93" y="53" type="line"/>
      <point x="93" y="41"/>
      <point x="80" y="29"/>
      <point x="64" y="29" type="curve" smooth="yes"/>
      <point x="57" y="29" type="line"/>
    </contour>
    <contour>
      <point x="132" y="601" type="curve" smooth="yes"/>
      <point x="166" y="601"/>
      <point x="194" y="629"/>
      <point x="194" y="663" type="curve" smooth="yes"/>
      <point x="194" y="697"/>
      <point x="166" y="725"/>
      <point x="132" y="725" type="curve" smooth="yes"/>
      <point x="98" y="725"/>
      <point x="70" y="697"/>
      <point x="70" y="663" type="curve" smooth="yes"/>
      <point x="70" y="629"/>
      <point x="98" y="601"/>
    </contour>
  </outline>
</glyph>
<glyph name="j" format="1">
  <advance width="262"/>
  <unicode hex="006A"/>
  <outline>
    <contour>
      <point x="-42" y="-154" type="curve" smooth="yes"/>
      <point x="38" y="-154"/>
      <point x="112" y="-120"/>
      <point x="140" y="-92" type="curve" smooth="yes"/>
      <point x="183" y="-49"/>
      <point x="206" y="-3"/>
      <point x="206" y="50" type="curve" smooth="yes"/>
      <point x="206" y="64"/>
      <point x="206" y="79"/>
      <point x="206" y="93" type="curve" smooth="yes"/>
      <point x="206" y="483" type="line" smooth="yes"/>
      <point x="206" y="493"/>
      <point x="206" y="506"/>
      <point x="192" y="506" type="curve" smooth="yes"/>
      <point x="191" y="506"/>
      <point x="187" y="505"/>
      <point x="183" y="504" type="curve"/>
      <point x="69" y="477" type="line"/>
      <point x="69" y="451" type="line"/>
      <point x="76" y="451" type="line" smooth="yes"/>
      <point x="92" y="451"/>
      <point x="103" y="440"/>
      <point x="103" y="420" type="curve" smooth="yes"/>
      <point x="103" y="33" type="line" smooth="yes"/>
      <point x="103" y="-34"/>
      <point x="101" y="-61"/>
      <point x="50" y="-87" type="curve" smooth="yes"/>
      <point x="40" y="-92"/>
      <point x="31" y="-94"/>
      <point x="23" y="-94" type="curve" smooth="yes"/>
      <point x="9" y="-94"/>
      <point x="-3" y="-88"/>
      <point x="-17" y="-81" type="curve" smooth="yes"/>
      <point x="-30" y="-75"/>
      <point x="-45" y="-69"/>
      <point x="-62" y="-69" type="curve" smooth="yes"/>
      <point x="-91" y="-69"/>
      <point x="-129" y="-86"/>
      <point x="-129" y="-115" type="curve" smooth="yes"/>
      <point x="-129" y="-124"/>
      <point x="-123" y="-138"/>
      <point x="-112" y="-142" type="curve" smooth="yes"/>
      <point x="-87" y="-151"/>
      <point x="-64" y="-154"/>
    </contour>
    <contour>
      <point x="135" y="601" type="curve" smooth="yes"/>
      <point x="169" y="601"/>
      <point x="197" y="629"/>
      <point x="197" y="663" type="curve" smooth="yes"/>
      <point x="197" y="697"/>
      <point x="169" y="725"/>
      <point x="135" y="725" type="curve" smooth="yes"/>
      <point x="101" y="725"/>
      <point x="73" y="697"/>
      <point x="73" y="663" type="curve" smooth="yes"/>
      <point x="73" y="629"/>
      <point x="101" y="601"/>
    </contour>
  </outline>
</glyph>
<glyph name="k" format="1">
  <advance width="571"/>
  <unicode hex="006B"/>
  <outline>
    <contour>
      <point x="51" y="0" type="line"/>
      <point x="227" y="0" type="line"/>
      <point x="227" y="28" type="line"/>
      <point x="220" y="28" type="line"/>
      <point x="204" y="28"/>
      <point x="191" y="41"/>
      <point x="191" y="52" type="curve"/>
      <point x="191" y="279" type="line"/>
      <point x="193" y="281"/>
      <point x="201" y="286"/>
      <point x="205" y="286" type="curve" smooth="yes"/>
      <point x="237" y="286"/>
      <point x="406" y="77"/>
      <point x="406" y="48" type="curve" smooth="yes"/>
      <point x="406" y="37"/>
      <point x="395" y="28"/>
      <point x="387" y="28" type="curve"/>
      <point x="380" y="28" type="line"/>
      <point x="380" y="0" type="line"/>
      <point x="544" y="0" type="line"/>
      <point x="544" y="28" type="line"/>
      <point x="537" y="28" type="line"/>
      <point x="514" y="28"/>
      <point x="502" y="44"/>
      <point x="487" y="65" type="curve" smooth="yes"/>
      <point x="473" y="85"/>
      <point x="447" y="119"/>
      <point x="374" y="209" type="curve" smooth="yes"/>
      <point x="309" y="289"/>
      <point x="289" y="314"/>
      <point x="284" y="327" type="curve"/>
      <point x="346" y="369"/>
      <point x="377" y="396"/>
      <point x="403" y="420" type="curve" smooth="yes"/>
      <point x="420" y="436"/>
      <point x="434" y="448"/>
      <point x="449" y="459" type="curve" smooth="yes"/>
      <point x="459" y="466"/>
      <point x="477" y="477"/>
      <point x="495" y="477" type="curve"/>
      <point x="502" y="477" type="line"/>
      <point x="502" y="507" type="line"/>
      <point x="352" y="507" type="line"/>
      <point x="352" y="477" type="line"/>
      <point x="357" y="477" type="line"/>
      <point x="367" y="477"/>
      <point x="376" y="472"/>
      <point x="376" y="462" type="curve" smooth="yes"/>
      <point x="376" y="451"/>
      <point x="371" y="432"/>
      <point x="315" y="392" type="curve" smooth="yes"/>
      <point x="236" y="336"/>
      <point x="226" y="336"/>
      <point x="218" y="336" type="curve" smooth="yes"/>
      <point x="208" y="336"/>
      <point x="191" y="344"/>
      <point x="191" y="360" type="curve"/>
      <point x="191" y="722" type="line"/>
      <point x="191" y="735"/>
      <point x="190" y="746"/>
      <point x="178" y="746" type="curve" smooth="yes"/>
      <point x="173" y="746"/>
      <point x="166" y="745"/>
      <point x="162" y="744" type="curve"/>
      <point x="53" y="719" type="line"/>
      <point x="53" y="704" type="line"/>
      <point x="60" y="704" type="line"/>
      <point x="78" y="704"/>
      <point x="87" y="694"/>
      <point x="87" y="670" type="curve"/>
      <point x="87" y="53" type="line"/>
      <point x="87" y="42"/>
      <point x="75" y="28"/>
      <point x="58" y="28" type="curve"/>
      <point x="51" y="28" type="line"/>
    </contour>
    <contour>
      <point x="291" y="-5" type="move" name="bottom"/>
    </contour>
    <contour>
      <point x="136" y="740" type="move" name="top"/>
    </contour>
  </outline>
</glyph>
<glyph name="l" format="1">
  <advance width="285"/>
  <unicode hex="006C"/>
  <outline>
    <contour>
      <point x="50" y="0" type="line"/>
      <point x="226" y="0" type="line"/>
      <point x="226" y="29" type="line"/>
      <point x="219" y="29" type="line" smooth="yes"/>
      <point x="204" y="29"/>
      <point x="192" y="42"/>
      <point x="190" y="54" type="curve"/>
      <point x="190" y="742" type="line" smooth="yes"/>
      <point x="190" y="752"/>
      <point x="190" y="769"/>
      <point x="177" y="769" type="curve" smooth="yes"/>
      <point x="176" y="769"/>
      <point x="174" y="769"/>
      <point x="171" y="768" type="curve" smooth="yes"/>
      <point x="52" y="743" type="line"/>
      <point x="52" y="717" type="line"/>
      <point x="59" y="717" type="line" smooth="yes"/>
      <point x="76" y="717"/>
      <point x="86" y="707"/>
      <point x="86" y="686" type="curve" smooth="yes"/>
      <point x="86" y="54" type="line"/>
      <point x="84" y="43"/>
      <point x="73" y="29"/>
      <point x="57" y="29" type="curve" smooth="yes"/>
      <point x="50" y="29" type="line"/>
    </contour>
  </outline>
</glyph>
<glyph name="m" format="1">
  <advance width="899"/>
  <unicode hex="006D"/>
  <outline>
    <contour>
      <point x="373" y="0" type="line"/>
      <point x="545" y="0" type="line"/>
      <point x="545" y="28" type="line"/>
      <point x="539" y="28" type="line" smooth="yes"/>
      <point x="523" y="28"/>
      <point x="509" y="41"/>
      <point x="509" y="52" type="curve"/>
      <point x="509" y="380" type="line" smooth="yes"/>
      <point x="509" y="385"/>
      <point x="509" y="388"/>
      <point x="508" y="394" type="curve"/>
      <point x="549" y="455"/>
      <point x="595" y="467"/>
      <point x="634" y="467" type="curve" smooth="yes"/>
      <point x="696" y="467"/>
      <point x="736" y="418"/>
      <point x="736" y="341" type="curve"/>
      <point x="736" y="53" type="line"/>
      <point x="736" y="41"/>
      <point x="723" y="28"/>
      <point x="707" y="28" type="curve"/>
      <point x="700" y="28" type="line"/>
      <point x="700" y="0" type="line"/>
      <point x="865" y="0" type="line"/>
      <point x="865" y="28" type="line"/>
      <point x="858" y="28" type="line"/>
      <point x="843" y="28"/>
      <point x="829" y="41"/>
      <point x="829" y="52" type="curve"/>
      <point x="829" y="346" type="line"/>
      <point x="829" y="456"/>
      <point x="739" y="508"/>
      <point x="651" y="508" type="curve" smooth="yes"/>
      <point x="583" y="508"/>
      <point x="519" y="493"/>
      <point x="477" y="432" type="curve"/>
      <point x="444" y="487"/>
      <point x="384" y="511"/>
      <point x="321" y="511" type="curve" smooth="yes"/>
      <point x="256" y="511"/>
      <point x="230" y="493"/>
      <point x="187" y="462" type="curve"/>
      <point x="187" y="422" type="line"/>
      <point x="230" y="453"/>
      <point x="252" y="468"/>
      <point x="298" y="468" type="curve" smooth="yes"/>
      <point x="365" y="468"/>
      <point x="410" y="414"/>
      <point x="410" y="348" type="curve"/>
      <point x="410" y="53" type="line"/>
      <point x="410" y="41"/>
      <point x="396" y="28"/>
      <point x="380" y="28" type="curve"/>
      <point x="373" y="28" type="line"/>
    </contour>
    <contour>
      <point x="57" y="0" type="line"/>
      <point x="233" y="0" type="line"/>
      <point x="233" y="28" type="line"/>
      <point x="226" y="28" type="line"/>
      <point x="211" y="28"/>
      <point x="197" y="41"/>
      <point x="197" y="52" type="curve"/>
      <point x="197" y="474" type="line"/>
      <point x="197" y="478"/>
      <point x="197" y="482"/>
      <point x="197" y="490" type="curve" smooth="yes"/>
      <point x="197" y="499"/>
      <point x="197" y="513"/>
      <point x="184" y="513" type="curve" smooth="yes"/>
      <point x="183" y="513"/>
      <point x="182" y="513"/>
      <point x="179" y="512" type="curve" smooth="yes"/>
      <point x="59" y="488" type="line"/>
      <point x="59" y="462" type="line"/>
      <point x="64" y="462" type="line"/>
      <point x="81" y="462"/>
      <point x="93" y="452"/>
      <point x="93" y="431" type="curve"/>
      <point x="93" y="53" type="line"/>
      <point x="93" y="41"/>
      <point x="80" y="28"/>
      <point x="64" y="28" type="curve"/>
      <point x="57" y="28" type="line"/>
    </contour>
    <contour>
      <point x="458" y="-1" type="move" name="bottom"/>
    </contour>
    <contour>
      <point x="470" y="501" type="move" name="top"/>
    </contour>
  </outline>
</glyph>
<glyph name="n" format="1">
  <advance width="588"/>
  <unicode hex="006E"/>
  <outline>
    <contour>
      <point x="192" y="445" type="curve"/>
      <point x="192" y="451" type="line"/>
      <point x="192" y="51" type="line"/>
      <point x="194" y="40"/>
      <point x="206" y="29"/>
      <point x="221" y="29" type="curve" smooth="yes"/>
      <point x="228" y="29" type="line"/>
      <point x="228" y="0" type="line"/>
      <point x="52" y="0" type="line"/>
      <point x="52" y="29" type="line"/>
      <point x="59" y="29" type="line" smooth="yes"/>
      <point x="75" y="29"/>
      <point x="86" y="42"/>
      <point x="88" y="54" type="curve"/>
      <point x="88" y="431" type="line" smooth="yes"/>
      <point x="88" y="452"/>
      <point x="78" y="462"/>
      <point x="61" y="462" type="curve" smooth="yes"/>
      <point x="54" y="462" type="line"/>
      <point x="54" y="488" type="line"/>
      <point x="173" y="513" type="line" smooth="yes"/>
      <point x="176" y="514"/>
      <point x="177" y="514"/>
      <point x="180" y="514" type="curve" smooth="yes"/>
      <point x="190" y="514"/>
      <point x="192" y="504"/>
      <point x="192" y="489" type="curve" smooth="yes"/>
      <point x="192" y="480"/>
      <point x="192" y="487"/>
    </contour>
    <contour>
      <point x="182" y="435" type="curve"/>
      <point x="184" y="472" type="line"/>
      <point x="228" y="503"/>
      <point x="256" y="512"/>
      <point x="318" y="512" type="curve" smooth="yes"/>
      <point x="405" y="512"/>
      <point x="507" y="459"/>
      <point x="507" y="349" type="curve" smooth="yes"/>
      <point x="507" y="53" type="line"/>
      <point x="510" y="42"/>
      <point x="522" y="29"/>
      <point x="537" y="29" type="curve" smooth="yes"/>
      <point x="543" y="29" type="line"/>
      <point x="543" y="0" type="line"/>
      <point x="378" y="0" type="line"/>
      <point x="378" y="29" type="line"/>
      <point x="385" y="29" type="line" smooth="yes"/>
      <point x="401" y="29"/>
      <point x="413" y="42"/>
      <point x="415" y="55" type="curve"/>
      <point x="415" y="358" type="line" smooth="yes"/>
      <point x="415" y="424"/>
      <point x="364" y="477"/>
      <point x="296" y="477" type="curve" smooth="yes"/>
      <point x="259" y="477"/>
      <point x="226" y="468"/>
    </contour>
  </outline>
</glyph>
<glyph name="o" format="1">
  <advance width="547"/>
  <unicode hex="006F"/>
  <outline>
    <contour>
      <point x="278" y="-10" type="curve" smooth="yes"/>
      <point x="422" y="-10"/>
      <point x="513" y="58"/>
      <point x="513" y="254" type="curve" smooth="yes"/>
      <point x="513" y="439"/>
      <point x="397" y="512"/>
      <point x="268" y="512" type="curve" smooth="yes"/>
      <point x="128" y="512"/>
      <point x="35" y="439"/>
      <point x="35" y="254" type="curve" smooth="yes"/>
      <point x="35" y="63"/>
      <point x="137" y="-10"/>
    </contour>
    <contour>
      <point x="282" y="35" type="curve" smooth="yes"/>
      <point x="190" y="35"/>
      <point x="145" y="129"/>
      <point x="145" y="275" type="curve" smooth="yes"/>
      <point x="145" y="387"/>
      <point x="193" y="482"/>
      <point x="268" y="482" type="curve" smooth="yes"/>
      <point x="366" y="482"/>
      <point x="403" y="382"/>
      <point x="403" y="236" type="curve" smooth="yes"/>
      <point x="403" y="158"/>
      <point x="371" y="35"/>
    </contour>
    <contour>
      <point x="278" y="-17" type="move" name="bottom"/>
    </contour>
    <contour>
      <point x="273" y="516" type="move" name="top"/>
    </contour>
  </outline>
</glyph>
<glyph name="p" format="1">
  <advance width="569"/>
  <unicode hex="0070"/>
  <outline>
    <contour>
      <point x="296" y="-10" type="curve" smooth="yes"/>
      <point x="455" y="-10"/>
      <point x="529" y="65"/>
      <point x="529" y="250" type="curve" smooth="yes"/>
      <point x="529" y="432"/>
      <point x="428" y="512"/>
      <point x="293" y="512" type="curve" smooth="yes"/>
      <point x="238" y="512"/>
      <point x="206" y="497"/>
      <point x="172" y="481" type="curve"/>
      <point x="169" y="424" type="line"/>
      <point x="212" y="453"/>
      <point x="252" y="468"/>
      <point x="285" y="468" type="curve" smooth="yes"/>
      <point x="404" y="468"/>
      <point x="428" y="380"/>
      <point x="428" y="226" type="curve" smooth="yes"/>
      <point x="428" y="109"/>
      <point x="382" y="21"/>
      <point x="304" y="21" type="curve" smooth="yes"/>
      <point x="230" y="21"/>
      <point x="189" y="74"/>
      <point x="180" y="128" type="curve"/>
      <point x="165" y="24" type="line"/>
      <point x="216" y="-4"/>
      <point x="253" y="-10"/>
    </contour>
    <contour>
      <point x="43" y="-232" type="line"/>
      <point x="219" y="-232" type="line"/>
      <point x="219" y="-204" type="line"/>
      <point x="214" y="-203" type="line" smooth="yes"/>
      <point x="198" y="-200"/>
      <point x="185" y="-190"/>
      <point x="183" y="-178" type="curve"/>
      <point x="183" y="496" type="line"/>
      <point x="183" y="505"/>
      <point x="181" y="513"/>
      <point x="171" y="513" type="curve" smooth="yes"/>
      <point x="170" y="513"/>
      <point x="167" y="513"/>
      <point x="165" y="513" type="curve" smooth="yes"/>
      <point x="45" y="487" type="line"/>
      <point x="45" y="461" type="line"/>
      <point x="52" y="461" type="line" smooth="yes"/>
      <point x="69" y="461"/>
      <point x="79" y="452"/>
      <point x="79" y="431" type="curve" smooth="yes"/>
      <point x="79" y="-178" type="line"/>
      <point x="77" y="-190"/>
      <point x="66" y="-201"/>
      <point x="50" y="-203" type="curve" smooth="yes"/>
      <point x="43" y="-204" type="line"/>
    </contour>
  </outline>
</glyph>
<glyph name="q" format="1">
  <advance width="592"/>
  <unicode hex="0071"/>
  <outline>
    <contour>
      <point x="299" y="-13" type="curve" smooth="yes"/>
      <point x="351" y="-13"/>
      <point x="380" y="3"/>
      <point x="421" y="26" type="curve"/>
      <point x="421" y="76" type="line"/>
      <point x="388" y="49"/>
      <point x="343" y="33"/>
      <point x="312" y="33" type="curve" smooth="yes"/>
      <point x="202" y="33"/>
      <point x="165" y="153"/>
      <point x="165" y="274" type="curve" smooth="yes"/>
      <point x="165" y="422"/>
      <point x="235" y="480"/>
      <point x="295" y="480" type="curve" smooth="yes"/>
      <point x="352" y="480"/>
      <point x="389" y="438"/>
      <point x="421" y="400" type="curve"/>
      <point x="428" y="472" type="line"/>
      <point x="377" y="495"/>
      <point x="337" y="512"/>
      <point x="293" y="512" type="curve" smooth="yes"/>
      <point x="140" y="512"/>
      <point x="64" y="438"/>
      <point x="64" y="250" type="curve" smooth="yes"/>
      <point x="64" y="77"/>
      <point x="160" y="-13"/>
    </contour>
    <contour>
      <point x="374" y="-232" type="line"/>
      <point x="550" y="-232" type="line"/>
      <point x="550" y="-203" type="line"/>
      <point x="543" y="-202" type="line" smooth="yes"/>
      <point x="527" y="-200"/>
      <point x="516" y="-189"/>
      <point x="514" y="-177" type="curve"/>
      <point x="514" y="486" type="line" smooth="yes"/>
      <point x="514" y="495"/>
      <point x="514" y="510"/>
      <point x="501" y="510" type="curve" smooth="yes"/>
      <point x="499" y="510"/>
      <point x="496" y="509"/>
      <point x="494" y="508" type="curve" smooth="yes"/>
      <point x="396" y="475" type="line"/>
      <point x="410" y="414" type="line"/>
      <point x="410" y="395"/>
      <point x="410" y="428"/>
      <point x="410" y="30" type="curve"/>
      <point x="410" y="33" type="line"/>
      <point x="410" y="-177" type="line"/>
      <point x="408" y="-189"/>
      <point x="398" y="-200"/>
      <point x="381" y="-202" type="curve" smooth="yes"/>
      <point x="374" y="-203" type="line"/>
    </contour>
  </outline>
</glyph>
<glyph name="r" format="1">
  <advance width="425"/>
  <unicode hex="0072"/>
  <outline>
    <contour>
      <point x="54" y="0" type="line"/>
      <point x="230" y="0" type="line"/>
      <point x="230" y="28" type="line"/>
      <point x="222" y="28" type="line"/>
      <point x="209" y="28"/>
      <point x="194" y="41"/>
      <point x="194" y="52" type="curve"/>
      <point x="194" y="489" type="line"/>
      <point x="194" y="499"/>
      <point x="194" y="513"/>
      <point x="181" y="513" type="curve" smooth="yes"/>
      <point x="180" y="513"/>
      <point x="178" y="513"/>
      <point x="176" y="513" type="curve" smooth="yes"/>
      <point x="56" y="486" type="line"/>
      <point x="56" y="461" type="line"/>
      <point x="63" y="461" type="line"/>
      <point x="80" y="461"/>
      <point x="90" y="453"/>
      <point x="90" y="433" type="curve"/>
      <point x="90" y="53" type="line"/>
      <point x="90" y="41"/>
      <point x="77" y="28"/>
      <point x="61" y="28" type="curve"/>
      <point x="54" y="28" type="line"/>
    </contour>
    <contour>
      <point x="191" y="372" type="line"/>
      <point x="193" y="392"/>
      <point x="227" y="434"/>
      <point x="267" y="434" type="curve" smooth="yes"/>
      <point x="277" y="434"/>
      <point x="288" y="429"/>
      <point x="300" y="423" type="curve" smooth="yes"/>
      <point x="312" y="417"/>
      <point x="326" y="411"/>
      <point x="339" y="411" type="curve" smooth="yes"/>
      <point x="364" y="411"/>
      <point x="399" y="431"/>
      <point x="399" y="463" type="curve" smooth="yes"/>
      <point x="399" y="491"/>
      <point x="343" y="501"/>
      <point x="325" y="501" type="curve" smooth="yes"/>
      <point x="269" y="501"/>
      <point x="219" y="471"/>
      <point x="183" y="437" type="curve"/>
    </contour>
    <contour>
      <point x="145" y="0" type="move" name="bottom"/>
    </contour>
    <contour>
      <point x="222" y="501" type="move" name="top"/>
    </contour>
  </outline>
</glyph>
<glyph name="s" format="1">
  <advance width="449"/>
  <unicode hex="0073"/>
  <outline>
    <contour>
      <point x="225" y="-10" type="curve" smooth="yes"/>
      <point x="324" y="-10"/>
      <point x="399" y="49"/>
      <point x="399" y="144" type="curve" smooth="yes"/>
      <point x="399" y="215"/>
      <point x="339" y="258"/>
      <point x="284" y="291" type="curve"/>
      <point x="255" y="309" type="line"/>
      <point x="217" y="333"/>
      <point x="179" y="362"/>
      <point x="179" y="399" type="curve" smooth="yes"/>
      <point x="179" y="422"/>
      <point x="194" y="470"/>
      <point x="249" y="470" type="curve" smooth="yes"/>
      <point x="284" y="470"/>
      <point x="299" y="444"/>
      <point x="311" y="422" type="curve" smooth="yes"/>
      <point x="320" y="406"/>
      <point x="328" y="392"/>
      <point x="341" y="392" type="curve" smooth="yes"/>
      <point x="367" y="392"/>
      <point x="372" y="453"/>
      <point x="372" y="464" type="curve" smooth="yes"/>
      <point x="372" y="488"/>
      <point x="307" y="506"/>
      <point x="247" y="506" type="curve" smooth="yes"/>
      <point x="141" y="506"/>
      <point x="83" y="450"/>
      <point x="83" y="370" type="curve" smooth="yes"/>
      <point x="83" y="317"/>
      <point x="133" y="269"/>
      <point x="178" y="240" type="curve"/>
      <point x="214" y="217" type="line"/>
      <point x="267" y="184"/>
      <point x="305" y="149"/>
      <point x="305" y="113" type="curve" smooth="yes"/>
      <point x="305" y="74"/>
      <point x="276" y="30"/>
      <point x="225" y="30" type="curve" smooth="yes"/>
      <point x="146" y="30"/>
      <point x="124" y="102"/>
      <point x="114" y="136" type="curve" smooth="yes"/>
      <point x="112" y="143"/>
      <point x="106" y="148"/>
      <point x="100" y="148" type="curve" smooth="yes"/>
      <point x="74" y="148"/>
      <point x="47" y="101"/>
      <point x="47" y="83" type="curve" smooth="yes"/>
      <point x="47" y="49"/>
      <point x="104" y="-10"/>
    </contour>
    <contour>
      <point x="213" y="-18" type="move" name="bottom"/>
    </contour>
    <contour>
      <point x="229" y="512" type="move" name="top"/>
    </contour>
  </outline>
</glyph>
<glyph name="t" format="1">
  <advance width="380"/>
  <unicode hex="0074"/>
  <outline>
    <contour>
      <point x="269" y="-10" type="curve" smooth="yes"/>
      <point x="290" y="-10"/>
      <point x="302" y="-6"/>
      <point x="321" y="2" type="curve"/>
      <point x="314" y="35" type="line"/>
      <point x="305" y="32"/>
      <point x="294" y="30"/>
      <point x="286" y="30" type="curve" smooth="yes"/>
      <point x="259" y="30"/>
      <point x="240" y="43"/>
      <point x="229" y="73" type="curve" smooth="yes"/>
      <point x="223" y="89"/>
      <point x="223" y="139"/>
      <point x="223" y="164" type="curve" smooth="yes"/>
      <point x="223" y="296" type="line" smooth="yes"/>
      <point x="223" y="353"/>
      <point x="223" y="421"/>
      <point x="223" y="477" type="curve" smooth="yes"/>
      <point x="223" y="499" type="line" smooth="yes"/>
      <point x="223" y="521"/>
      <point x="223" y="542"/>
      <point x="223" y="564" type="curve" smooth="yes"/>
      <point x="223" y="579"/>
      <point x="211" y="592"/>
      <point x="196" y="592" type="curve" smooth="yes"/>
      <point x="183" y="592"/>
      <point x="170" y="581"/>
      <point x="166" y="577" type="curve" smooth="yes"/>
      <point x="132" y="543"/>
      <point x="115" y="533"/>
      <point x="76" y="513" type="curve" smooth="yes"/>
      <point x="60" y="505"/>
      <point x="46" y="495"/>
      <point x="46" y="486" type="curve" smooth="yes"/>
      <point x="46" y="479"/>
      <point x="51" y="477"/>
      <point x="56" y="476" type="curve" smooth="yes"/>
      <point x="59" y="475"/>
      <point x="70" y="475"/>
      <point x="81" y="475" type="curve" smooth="yes"/>
      <point x="92" y="475"/>
      <point x="103" y="475"/>
      <point x="105" y="474" type="curve" smooth="yes"/>
      <point x="114" y="472"/>
      <point x="119" y="469"/>
      <point x="119" y="453" type="curve" smooth="yes"/>
      <point x="119" y="358"/>
      <point x="119" y="266"/>
      <point x="119" y="169" type="curve"/>
      <point x="119" y="112"/>
      <point x="120" y="54"/>
      <point x="152" y="24" type="curve" smooth="yes"/>
      <point x="177" y="0"/>
      <point x="229" y="-10"/>
    </contour>
    <contour>
      <point x="216" y="461" type="line"/>
      <point x="219" y="466"/>
      <point x="228" y="468"/>
      <point x="237" y="468" type="curve" smooth="yes"/>
      <point x="271" y="468"/>
      <point x="316" y="468"/>
      <point x="334" y="467" type="curve"/>
      <point x="336" y="470"/>
      <point x="340" y="482"/>
      <point x="340" y="488" type="curve" smooth="yes"/>
      <point x="340" y="501"/>
      <point x="329" y="511"/>
      <point x="310" y="511" type="curve" smooth="yes"/>
      <point x="304" y="511"/>
      <point x="290" y="511"/>
      <point x="272" y="510" type="curve" smooth="yes"/>
      <point x="253" y="509"/>
      <point x="230" y="509"/>
      <point x="209" y="509" type="curve"/>
    </contour>
  </outline>
</glyph>
<glyph name="u" format="1">
  <advance width="590"/>
  <unicode hex="0075"/>
  <outline>
    <contour>
      <point x="257" y="-10" type="curve" smooth="yes"/>
      <point x="327" y="-10"/>
      <point x="362" y="-5"/>
      <point x="413" y="32" type="curve"/>
      <point x="415" y="87" type="line"/>
      <point x="366" y="53"/>
      <point x="323" y="35"/>
      <point x="282" y="35" type="curve" smooth="yes"/>
      <point x="207" y="35"/>
      <point x="168" y="90"/>
      <point x="168" y="156" type="curve" smooth="yes"/>
      <point x="168" y="485" type="line" smooth="yes"/>
      <point x="168" y="496"/>
      <point x="167" y="509"/>
      <point x="154" y="509" type="curve" smooth="yes"/>
      <point x="152" y="509"/>
      <point x="149" y="508"/>
      <point x="146" y="507" type="curve" smooth="yes"/>
      <point x="40" y="482" type="line"/>
      <point x="40" y="457" type="line"/>
      <point x="47" y="457" type="line" smooth="yes"/>
      <point x="64" y="457"/>
      <point x="74" y="442"/>
      <point x="74" y="422" type="curve" smooth="yes"/>
      <point x="74" y="141" type="line" smooth="yes"/>
      <point x="74" y="30"/>
      <point x="171" y="-10"/>
    </contour>
    <contour>
      <point x="433" y="-8" type="curve" smooth="yes"/>
      <point x="463" y="-8"/>
      <point x="506" y="7"/>
      <point x="537" y="21" type="curve"/>
      <point x="530" y="59" type="line"/>
      <point x="519" y="56"/>
      <point x="505" y="53"/>
      <point x="494" y="51" type="curve"/>
      <point x="494" y="486" type="line" smooth="yes"/>
      <point x="494" y="497"/>
      <point x="494" y="509"/>
      <point x="481" y="509" type="curve" smooth="yes"/>
      <point x="480" y="509"/>
      <point x="477" y="509"/>
      <point x="474" y="508" type="curve" smooth="yes"/>
      <point x="367" y="486" type="line"/>
      <point x="367" y="460" type="line"/>
      <point x="374" y="460" type="line" smooth="yes"/>
      <point x="388" y="460"/>
      <point x="401" y="445"/>
      <point x="401" y="425" type="curve" smooth="yes"/>
      <point x="401" y="28" type="line" smooth="yes"/>
      <point x="401" y="26"/>
      <point x="401" y="-8"/>
    </contour>
  </outline>
</glyph>
<glyph name="v" format="1">
  <advance width="564"/>
  <unicode hex="0076"/>
  <outline>
    <contour>
      <point x="272" y="-9" type="curve" smooth="yes"/>
      <point x="283" y="-9"/>
      <point x="294" y="-4"/>
      <point x="297" y="4" type="curve" smooth="yes"/>
      <point x="301" y="14"/>
      <point x="368" y="176"/>
      <point x="425" y="310" type="curve" smooth="yes"/>
      <point x="465" y="405"/>
      <point x="486" y="453"/>
      <point x="488" y="456" type="curve" smooth="yes"/>
      <point x="494" y="468"/>
      <point x="501" y="482"/>
      <point x="516" y="482" type="curve" smooth="yes"/>
      <point x="523" y="482" type="line"/>
      <point x="523" y="507" type="line"/>
      <point x="404" y="507" type="line"/>
      <point x="404" y="482" type="line"/>
      <point x="411" y="482" type="line" smooth="yes"/>
      <point x="426" y="482"/>
      <point x="434" y="467"/>
      <point x="434" y="457" type="curve" smooth="yes"/>
      <point x="434" y="454"/>
      <point x="434" y="452"/>
      <point x="433" y="449" type="curve" smooth="yes"/>
      <point x="424" y="431"/>
      <point x="403" y="386"/>
      <point x="380" y="330" type="curve" smooth="yes"/>
      <point x="348" y="253"/>
      <point x="300" y="138"/>
      <point x="288" y="115" type="curve"/>
      <point x="300" y="115" type="line"/>
      <point x="292" y="135"/>
      <point x="252" y="247"/>
      <point x="226" y="321" type="curve" smooth="yes"/>
      <point x="205" y="380"/>
      <point x="190" y="427"/>
      <point x="185" y="446" type="curve" smooth="yes"/>
      <point x="183" y="451"/>
      <point x="182" y="457"/>
      <point x="182" y="460" type="curve" smooth="yes"/>
      <point x="182" y="468"/>
      <point x="187" y="482"/>
      <point x="203" y="482" type="curve" smooth="yes"/>
      <point x="210" y="482" type="line"/>
      <point x="210" y="507" type="line"/>
      <point x="47" y="507" type="line"/>
      <point x="47" y="482" type="line"/>
      <point x="67" y="482"/>
      <point x="74" y="467"/>
      <point x="81" y="451" type="curve" smooth="yes"/>
      <point x="92" y="425"/>
      <point x="116" y="364"/>
      <point x="143" y="292" type="curve" smooth="yes"/>
      <point x="176" y="204"/>
      <point x="214" y="97"/>
      <point x="234" y="40" type="curve"/>
      <point x="237" y="33"/>
      <point x="243" y="19"/>
      <point x="248" y="7" type="curve" smooth="yes"/>
      <point x="252" y="-2"/>
      <point x="262" y="-9"/>
    </contour>
    <contour>
      <point x="277" y="-14" type="move" name="bottom"/>
    </contour>
  </outline>
</glyph>
